<svg width="47" height="50" viewBox="0 0 47 50" xmlns="http://www.w3.org/2000/svg" xmlns:xlink="http://www.w3.org/1999/xlink"><title>406E0F9D-9766-4CAB-BCC6-7FBA59B6A024</title><defs><path id="a" d="M46.895 16.108V.25H0V16.11h46.895z"/></defs><g fill="none" fill-rule="evenodd"><path d="M35.058 16.15c.84.004 1.68.007 2.522.007a1.024 1.024 0 0 0-.24.547c-.01.044-.006.092-.01.137v.103c0 .057-.002.165.017.254.06.366.328.69.68.82.168.07.388.074.502.07.01.26.025.532.063.793.105.776.057 4.38.03 5.507-.06 2.402-.02 4.883-.037 7.298a123.408 123.408 0 0 1-.085 4.075c-.015.445 0 .932-.003 1.377a63.94 63.94 0 0 0 .016 2.08 1.1 1.1 0 0 0-.87.52c-.073.123-.12.26-.143.4-.013.064-.013.153-.013.2v.766a1.08 1.08 0 0 0-.81 1.034c0 .227.078.456.212.64h-.924c.14-.184.22-.41.217-.64 0-.288-.124-.568-.32-.763a1.094 1.094 0 0 0-.384-.238c.003-.175.01-.296.003-.404l-.01-.315c-.003-.086 0-.24-.038-.376a1.098 1.098 0 0 0-.475-.65 1.055 1.055 0 0 0-.584-.163l-.156-.003h-.108a8.14 8.14 0 0 0-.062-.78c-.105-.776-.057-4.38-.028-5.506.057-2.405.02-4.887.035-7.3.006-1.366.035-2.718.086-4.076.017-.442 0-.932.004-1.378.003-.474.003-1.18-.02-2.09.07-.003.144 0 .253-.013a1.1 1.1 0 0 0 .62-.304c.163-.165.275-.385.307-.617.01-.055.006-.12.01-.167v-.127c0-.098-.013-.226-.048-.334a1.015 1.015 0 0 0-.208-.38M18.785 16.106c3.818.01 7.33.022 9.246.032h.122c-.02.02-.032.038-.048.057a1.057 1.057 0 0 0-.207.51c-.006.044-.006.09-.01.136v.103a1.08 1.08 0 0 0 .698 1.075c.166.07.393.073.504.07.008.257.024.53.06.792.105.776.057 4.38.028 5.507-.057 2.402-.02 4.883-.032 7.297-.01 1.365-.038 2.717-.09 4.075-.015.445 0 .932-.002 1.377a64.7 64.7 0 0 0 .02 2.08 1.088 1.088 0 0 0-1.03 1.12l.003.156c-.003.207-.003.407-.003.61a1.076 1.076 0 0 0-.806 1.034c-.004.227.073.453.206.634-3.088-.005-5.845-.015-7.432-.024h-.258a1.04 1.04 0 0 0 .19-.608 1.072 1.072 0 0 0-.7-1.002c.003-.172.006-.296.003-.404-.003-.105-.01-.21-.013-.315 0-.086 0-.24-.035-.376a1.103 1.103 0 0 0-.48-.65 1.034 1.034 0 0 0-.385-.147 1.126 1.126 0 0 0-.197-.016l-.153-.003h-.112a7.18 7.18 0 0 0-.06-.78c-.105-.776-.054-4.38-.03-5.506.062-2.405.024-4.886.036-7.3.01-1.366.038-2.718.085-4.076.02-.442.003-.932.007-1.378 0-.474.003-1.18-.02-2.09.067-.003.14 0 .25-.012a1.09 1.09 0 0 0 .62-.306c.163-.165.278-.385.306-.617.01-.055.01-.12.01-.166v-.128c0-.098-.01-.226-.045-.334a1.023 1.023 0 0 0-.248-.426M11.002 42.138c0 .2.06.404.166.576h-.832c.108-.172.17-.372.166-.576a1.06 1.06 0 0 0-.702-1.002c.003-.172.007-.296.003-.404l-.01-.315c-.002-.086-.002-.24-.037-.376a1.095 1.095 0 0 0-.475-.65 1.05 1.05 0 0 0-.586-.163l-.152-.003h-.11a8.02 8.02 0 0 0-.06-.78c-.105-.776-.057-4.38-.028-5.506.057-2.405.02-4.887.032-7.3.01-1.366.038-2.718.09-4.076.015-.442 0-.932.002-1.378a65.27 65.27 0 0 0-.02-2.09c.07-.003.145 0 .25-.013a1.067 1.067 0 0 0 .928-.923c.01-.052.01-.116.012-.164v-.127a1.253 1.253 0 0 0-.048-.334 1.01 1.01 0 0 0-.245-.423c.828-.004 1.702-.004 2.604-.004a1.027 1.027 0 0 0-.284.598c-.01.045-.01.092-.01.137v.102a1.082 1.082 0 0 0 .695 1.075c.17.07.39.074.504.07.01.258.025.532.063.793.106.776.054 4.38.03 5.507-.06 2.402-.02 4.883-.036 7.298a123.408 123.408 0 0 1-.085 4.075c-.016.445-.003.932-.003 1.377a63.73 63.73 0 0 0 .016 2.08 1.092 1.092 0 0 0-.87.52c-.074.123-.125.26-.144.4-.013.064-.013.153-.013.2v.156c0 .207 0 .41-.002.614a.297.297 0 0 0-.073.02 1.078 1.078 0 0 0-.733 1.01" fill="#C5D3E3"/><path d="M18.642 40.248c.003.03.006.06.006.118-.003.17-.003.404.006.7-.522 0-.85-.016-1.115-.006-1.623.04-3.128-.02-4.74.003l-.424.003a1.966 1.966 0 0 0-.07-.436 1.315 1.315 0 0 1-.032-.184c-.004-.042-.007-.083-.013-.128 0-.04-.002-.08.004-.12a.597.597 0 0 1 .312-.456.602.602 0 0 1 .293-.073c.124 0 .245.002.356.006l.55.022c1.073.057 2.18.02 3.26.035.302.003.605.013.908.025l.226.013c.05.007.098.02.146.04.093.037.17.1.22.18.032.055.064.11.083.17.01.028.018.057.022.088M18.868 41.632l.003-.207h.004v.207a.63.63 0 0 1 .53.28c.025.038.06.09.073.226.025.162-.067.46-.364.592-.01.003-.022.01-.032.012a947.4 947.4 0 0 0-4.38-.02c-.47-.005-.94-.008-1.413-.012h-1.224a.577.577 0 0 1-.564-.572.576.576 0 0 1 .407-.547c.083-.025.144-.025.268-.025 1.163.01 2.32.038 3.48.09.38.015.797 0 1.18.002a50.79 50.79 0 0 0 2.033-.025M10.033 42.138c.025.156-.06.442-.335.576-1.673-.003-3.35-.003-5.03-.003H2.615a.578.578 0 0 1-.557-.572.577.577 0 0 1 .407-.547c.087-.025.144-.025.268-.025 1.168.01 2.32.04 3.485.09.38.015.797 0 1.176.003.447.003 1.14.003 2.038-.026v-.207h.003v.207c.186-.01.4.09.533.28.022.038.057.09.07.226M9.18 40.16c.01.028.015.057.02.088.004.03.004.06.004.118-.003.17-.003.404.01.7-.523 0-.85-.016-1.12-.006-1.62.04-3.122-.02-4.735.003l-.428.003a1.955 1.955 0 0 0-.067-.436.93.93 0 0 1-.035-.184l-.01-.128c-.003-.04-.006-.08 0-.12a.608.608 0 0 1 .61-.528c.123 0 .242.003.356.006l.545.022c1.075.057 2.184.02 3.262.035.303.003.608.013.91.025l.224.013c.05.008.102.02.147.04.092.038.17.1.22.18a.846.846 0 0 1 .086.17" fill="#A8DCF6"/><path d="M46.22 48.41c0 .035 0 .054-.003.09-.007.104-.026.174-.045.174h-.003c-3.46-.016-5.492-.016-7.093-.035-8.62.228-16.608-.09-25.188.018-3.392.016-6.792.035-10.2.035H1.13c-.29 0-.24 0-.266-.213-.004-.123 0-.826 0-1.268v-3.488c.236.09.548.09.653.09 3.767-.02 7.152.456 11.012.492 3.673.053 7.37-.017 11.06-.052 3.705.035 7.415.105 11.102.052 3.86-.036 7.244-.512 11.012-.493.086 0 .312 0 .52-.035v4.191l-.004.44z" fill="#C5D3E3"/><path d="M44.33 41.066c-.523 0-.85-.016-1.115-.006-1.623.04-3.124-.02-4.74.003l-.424.003a1.992 1.992 0 0 0-.07-.436 1.364 1.364 0 0 1-.03-.184 1.814 1.814 0 0 0-.014-.128c0-.04-.003-.08.004-.12a.596.596 0 0 1 .312-.455.6.6 0 0 1 .297-.074c.12 0 .24.003.352.006.23.01.424.016.548.022 1.074.057 2.184.02 3.26.035.304.003.606.013.91.025l.225.013c.05.008.103.02.147.04.092.038.17.1.22.18.032.055.064.11.083.17.01.028.02.057.022.088.003.03.007.06.007.118-.004.17-.004.404.006.7M37.175 42.138a.577.577 0 0 1 .408-.547c.083-.025.143-.025.267-.025 1.167.01 2.32.04 3.48.09.38.015.8 0 1.18.003a51.68 51.68 0 0 0 2.033-.026l.004-.207h.003v.207c.185-.01.398.09.532.28.022.038.057.09.07.226a.587.587 0 0 1-.267.538l-.55.01-1.156.03c-.4.014-.973.023-1.687.03-.032.003-.06 0-.09 0-.805-.023-1.62-.032-2.44-.035H37.74a.577.577 0 0 1-.565-.572" fill="#A8DCF6"/><path d="M2.005 43.22c.01 0 0 0 .028-.004h.147l.593.004h.057l1.425.012c.953.007 1.91.013 2.862.007l1.284-.014c1.71 0 3.42.003 5.13.006.057-.003.11-.003.165 0 .956.007 1.912.013 2.862.007.15 0 .297-.004.446-.004 2.368 0 4.73 0 7.092.003 1.753-.004 3.515-.008 5.278-.014l.557.006c.953.007 1.91.013 2.863.007.592-.008 1.19-.014 1.787-.02h.04c.45-.004.904-.004 1.356-.004.584 0 1.167-.003 1.75-.003a.153.153 0 0 0 .035.003l.18.004 1.43.012c.957.007 1.913.013 2.866.007.593-.008 1.192-.014 1.785-.02l.447-.004c.04 0 .1 0 .162-.006h.436c.003 0 .01 0 .013.003.018.007.03.023.034.042v1.584c0 .037 0 .037-.003.04 0 .003 0 .01-.002.013a.05.05 0 0 1-.042.028s0 .033.003.08h-.01l.003-.08c-3.206-.002-5.087-.002-6.572-.005-7.983.04-15.38-.016-23.33.003-3.138.003-6.29.003-9.445.007l-2.37-.004H2.022A.044.044 0 0 1 2 44.916a.05.05 0 0 1-.025-.032v-.53l.003-1.102a.057.057 0 0 1 .03-.03" fill="#D8E3F3"/><path d="M27.73 42.138c0-.165.078-.325.2-.433a.605.605 0 0 1 .212-.114c.083-.025.14-.025.265-.025a98.46 98.46 0 0 1 3.483.09c.38.015.797 0 1.18.003a51.75 51.75 0 0 0 2.033-.026v-.207h.006l-.004.207c.185-.01.4.09.532.28.023.038.06.09.07.226a.593.593 0 0 1-.59.64c-.002.003-.002.003-.005 0-.055.003-.11.003-.166.003h-.87c-.85-.006-1.69-.022-2.113-.034-.807-.023-1.622-.032-2.442-.035H28.3a.578.578 0 0 1-.57-.572M29.105 39.67c.124 0 .242.003.357.006l.548.022c1.07.057 2.18.02 3.257.035.306.003.61.013.912.025l.222.013c.05.008.102.02.147.04.09.037.167.1.218.18a.836.836 0 0 1 .087.17c.01.028.016.057.022.088.003.03.006.06.003.118-.003.17-.003.404.01.7-.523 0-.85-.016-1.12-.006-1.62.04-3.123-.02-4.735.003l-.427.003a1.98 1.98 0 0 0-.067-.436 1.2 1.2 0 0 1-.034-.184l-.01-.128a.596.596 0 0 1 .312-.576.61.61 0 0 1 .297-.073" fill="#A8DCF6"/><path d="M38.647 18.107c.497.003 1.005 0 1.502 0 .933-.003 1.88-.003 2.814-.006 0 .586-.05.955-.013 1.26.144 1.9-.07 3.656 0 5.545.12 2.987-.152 6.01-.07 9.003.048 1.775.118 3.582.095 5.32-1.55.01-3.098.01-4.648.002v-.028c.343 0 .332-.376.332-.462-.025-.292.105-4.937.164-6.044 0-.048.083-.853.07-1.206V28.465c.013-1.393 0-2.79-.07-4.158-.06-1.107-.19-5.755-.165-6.044 0-.03 0-.09-.013-.156" fill="#E4EBF6"/><path d="M43.683 16.332a.684.684 0 0 1 .484.194.45.45 0 0 1 .115.197.75.75 0 0 1 .022.175c0 .035.004.073.004.114 0 .032 0 .064-.004.1-.022.273-.303.565-.672.54a71.196 71.196 0 0 1-2.107-.038c-.88-.03-1.77-.032-2.664-.032-.21-.006-.477.016-.608-.02a.567.567 0 0 1-.366-.298.593.593 0 0 1-.06-.232v-.16c0-.057 0-.085.008-.13a.553.553 0 0 1 .262-.385.517.517 0 0 1 .252-.082c.038-.003.105-.003.17 0l.183.003.744.015c.497.017.99.035 1.488.06.326.017.683 0 1.007.004.38.004.97.004 1.737-.025l.003-.16h.003v.16z" fill="#A8DCF6"/><path d="M34.313 39.202v.006c-1.552-.006-3.103-.01-4.642-.003.012-.573.06-.945.025-1.244-.157-1.895.072-3.654-.013-5.544-.11-2.984.17-6.006.085-9-.048-1.775-.122-3.588-.096-5.322 1.455.003 2.91.01 4.363.01v.13c.013 1.753-.315 3.324-.34 5.12-.034 1.707.014 3.422.038 5.136-.023 1.722-.07 3.446-.036 5.16.024 1.792.352 3.366.34 5.116 0 .083-.025.436.28.436" fill="#E4EBF6"/><path d="M34.724 16.526c.04.035.086.102.115.197.01.05.02.093.02.175.004.035.004.073.007.115-.003.032 0 .063-.006.098-.018.275-.302.567-.67.542a71.227 71.227 0 0 1-2.108-.038c-.877-.03-1.77-.032-2.662-.032-.213-.006-.48.016-.61-.02a.583.583 0 0 1-.368-.298.595.595 0 0 1-.058-.232c-.003-.042 0-.108-.003-.16.004-.056.004-.085.01-.13a.553.553 0 0 1 .262-.385.528.528 0 0 1 .255-.082c.038-.004.102-.004.166 0l.185.003.746.016c.494.016.988.035 1.485.06.324.016.68 0 1.006.003.383.004.972.004 1.74-.025v-.18h.003v.18a.684.684 0 0 1 .484.194" fill="#A8DCF6"/><path d="M8.282 38.766c0 .083-.012.436.283.436v.028c-1.77-.003-3.54-.015-5.313-.022v-.006c.33 0 .33-.376.32-.46-.024-.294.106-4.94.164-6.046 0-.048.083-.852.083-1.206-.012-.397-.012-.8-.012-1.205.01-.605.01-1.212 0-1.82.01-1.393.01-2.79-.072-4.158-.058-1.107-.188-5.755-.164-6.044 0-.03.01-.09-.013-.16 1.58.007 3.163.01 4.734.007-.012.054-.012.102-.012.124.023 1.753-.296 3.325-.33 5.12-.024 1.707.023 3.422.047 5.137-.025 1.72-.072 3.446-.048 5.16.034 1.79.353 3.366.33 5.116M18.08 39.208c-1.555-.006-3.098-.01-4.64-.003 0-.573.048-.942.024-1.244-.158-1.895.06-3.654-.01-5.544-.124-2.984.157-6.006.07-9-.047-1.775-.12-3.585-.084-5.322 1.457.003 2.916.01 4.373.01-.013.057-.013.105-.013.13.025 1.753-.303 3.324-.34 5.12-.024 1.707.013 3.422.048 5.136-.035 1.722-.072 3.446-.048 5.16.037 1.792.365 3.366.34 5.116 0 .082-.012.436.28.436v.006z" fill="#E4EBF6"/><path d="M18.606 16.723c.013.05.02.092.023.175l.002.115c0 .03 0 .063-.003.098-.024.275-.307.567-.674.542a71.227 71.227 0 0 1-2.107-.038 83.196 83.196 0 0 0-2.665-.032c-.213-.006-.48.016-.612-.02a.57.57 0 0 1-.363-.298.603.603 0 0 1-.06-.232c-.004-.042 0-.11 0-.16 0-.057 0-.085.01-.13a.552.552 0 0 1 .26-.385.516.516 0 0 1 .252-.083 1.52 1.52 0 0 1 .166 0l.188.004.742.016c.498.015.992.035 1.49.06.32.016.68 0 1.006.003.38.003.97.003 1.737-.025v-.226h.007l-.003.226a.69.69 0 0 1 .488.194.446.446 0 0 1 .114.197M8.564 16.332a.684.684 0 0 1 .484.194.42.42 0 0 1 .115.197.75.75 0 0 1 .022.175c.004.035.004.073.004.114 0 .032.002.064-.005.1-.022.273-.303.565-.672.54a71.196 71.196 0 0 1-2.107-.038 81.93 81.93 0 0 0-2.664-.032c-.21-.006-.478.016-.61-.02a.575.575 0 0 1-.423-.53c-.004-.042-.004-.11-.004-.16a.79.79 0 0 1 .01-.13.553.553 0 0 1 .26-.385.528.528 0 0 1 .255-.082c.04-.003.104-.003.167 0l.185.003.746.015c.494.017.988.035 1.485.06.325.017.682 0 1.007.004.38.004.972.004 1.74-.025v-.22h.004v.22z" fill="#A8DCF6"/><path d="M.82 12.474a9.82 9.82 0 0 0 .19-.097c1.408 0 2.27.01 2.958.007 3.982-.03 7.672.01 11.634-.004 6.267-.022 12.61.03 18.89.014 3.82-.01 7.72-.025 11.45-.017l.05.025.153.076c.03.014.054.032.078.054.047.04.08.09.098.144.008.03.014.054.014.083v.164l-.003 1.435v.893c0 .037 0 .055-.002.065.003.015-.004.026-.004.04a.318.318 0 0 1-.08.148.376.376 0 0 1-.156.097c-.064.022-.11.022-.243.018h-.672c-7.166-.002-14.335-.01-21.47-.013l-13.464.02c-2.243.005-4.48.01-6.697.01H1.058c-.21.013-.345-.088-.406-.22-.017-.034-.02-.07-.023-.102-.005-.033 0-.137-.005-.202v-.436l.004-.88v-.873c0-.18-.005-.216.03-.285a.323.323 0 0 1 .15-.16s-.02-.042-.046-.103H.78l.04.097z" fill="#C5D3E3"/><path d="M23.318 1.027a.52.52 0 0 1 .385.022l1.472.75c1.98 1.01 3.978 2.023 6.007 3.058 3.215 1.636 6.437 3.273 9.665 4.917 1.455.743 2.914 1.486 4.37 2.232-.4.007-.807.018-1.206.036-.252.012-.65.023-1.154.03-2.11-1.053-4.217-2.098-6.325-3.15-1.498-.737-3.15-1.552-4.655-2.294-1.763-.858-4.49-2.196-8.05-3.937l-.166.338-.008-.004.074-.173c.04-.082.085-.168.085-.168a.745.745 0 0 0-.607-.02l-.453.225-.91.458c-.613.31-1.234.63-1.845.94-1.08.563-3.823 1.923-6.9 3.437l-8.69 4.25c-.737 0-1.612.004-2.618.01 2.7-1.372 4.393-2.23 5.757-2.922 4.073-2.103 8.007-4.1 11.938-6.094.982-.5 1.965-.998 2.948-1.496l.74-.375.087-.043a.42.42 0 0 1 .06-.025" fill="#D0E7F7"/><path d="M23.32 3.024a.36.36 0 0 1 .11-.03.38.38 0 0 1 .22.034l.002-.004.007.004v.003c2.57 1.267 4.08 2.013 5.274 2.6 4.423 2.175 8.607 4.234 12.93 6.357-1.527 0-3.097 0-4.7.004-9.686-.007-19.472-.01-29.19-.018H5.13a13545.115 13545.115 0 0 1 13.957-6.87c.786-.387 1.57-.77 2.35-1.155l1.165-.57.58-.284.14-.07z" fill="#D8E3F3"/><g transform="translate(0 .122)"><mask id="b" fill="#fff"><use xlink:href="#a"/></mask><path d="M.54 11.767a.993.993 0 0 0-.527.722c-.023.18-.008.256-.01.368l.002.318.015 1.3.01.66a.954.954 0 0 0 .847.965c.174.016.246.002.367.002l.66-.02c3.742-.123 21.11-.066 26.536-.034 5.798.033 11.66.043 17.586.037a.94.94 0 0 0 .658-.333.912.912 0 0 0 .177-.336c.038-.123.035-.266.035-.342V12.87c-.003-.1.002-.162-.005-.296a.9.9 0 0 0-.36-.65.996.996 0 0 0-.156-.093l-.123-.064-3.93-2-7.816-3.987-8.736-4.488-1.088-.56-.545-.283L24 .38a1.116 1.116 0 0 0-1.008-.016L22.714.5l-.547.274-1.096.548-4.386 2.19c-1.915.955-4.005 2.04-5.92 3.013C8.526 7.662 5.06 9.427.56 11.757l.283.6L7.55 8.952c4.06-2.095 7.986-4.09 11.907-6.078L22.4 1.38l.737-.374c.145-.074.196-.102.28-.113a.468.468 0 0 1 .236.027l1.447.736c1.975 1.005 3.967 2.02 5.994 3.05l9.642 4.903c1.61.82 3.22 1.644 4.83 2.467l.58.298a.32.32 0 0 1 .157.278l-.003 1.355v.678l-.002.34v.158a.288.288 0 0 1-.014.078.328.328 0 0 1-.315.227h-.505l-21.703-.017-13.61.025-6.767.007H1.29c-.132 0-.312.005-.355-.007a.34.34 0 0 1-.274-.284V12.665c0-.036 0-.04.003-.06a.33.33 0 0 1 .17-.242l-.15-.295-.143-.3" fill="#4983BB" mask="url(#b)"/></g><path d="M23.822 2.677a.77.77 0 0 0-.63-.018c-.15.073-.3.148-.453.224l-.906.453c-.607.31-1.224.628-1.83.938-1.08.565-3.84 1.933-6.93 3.45l-9.362 4.58 3.472.008c8.998.01 18.29.016 27.33.025l8.943.02C41.124 11.2 38.8 10.04 36.47 8.88c-1.492-.733-3.134-1.54-4.63-2.278l-8.002-3.915-.192.35 5.243 2.583 12.94 6.363c-1.484.002-3.017.002-4.578.003l-32.09-.016.003-.003 9.243-4.552c1.58-.776 3.154-1.55 4.716-2.32l2.335-1.145 1.158-.568.578-.284.138-.067a.363.363 0 0 1 .303 0l.09-.177.095-.176z" fill="#4983BB"/><path d="M46.277 11.985a62.29 62.29 0 0 0-2.266.05c-1.63.074-9.192.04-11.554.02-5.044-.04-10.252-.013-15.318-.023-2.86-.006-5.698-.026-8.55-.06-.93-.013-1.957-.002-2.892-.004a436.542 436.542 0 0 0-4.995.017l-.01.4c1.6-.003 2.54.01 3.28.004 3.98-.03 7.67.01 11.632-.003 6.267-.022 12.61.03 18.89.014 3.93-.008 7.947-.024 11.776-.016l.01-.4zM3.354 17.8c.01.337.026.716.084 1.08.123.776.066 4.38.034 5.506-.07 2.403-.024 4.885-.04 7.3-.01 1.363-.043 2.715-.102 4.074-.02.444 0 .933-.004 1.38a59.28 59.28 0 0 0 .028 2.38l.665.004c-.003-.762.016-1.21.007-1.562-.047-1.898.02-3.656-.003-5.544-.037-2.987.05-6.01.025-9.003-.017-1.873-.043-3.787-.03-5.612l-.666-.004zM8.492 39.524a8.642 8.642 0 0 0-.084-1.08c-.123-.777-.066-4.38-.034-5.507.07-2.404.023-4.886.04-7.3.01-1.363.043-2.716.102-4.074.02-.444 0-.933.004-1.38.004-.52.006-1.328-.028-2.38l-.665-.004c.002.76-.017 1.208-.008 1.56.046 1.898-.02 3.657.002 5.545.037 2.987-.05 6.01-.025 9.002.016 1.874.042 3.788.03 5.612l.665.004z" fill="#4983BB"/><path d="M8.478 16.382a.8.8 0 0 1 .488.15c.066.045.176.164.193.392h.39-.39a.674.674 0 0 1-.63.698c-.14.006-.322 0-.478 0a63.963 63.963 0 0 1-1.59-.038 59.77 59.77 0 0 0-2.23-.04H3.393a.627.627 0 0 1-.648-.62H2.24h.503a.616.616 0 0 1 .62-.612l.18.003.738.02c.49.018.982.04 1.473.07.322.02.676.002.998.005.378.004.963.005 1.724-.028l.004-.664c-.552.002-.875-.017-1.13-.008-1.38.048-2.634-.022-4.026.005-.628.016-1.17.58-1.158 1.21-.013.598.482 1.154 1.088 1.205l.11.007h.084l.16.003.325.004.648.008c.864.01 1.727.018 2.587.008l1.366-.02a1.217 1.217 0 0 0 1.155-1.216c.01-.666-.58-1.216-1.203-1.206l-.004.664zM2.984 41.11a1.77 1.77 0 0 0-.084-.48.95.95 0 0 1-.04-.185c-.002-.04-.007-.082-.012-.128-.002-.04-.005-.074 0-.115a.57.57 0 0 1 .58-.508l.357.01.548.025c1.072.068 2.18.022 3.26.04.303.003.606.014.91.03l.223.015a.434.434 0 0 1 .327.21.93.93 0 0 1 .074.15.507.507 0 0 1 .025.19c-.004.233-.006.593.028 1.062h.665c-.002-.338.017-.537.008-.694l-.013-.315c-.002-.086 0-.247-.04-.387a1.137 1.137 0 0 0-.9-.836c-.065-.014-.154-.016-.205-.017l-.153-.003a15.178 15.178 0 0 0-.624.004c-1.333.037-2.682-.05-4.02-.024l-.313.005-.164.004a1.138 1.138 0 0 0-1.1 1.173l.002.155c0 .207-.003.413-.003.617h.664z" fill="#4983BB"/><path d="M9.43 41.68c.168-.01.362.073.5.246.022.035.06.083.072.213h.44H10c.028.152-.057.44-.34.564a.578.578 0 0 1-.225.05h-.962a89.934 89.934 0 0 1-2.19-.04 80.19 80.19 0 0 0-2.44-.04H2.622a.54.54 0 0 1-.53-.535H1.59h.503a.537.537 0 0 1 .383-.515.78.78 0 0 1 .256-.022 81.5 81.5 0 0 1 3.482.102c.38.02.797.002 1.178.005.445.003 1.135.005 2.034-.03l.004-.663c-.65.003-1.033-.016-1.334-.007-1.622.047-3.124-.02-4.74.003l-.488.005-.25.002a1.127 1.127 0 0 0-1.106 1.118h.66-.66a1.128 1.128 0 0 0 1.13 1.13h.178l1.433.015c.956.01 1.91.016 2.863.007l1.787-.02.446-.004c.06 0 .177 0 .28-.02a1.13 1.13 0 0 0 .92-1.107h-.658.66c.008-.62-.538-1.132-1.116-1.123l-.006.664zM12.796 17.8c.01.337.027.716.084 1.08.124.776.066 4.38.034 5.506-.068 2.403-.023 4.885-.04 7.3a110.55 110.55 0 0 1-.102 4.074c-.02.444 0 .933-.004 1.38a59.28 59.28 0 0 0 .028 2.38l.666.004c-.003-.762.016-1.21.007-1.562-.048-1.898.02-3.656-.003-5.544-.037-2.987.05-6.01.024-9.003-.015-1.873-.04-3.787-.028-5.612l-.666-.004zM17.934 39.524a8.572 8.572 0 0 0-.084-1.08c-.123-.777-.066-4.38-.034-5.507.07-2.404.024-4.886.04-7.3.01-1.363.044-2.716.103-4.074.018-.444 0-.933.003-1.38.003-.52.005-1.328-.03-2.38l-.664-.004c.002.76-.018 1.208-.01 1.56.05 1.898-.02 3.657.004 5.545.037 2.987-.05 6.01-.024 9.002.015 1.874.042 3.788.03 5.612l.664.004z" fill="#4983BB"/><path d="M17.92 16.382a.8.8 0 0 1 .488.15c.066.045.177.164.194.392h.39-.39a.673.673 0 0 1-.63.698c-.138.006-.32 0-.478 0a63.963 63.963 0 0 1-1.59-.038 59.77 59.77 0 0 0-2.23-.04H12.835a.627.627 0 0 1-.648-.62h-.503.502a.616.616 0 0 1 .62-.612l.18.003.738.02c.49.018.98.04 1.473.07.32.02.675.002.998.005.377.004.96.005 1.723-.028l.003-.664c-.55.002-.875-.017-1.13-.008-1.38.048-2.634-.022-4.026.005-.628.016-1.17.58-1.158 1.21-.012.598.482 1.154 1.088 1.205l.112.007h.082l.162.003.323.004.648.008c.864.01 1.728.018 2.588.008l1.365-.02a1.217 1.217 0 0 0 1.155-1.216c.01-.666-.58-1.216-1.203-1.206l-.005.664zM12.426 41.11a1.77 1.77 0 0 0-.084-.48.954.954 0 0 1-.038-.185c-.004-.04-.01-.082-.013-.128-.002-.04-.005-.074 0-.115a.57.57 0 0 1 .58-.508l.357.01.548.025c1.073.068 2.18.022 3.26.04.303.003.606.014.91.03l.224.015a.432.432 0 0 1 .327.21.9.9 0 0 1 .072.15c.008.025.016.052.02.08a.75.75 0 0 1 .004.11c-.003.233-.005.593.03 1.062h.664c-.003-.338.017-.537.008-.694-.005-.106-.01-.21-.013-.315-.002-.086 0-.247-.04-.387a1.137 1.137 0 0 0-.9-.836c-.066-.014-.155-.016-.205-.017l-.154-.003a15.178 15.178 0 0 0-.623.004c-1.333.037-2.682-.05-4.018-.024l-.315.005-.164.004a1.138 1.138 0 0 0-1.1 1.173v.155c0 .207 0 .413-.002.617h.666z" fill="#4983BB"/><path d="M18.872 41.68c.17-.01.363.073.5.246.022.035.06.083.072.213h.44-.44c.028.152-.057.44-.34.564a.58.58 0 0 1-.224.05h-.962a89.934 89.934 0 0 1-2.19-.04 80.19 80.19 0 0 0-2.44-.04h-1.224a.54.54 0 0 1-.53-.535h-.502.503a.537.537 0 0 1 .383-.515.78.78 0 0 1 .257-.022 81.5 81.5 0 0 1 3.48.102c.38.02.798.002 1.18.005.444.003 1.134.005 2.034-.03l.002-.663c-.65.003-1.033-.016-1.334-.007-1.622.047-3.124-.02-4.738.003l-.49.005-.25.002a1.128 1.128 0 0 0-1.106 1.118h.66-.66a1.128 1.128 0 0 0 1.13 1.13h.18l1.43.015c.957.01 1.912.016 2.864.007l1.788-.02.446-.004c.06 0 .177 0 .28-.02a1.13 1.13 0 0 0 .92-1.107h-.658.66c.01-.62-.537-1.132-1.116-1.123l-.006.664zM29.03 17.8c.01.337.026.716.084 1.08.124.776.066 4.38.034 5.506-.07 2.403-.023 4.885-.04 7.3-.01 1.363-.043 2.715-.102 4.074-.02.444 0 .933-.004 1.38-.004.52-.005 1.327.028 2.38l.665.004c-.002-.762.017-1.21.008-1.562-.047-1.898.02-3.656-.003-5.544-.036-2.987.05-6.01.025-9.003-.016-1.873-.042-3.787-.03-5.612l-.665-.004zM34.168 39.524a8.642 8.642 0 0 0-.084-1.08c-.123-.777-.066-4.38-.034-5.507.07-2.404.023-4.886.04-7.3.01-1.363.043-2.716.102-4.074.02-.444.002-.933.004-1.38.004-.52.006-1.328-.028-2.38l-.665-.004c.002.76-.017 1.208-.008 1.56.048 1.898-.02 3.657.003 5.545.037 2.987-.05 6.01-.024 9.002.015 1.874.04 3.788.03 5.612l.664.004z" fill="#4983BB"/><path d="M34.154 16.382c.154-.01.325.04.488.15.066.045.176.164.193.392h.39-.39a.66.66 0 0 1-.274.57.675.675 0 0 1-.355.128c-.138.006-.32 0-.477 0a63.963 63.963 0 0 1-1.59-.038 59.756 59.756 0 0 0-2.23-.04H29.07a.627.627 0 0 1-.648-.62h-.503.502a.616.616 0 0 1 .618-.612l.18.003.74.02c.49.018.98.04 1.472.07.32.02.675.002.998.005.377.004.96.005 1.723-.028l.004-.664c-.55.002-.875-.017-1.13-.008-1.38.048-2.634-.022-4.026.005-.628.016-1.17.58-1.158 1.21-.013.598.482 1.154 1.088 1.205l.112.007h.082l.162.003.323.004.648.008c.863.01 1.726.018 2.586.008l1.367-.02a1.217 1.217 0 0 0 1.154-1.216c.01-.666-.578-1.216-1.202-1.206l-.004.664zM28.66 41.11a1.77 1.77 0 0 0-.084-.48.95.95 0 0 1-.038-.185 68.61 68.61 0 0 0-.014-.128c-.002-.04-.005-.074 0-.115a.57.57 0 0 1 .58-.508l.357.01.55.025c1.072.068 2.18.022 3.258.04.304.003.607.014.91.03l.225.015a.433.433 0 0 1 .327.21.93.93 0 0 1 .073.15.507.507 0 0 1 .025.19c-.004.233-.005.593.03 1.062h.664c-.003-.338.016-.537.007-.694l-.014-.315c0-.086 0-.247-.04-.387a1.137 1.137 0 0 0-.9-.836c-.065-.014-.154-.016-.204-.017l-.154-.003a15.175 15.175 0 0 0-.623.004c-1.334.037-2.683-.05-4.02-.024l-.314.005-.163.004a1.138 1.138 0 0 0-1.1 1.173v.155c0 .207 0 .413-.002.617h.665z" fill="#4983BB"/><path d="M35.106 41.68c.17-.01.363.073.5.246.022.035.06.083.072.213h.44-.44c.028.152-.057.44-.34.564a.58.58 0 0 1-.225.05h-.962a89.934 89.934 0 0 1-2.187-.04 80.21 80.21 0 0 0-2.44-.04h-1.225a.54.54 0 0 1-.53-.535h-.502.503a.537.537 0 0 1 .382-.515.78.78 0 0 1 .256-.022 81.5 81.5 0 0 1 3.482.102c.38.02.797.002 1.178.005.445.003 1.135.005 2.035-.03l.003-.663c-.65.003-1.033-.016-1.334-.007-1.622.047-3.124-.02-4.738.003l-.49.005-.25.002a1.127 1.127 0 0 0-1.106 1.118h.66-.66a1.128 1.128 0 0 0 1.13 1.13h.18l1.43.015c.957.01 1.912.016 2.864.007l1.788-.02.445-.004c.06 0 .178 0 .28-.02a1.13 1.13 0 0 0 .92-1.107h-.657.66c.01-.62-.538-1.132-1.116-1.123l-.006.664zM38.473 17.8c.01.337.026.716.084 1.08.123.776.066 4.38.033 5.506-.068 2.403-.023 4.885-.04 7.3-.01 1.363-.043 2.715-.102 4.074-.02.444 0 .933-.004 1.38a59.28 59.28 0 0 0 .03 2.38l.664.004c-.003-.762.016-1.21.008-1.562-.048-1.898.02-3.656-.003-5.544-.037-2.987.05-6.01.024-9.003-.016-1.873-.042-3.787-.03-5.612l-.664-.004zM43.61 39.524a8.572 8.572 0 0 0-.083-1.08c-.124-.777-.066-4.38-.034-5.507.068-2.404.023-4.886.04-7.3.01-1.363.042-2.716.102-4.074.02-.444 0-.933.004-1.38.003-.52.004-1.328-.03-2.38l-.665-.004c.003.76-.016 1.208-.007 1.56.047 1.898-.02 3.657.002 5.545.037 2.987-.05 6.01-.024 9.002.016 1.874.042 3.788.03 5.612l.664.004z" fill="#4983BB"/><path d="M43.596 16.382a.8.8 0 0 1 .49.15c.064.045.175.164.192.392h.39-.39a.674.674 0 0 1-.63.698c-.138.006-.32 0-.478 0a63.963 63.963 0 0 1-1.588-.038 59.77 59.77 0 0 0-2.23-.04H38.51a.627.627 0 0 1-.648-.62h-.503.502a.616.616 0 0 1 .618-.612l.182.003.737.02c.49.018.98.04 1.472.07.32.02.675.002.998.005.377.004.96.005 1.723-.028l.003-.664c-.55.002-.875-.017-1.13-.008-1.38.048-2.633-.022-4.026.005-.627.016-1.17.58-1.158 1.21-.012.598.482 1.154 1.088 1.205l.112.007h.082l.162.003.324.004.647.008c.863.01 1.727.018 2.587.008l1.366-.02a1.217 1.217 0 0 0 1.154-1.216c.01-.666-.58-1.216-1.203-1.206l-.004.664zM38.102 41.11a1.77 1.77 0 0 0-.084-.48.98.98 0 0 1-.038-.185c-.004-.04-.01-.082-.013-.128-.003-.04-.006-.074 0-.115a.57.57 0 0 1 .58-.508l.357.01.547.025c1.074.068 2.182.022 3.26.04.305.003.607.014.91.03l.225.015a.434.434 0 0 1 .327.21.93.93 0 0 1 .073.15c.008.025.016.052.02.08a.75.75 0 0 1 .004.11c-.004.233-.005.593.03 1.062h.664c-.003-.338.016-.537.008-.694-.005-.106-.01-.21-.013-.315-.003-.086-.002-.247-.04-.387a1.137 1.137 0 0 0-.9-.836c-.067-.014-.155-.016-.206-.017l-.154-.003a15.178 15.178 0 0 0-.623.004c-1.334.037-2.683-.05-4.02-.024l-.314.005-.164.004a1.138 1.138 0 0 0-1.1 1.173v.155c0 .207-.002.413-.003.617h.665z" fill="#4983BB"/><path d="M44.55 41.68c.167-.01.36.073.497.246.024.035.06.083.073.213h.44-.44c.028.152-.057.44-.34.564a.58.58 0 0 1-.224.05h-.962a89.934 89.934 0 0 1-2.19-.04 80.19 80.19 0 0 0-2.44-.04H37.74a.54.54 0 0 1-.53-.535h-.5.5a.537.537 0 0 1 .384-.515.78.78 0 0 1 .257-.022 81.5 81.5 0 0 1 3.482.102c.38.02.798.002 1.178.005.446.003 1.136.005 2.035-.03l.004-.663c-.652.003-1.035-.016-1.336-.007-1.62.047-3.124-.02-4.738.003l-.49.005-.25.002a1.128 1.128 0 0 0-1.106 1.118h.66-.66a1.128 1.128 0 0 0 1.13 1.13h.18l1.432.015c.955.01 1.91.016 2.862.007l1.788-.02.446-.004c.06 0 .178 0 .28-.02a1.13 1.13 0 0 0 .92-1.107h-.658.66c.01-.62-.537-1.132-1.116-1.123l-.005.664z" fill="#4983BB"/><path d="M45.005 45.538a.726.726 0 0 0 .72-.71v-.075l-.002-.138-.003-.278-.006-.563-.004-.285-.002-.144a.7.7 0 0 0-.71-.716h-.072l-.58.014-1.152.036c-3.264.123-18.414.066-23.145.034-5.052-.034-10.186-.04-15.325-.04h-2.41l-.243.002a.643.643 0 0 0-.638.63V44.812a.646.646 0 0 0 .52.633c.156.023.202.01.29.013H4.41c2.563 0 5.118 0 7.654.002 5.73.01 11.414.044 17.123.102 1.866.02 3.922 0 5.796.004 2.19.004 5.583.006 10.006-.028l.02-.664-6.565-.008c-7.975.048-15.365-.02-23.302.003l-9.44.007-2.364-.002-1.184-.002h-.072l-.01-.002a.057.057 0 0 1-.045-.042c-.003.024 0-.127 0-.213V43.314a.06.06 0 0 1 .007-.02.053.053 0 0 1 .03-.025c.01-.002.003-.003.03-.003h.74l2.37.006c6.316.006 12.637.01 18.93.017 3.935-.01 7.914-.017 11.868-.026l5.903-.006h3.104a.06.06 0 0 1 .028.006.06.06 0 0 1 .033.044v1.383c0 .166 0 .135-.01.158a.058.058 0 0 1-.047.026s.007.166.006.332c0 .166-.01.332-.01.332" fill="#4983BB"/><path d="M46.113 49.235a.726.726 0 0 0 .718-.665c.004-.053.003-.08.003-.1v-.075l-.002-.148-.002-.3-.014-1.225-.01-.622-.007-.312-.004-.156c0-.02 0-.06-.005-.11a.673.673 0 0 0-.63-.588c-.09 0-.115.003-.175.004l-.62.02c-3.525.122-19.882.065-24.99.033-5.454-.033-10.997-.04-16.546-.038H.963a.648.648 0 0 0-.62.497c-.032.163-.013.226-.018.316V48.49a.64.64 0 0 0 .657.664h1.3c2.767 0 5.526.002 8.265.003 6.186.01 12.323.043 18.487.102 2.015.02 4.235 0 6.258.004 2.363.003 6.028.005 10.803-.03l.02-.663-7.087-.007c-8.61.048-16.59-.02-25.16.003l-10.192.008-2.554-.002H.968a.06.06 0 0 1-.023-.006.06.06 0 0 1-.03-.036l-.004-.01V48l.004-1.275V45.61c.002-.03.003-.022.006-.033a.052.052 0 0 1 .03-.03c.012-.002.004-.003.032-.004h.16l.64.002 2.557.006c6.82.006 13.645.01 20.438.017 4.25-.01 8.547-.017 12.815-.025l6.374-.008H46.118c.01 0 .02.005.03.01.018.012.028.03.03.053v.392c-.002.52-.002 1.042-.002 1.56v.78l-.002.183c0 .01-.002.02-.008.028a.057.057 0 0 1-.05.03s.01.166.008.333c0 .166-.01.332-.01.332" fill="#4983BB"/></g></svg>