<svg width="62" height="49" viewBox="0 0 62 49" xmlns="http://www.w3.org/2000/svg" xmlns:xlink="http://www.w3.org/1999/xlink"><title>D7AF1B86-0B1F-46C6-9721-894C796CBDB2</title><defs><path id="a" d="M34.778 19.228V.304H.212v18.924z"/><path id="c" d="M.032 13.883h10.36V.055H.033v13.828z"/></defs><g fill="none" fill-rule="evenodd"><path d="M60.38 33.54l-1.973-.855-3.945-1.708-.262-.115-.727-.31-.493-.214c-.163-.07-.337-.156-.462-.188a1.572 1.572 0 0 0-.137-.033c0 .05-.003.094-.003.13 0 .103.012.21-.004.308a9.683 9.683 0 0 0-.067.91c-.004.24 0 .487 0 .733 0 .303 0 .602-.024.897-.025.254-.062 1.056.02 1.228a.78.78 0 0 1 .054.2c.706.317 1.674.73 1.965.792.055.012.113.025.167.04 1.478-.282 5.22-1.044 6.03-1.347.146-.053.29-.102.44-.147a1.936 1.936 0 0 0-.577-.32M52.002 31.306c-.016-.39.027-.756-.004-1.15a1.495 1.495 0 0 0-.26.035l-.994.213c-1.626.35-3.253.698-4.876 1.05.114.05.216.092.3.126.195.084.42.165.612.262.59.29 1.186.563 1.79.825.63.27 1.27.536 1.907.806.452.193.904.386 1.34.59l.19.09c0-.318-.013-.642-.02-.958-.01-.258 0-.52.003-.783.012-.37.028-.74.012-1.106" fill="#93CFEC"/><path d="M47.36 25c.127-.173.28-.312.457-.39h.02c.385.066.727.217.927.498.208.274.314.648.342 1.053.035.506-.016 1.05-.275 1.366a.837.837 0 0 1-.518.29 1.598 1.598 0 0 1-.507-.005.993.993 0 0 1-.25-.16c-.47-.405-.634-1.13-.536-1.767.046-.32.16-.628.34-.883" fill="#D0E7F7"/><path d="M46.634 25.89c-.063.606.06 1.235.413 1.752.027.038.055.073.09.112a4.12 4.12 0 0 1-.483-.05c-.97-.078-.904-1.447-.71-2.345.105-.368.32-.626.647-.684.04-.01.087-.01.13-.02l.067-.003h.063a.258.258 0 0 0 .08-.015 1.78 1.78 0 0 1 .282-.04c-.346.34-.527.826-.578 1.293M52.104 34.576a99.863 99.863 0 0 1-1.984-.852 77.305 77.305 0 0 0-2.024-.857c-.85-.343-1.615-.713-2.472-1.045-.106-.042-.228-.096-.397-.17.016.21.016.375.012.487 0 .1.01.214 0 .32a9.62 9.62 0 0 0-.068.947c-.012.563.02 1.142-.023 1.7-.02.263-.06 1.104.018 1.285a.874.874 0 0 1 .055.25h-.015c.18.06.322.1.404.117.044.006.087.014.134.022 0 .004 0 .004.004 0 .106.027.212.058.31.092.106-.02.216-.042.323-.065 2.44-.506 4.927-1.085 7.37-1.56-.544-.227-1.1-.45-1.65-.674M36.878 33.343c1.965-.42 3.946-.842 5.97-1.272.67-.144 1.346-.29 2.02-.438 0 .122-.007.204-.003.27.032.446-.012.865.004 1.31.023.706-.033 1.422-.017 2.13.008.392.024.795.02 1.178a48.33 48.33 0 0 1-1.68-.67c-1.075-.453-2.21-.856-3.3-1.283a43.323 43.323 0 0 1-1.825-.767c-.196-.09-.42-.16-.623-.242-.144-.055-.33-.13-.567-.215" fill="#93CFEC"/><path d="M61.252 40.48l-.02-1.998-.023-2-.013-1.004-.004-.493a1.802 1.802 0 0 0-.06-.41 1.27 1.27 0 0 0-.12-.304c-1.836.39-3.738.826-5.604 1.247-.26.058-.52.115-.78.17-2.958.647-5.956 1.218-8.9 1.89-.55.126-1.088.242-1.623.354-1.442.306-2.852.58-4.334.934-.342.085-.782.162-1.485.313v5.082c0 .856-.004 1.708-.008 2.56l-.004.636-.004.2c6.236-1.44 12.76-2.953 19.145-4.426l1.976-.46.99-.227a1.085 1.085 0 0 0 .884-1.064l-.015-.998z" fill="#BAE1F7"/><path d="M43.282 17.58c.126-.173.28-.312.456-.39h.02c.385.066.727.217.927.498.208.274.314.648.342 1.053.035.506-.016 1.05-.275 1.366a.837.837 0 0 1-.52.29 1.598 1.598 0 0 1-.506-.004.993.993 0 0 1-.25-.162c-.47-.405-.634-1.13-.536-1.767.048-.32.162-.628.342-.883" fill="#D0E7F7"/><path d="M43.133 17.18c-.346.34-.527.824-.578 1.29-.063.607.06 1.235.413 1.752.027.04.055.073.09.112-.224-.008-.365-.03-.483-.05-.97-.077-.904-1.443-.71-2.345.105-.367.32-.622.647-.684.04-.01.087-.01.13-.02l.067-.003h.06c.03 0 .056-.008.08-.01a1.79 1.79 0 0 1 .283-.044" fill="#93CFEC"/><path d="M40.728 29.026a.842.842 0 0 1-.52.293 1.598 1.598 0 0 1-.506-.004.993.993 0 0 1-.25-.162c-.47-.405-.63-1.134-.535-1.767.047-.32.16-.628.34-.883.127-.173.288-.316.465-.393h.012c.385.07.727.22.927.502.21.274.316.648.343 1.053.04.505-.012 1.05-.275 1.36" fill="#D0E7F7"/><path d="M38.55 29.208c-.97-.08-.903-1.447-.706-2.345.106-.37.318-.625.648-.683.036-.015.083-.01.126-.02l.067-.003.063-.004a.177.177 0 0 0 .078-.01c.098-.024.185-.036.283-.04-.347.336-.524.825-.575 1.292-.066.602.055 1.234.41 1.747.027.04.058.077.093.116a4.11 4.11 0 0 1-.487-.05M36.437 34.706c.01-.37.03-.738.07-1.104.003-.042.003-.088.003-.134.17.07.29.125.4.162.878.322 1.668.688 2.535 1.022 1.375.525 2.737 1.138 4.116 1.676.634.246 1.283.496 1.912.746a118.8 118.8 0 0 1-3.42.67c-.49.093-1.027.234-1.518.343-.513.116-1.283.287-2.266.538v-.034c-.484-.186-.964-.374-1.448-.566l-.43-.17c-.013-.38.007-.95.023-1.172.044-.65.016-1.322.024-1.976" fill="#93CFEC"/><path d="M37.042 21.996a.837.837 0 0 1-.52.29 1.598 1.598 0 0 1-.505-.005.993.993 0 0 1-.252-.16c-.468-.406-.63-1.134-.534-1.767.048-.32.162-.628.342-.883.126-.174.28-.312.456-.39h.02c.385.066.727.216.927.498.21.274.315.648.342 1.053.04.506-.012 1.05-.275 1.366" fill="#D0E7F7"/><path d="M36.397 33.468c.004.4-.02.786-.008 1.195.023.803-.034 1.618-.018 2.425.008.252.013.51.017.765l-.503-.194c-.85-.344-1.703-.684-2.554-1.027-.617-.248-1.308-.48-1.93-.716-.55-.207-1.336-.5-2.33-.852 1.36-.298 2.71-.592 4.058-.886a735.05 735.05 0 0 1 3.267-.712" fill="#93CFEC"/><path d="M41.1 11.09a1.172 1.172 0 0 0 .233.56c-.25.053-.51.11-.762.173-.714.177-3.182.617-5.23.964l-.192-1.07c.09-.01.283-.053.405-.13a.977.977 0 0 0 .49-.732c.01-.04.01-.078.01-.112v-.073l.003-.147.004-1.172.012-2.34v-.293c0-.035 0-.135-.016-.205a.905.905 0 0 0-.063-.223 1.01 1.01 0 0 0-.696-.584.964.964 0 0 0-.444-.01l-.294.045-.587.097-.18-1.056c2.35-.39 4.738-.79 7.037-1.152.13.212.216.447.26.69.02.112.035.227.035.343.004.117 0 .263 0 .39l-.004.8-.02 3.196-.01 1.597c.004.146-.012.23.01.447" fill="#BAE1F7"/><path d="M35.423 19.07c-.346.338-.522.824-.574 1.29-.067.606.054 1.235.408 1.748.028.038.06.077.094.115a4.21 4.21 0 0 1-.487-.05c-.97-.077-.904-1.446-.707-2.344.106-.368.318-.626.648-.684.036-.012.083-.012.126-.02l.067-.003.062-.004a.177.177 0 0 0 .078-.013 1.78 1.78 0 0 1 .283-.038" fill="#93CFEC"/><path d="M31.093 28.32c.385.066.73.217.927.498.208.274.318.648.342 1.053.04.506-.012 1.05-.27 1.366a.858.858 0 0 1-.524.29 1.574 1.574 0 0 1-.503-.005.948.948 0 0 1-.255-.16c-.464-.405-.63-1.134-.535-1.767.048-.32.162-.628.342-.883.126-.173.283-.312.46-.39h.016z" fill="#D0E7F7"/><path d="M30.79 31.815l-.004.003v-.003c.004-.004.004-.004.004 0" fill="#FEFEFE"/><path d="M30.472 28.31c-.346.338-.527.824-.578 1.29-.067.606.055 1.235.41 1.748.026.038.058.077.09.116a4.132 4.132 0 0 1-.48-.05c-.975-.082-.904-1.447-.71-2.345.105-.368.317-.626.647-.684.04-.01.084-.01.127-.02l.067-.003.062-.004c.028.003.055-.005.083-.012.097-.024.188-.03.282-.04" fill="#93CFEC"/><path d="M37.915 20.673a2.064 2.064 0 0 0-.028-.258v-.012a3.738 3.738 0 0 0-.063-.424c-.075-.383-.263-.784-.605-1.062-.33-.285-.76-.42-1.164-.462-.205-.02-.41-.02-.61 0-.1.007-.2.02-.302.038-.043.004-.118.023-.133.027l-.117.005c-.216.02-.444.077-.645.197-.2.115-.36.28-.475.463-.264.416-.342.867-.385 1.295-.032.428-.055.864.078 1.346.087.313.346.652.66.833.177.11.425.204.708.242.28.046.59.03.896.012.228.046.455.05.68-.016.133-.042.396-.08.683-.25.29-.166.54-.494.656-.85.058-.18.094-.36.117-.535.036-.173.055-.37.048-.586H37.9c.003-.004 0-.004 0-.004h.015zm10.283 7.756c.134-.044.397-.082.684-.252.287-.166.538-.494.656-.85.06-.18.094-.36.118-.535.035-.17.055-.366.047-.586h-.016c.004-.004 0-.004 0-.004h.016a2.064 2.064 0 0 0-.027-.258v-.012a3.738 3.738 0 0 0-.063-.424c-.08-.383-.263-.784-.605-1.06-.33-.287-.76-.422-1.164-.464-.204-.02-.408-.02-.61 0-.1.008-.2.02-.3.038-.044.004-.12.024-.135.027l-.12.005c-.215.02-.443.077-.643.197-.2.116-.362.28-.476.463-.262.416-.34.867-.384 1.296-.03.43-.055.864.08 1.35a1.5 1.5 0 0 0 .66.83c.176.11.423.204.706.242.28.047.59.03.896.012a1.4 1.4 0 0 0 .68-.015zm-2.574-9.647a2.064 2.064 0 0 0-.027-.258v-.01a3.738 3.738 0 0 0-.063-.426c-.08-.382-.263-.784-.605-1.06-.33-.287-.76-.422-1.164-.46a3.216 3.216 0 0 0-.61-.004 2.704 2.704 0 0 0-.436.066l-.118.003c-.216.02-.444.078-.644.197-.2.116-.362.285-.475.467-.264.415-.342.863-.386 1.29-.03.43-.055.868.08 1.35.085.313.345.648.66.83.176.11.424.204.707.246.28.043.59.027.895.008.227.046.45.05.68-.01.133-.048.396-.086.683-.256.287-.166.538-.494.656-.848.058-.182.094-.363.117-.536.035-.17.055-.367.047-.587h-.015c.002-.004 0-.004 0-.004h.014zM27.482 25.12c.23.046.455.05.683-.012.13-.046.393-.085.68-.254.29-.166.542-.494.66-.85a3.1 3.1 0 0 0 .122-.577c.032-.162.047-.344.04-.544h-.016c.005-.004 0-.004 0-.004h.016a3.692 3.692 0 0 0-.02-.198c-.015-.2-.04-.37-.066-.497-.08-.382-.267-.783-.605-1.06-.33-.286-.76-.42-1.167-.46a2.925 2.925 0 0 0-.61-.003c-.102.007-.2.02-.302.038-.04.004-.114.023-.134.027l-.117.004c-.217.02-.44.078-.64.198a1.41 1.41 0 0 0-.48.466c-.264.413-.342.864-.382 1.292-.03.428-.058.864.08 1.35.085.312.345.648.655.83.177.11.43.204.708.246.28.042.59.027.896.008zm3.976 7.018c.13-.042.393-.08.68-.25.29-.166.542-.494.66-.85a2.89 2.89 0 0 0 .114-.527 2.397 2.397 0 0 0 .047-.594h-.015c.004-.003 0-.003 0-.003h.015a3.692 3.692 0 0 0-.02-.196c-.016-.2-.04-.37-.067-.498-.08-.383-.267-.784-.605-1.06-.33-.287-.76-.422-1.167-.464-.204-.02-.408-.02-.608-.004-.103.012-.2.023-.303.042-.04.004-.115.023-.135.027l-.117.005c-.217.02-.44.077-.64.193a1.41 1.41 0 0 0-.48.467c-.264.416-.342.867-.382 1.295-.03.425-.06.864.08 1.346.085.313.345.652.655.833.178.11.43.204.71.242.278.047.588.03.895.012.23.046.455.05.683-.016zm10.142-4.43a2.05 2.05 0 0 0-.027-.263v-.008a3.823 3.823 0 0 0-.063-.428c-.075-.38-.263-.784-.605-1.06-.33-.283-.76-.422-1.163-.46-.205-.02-.41-.02-.61-.004-.102.012-.2.023-.302.042-.043.004-.118.024-.134.024l-.117.007a1.518 1.518 0 0 0-.646.192c-.2.116-.36.286-.475.467-.265.415-.343.866-.386 1.295-.032.424-.055.863.078 1.345.087.313.346.652.66.833.177.112.425.205.708.243.283.043.593.03.903.012.004.004.004 0 .004 0 .224.046.448.046.668-.015.134-.047.397-.08.684-.255.29-.162.537-.49.655-.845a2.89 2.89 0 0 0 .114-.528c.003-.004.003-.008.003-.01a2.45 2.45 0 0 0 .047-.584h-.015v-.003h.015zm-16.162 19.85c.146-1.725.173-2.766.18-3.607a63.446 63.446 0 0 0-.34-7.026c-.25-2.302-.66-4.593-1.34-6.903-.55-1.823-1.262-3.616-2.21-5.298-.942-1.68-2.14-3.254-3.626-4.54a13.97 13.97 0 0 0-5.14-2.83l-.617-.184c.617-.104 1.045-.178 1.403-.243 2.668-.502 5.15-.895 7.812-1.38 4.204-.765 8.472-1.463 12.688-2.222 2.495-.448 5.042-.914 7.482-1.338.004.003.008.003.012.007.082.047.185.08.263.104l.19.058c.663.19 1.315.46 1.96.756.632.324 1.257.687 1.843 1.107a14.427 14.427 0 0 1 3.02 2.98c.98 1.28 2.033 3.07 2.933 5.377.842 2.163 1.553 4.774 2.013 7.767l-.51-.22c-.26-.1-.488-.23-.81-.308-.303-.07-.62-.08-.928-.03-2.16.462-4.315.92-6.452 1.376-.067.016-.13.027-.197.043-2.986.633-5.953 1.25-8.928 1.863-1.764.363-3.532.722-5.305 1.08-.785.166-1.61.34-2.44.513l-.255.054-.05.012a.9.9 0 0 0-.233.077.908.908 0 0 0-.22.145.87.87 0 0 0-.275.44.812.812 0 0 0-.032.25v4.887c.004.706.004 1.473.008 2.294.004.413.008.84.008 1.277.004.112.004.224.004.335 0 .04 0 .147.02.236.02.092.05.18.102.262a.874.874 0 0 0 .475.397l-.012.03c.452.15.967.32 1.474.437.307.073.912.266 1.654.52-1.76.44-3.64.918-5.453 1.404-.047.012-.094.027-.17.043z" fill="#BAE1F7"/><path d="M37.647 38.853l-.22-.078c-.432-.15-.856-.304-1.28-.458h-.01v-.004c-2.046-.737-4.007-1.49-6.12-2.21-.457-.15-1.02-.374-1.962-.714-.004.003-.004.007-.004.01V37.22c.01.827.013 1.663.017 2.504 0 .63 0 1.338-.004 2.23 0 .447 0 .936-.004 1.488v.852c-.005.116.125.224.25.185 0 0 .01.034.02.088 1.2.436 2.43.875 3.667 1.31.098-.022.2-.05.298-.072l.04.193.165.056c1.065.375 2.137.75 3.194 1.123l1.446.515.362.132.09.03.044.016v-.181l.02-3.028.01-2.225c0-.27.005-.537.005-.803V38.86l-.023-.007z" fill="#A8DCF6"/><path d="M27.8 21.286c.385.066.73.216.927.498.208.274.318.648.342 1.053.038.505-.013 1.05-.272 1.365a.858.858 0 0 1-.523.29 1.574 1.574 0 0 1-.503-.005.948.948 0 0 1-.255-.162c-.464-.405-.63-1.13-.535-1.766.048-.32.162-.63.342-.884.126-.174.283-.313.46-.39h.016z" fill="#D0E7F7"/><path d="M27.497 24.78l-.004.004v-.004c.004-.004.004-.004.004 0" fill="#FEFEFE"/><path d="M27.18 21.275c-.347.34-.528.825-.58 1.292-.065.605.056 1.234.41 1.75.027.04.055.074.09.112-.224-.008-.36-.03-.48-.05-.974-.078-.903-1.443-.71-2.346.106-.366.318-.624.648-.682.04-.012.083-.012.126-.02l.067-.003h.064c.027 0 .055-.01.082-.013.098-.023.19-.035.283-.042" fill="#93CFEC"/><path d="M18.86 13.697c-.118.023-.24.042-.357.062l-.08.01c-.007.004-.01.004-.02.004-.014-.004-.03-.004-.046-.012a.115.115 0 0 1-.07-.08c-.012.015-.008-.21-.008-.37 0-.344 0-.722-.005-1.135-.008-.83-.016-1.793-.028-2.888l-.35-.005v-.007c.173 0 .35.004.35.004a.177.177 0 0 1 .08-.15.503.503 0 0 1 .16-.042l.283-.054c.38-.073.762-.158 1.14-.25 1.6-.39 9.132-1.566 11.485-1.917l1.89-.29.95-.15.477-.073.24-.038c.047-.008.07-.008.09-.012a.4.4 0 0 1 .31.143.4.4 0 0 1 .08.285l-.005.953v3.077a.4.4 0 0 1-.03.135.36.36 0 0 1-.202.185c-.063.027-.27.054-.416.08l-.48.078-.956.162c-1.273.212-2.542.42-3.8.63-2.844.462-5.674.897-8.515 1.31-.468.07-.952.147-1.44.23-.243.044-.486.086-.73.125" fill="#E4EBF6"/><path d="M23.387 7.6c-.982.166-1.96.328-2.932.49-.483.08-.97.158-1.45.24l-.72.114c-.4.047-.74.417-.737.822l.35.01v.01l-.35-.004c-.004 1.582-.008 2.512-.012 3.244l.012.737v.367a.854.854 0 0 0 1.017.84l.18-.03c.24-.042.484-.08.724-.123.962-.158 1.913-.312 2.868-.47 1.906-.31 3.807-.614 5.776-.953 1.56-.26 3.12-.524 4.684-.79l2.35-.382.193 1.07c-1.05.18-1.988.334-2.526.423-3.39.56-6.885 1.204-10.292 1.794-1.92.332-3.83.648-5.75.95-.627.095-1.315.23-1.944.338-.672.116-1.68.293-2.982.54-.032-.085-.032-.18-.028-.39v-.705c0-.945-.004-1.89-.004-2.835L11.8 9.347a2.75 2.75 0 0 0-.166-1c.986-.16 1.58-.246 2.043-.327 2.59-.447 5.002-.794 7.58-1.226 4.08-.683 8.22-1.296 12.307-1.975.075-.012.154-.028.228-.04l.18 1.057c-1.567.26-3.135.513-4.695.772-1.953.326-3.93.662-5.89.99" fill="#BAE1F7"/><path d="M18.797 34.163c-.157-.455-.48-.852-.908-1.01-.13-.066-.44-.1-.743-.008a1.04 1.04 0 0 0-.334.166c-.377.27-.515.737-.472.884.005.027.013.054.017.08l.39-.153.38-.15.193-.077c.03-.004.11-.062.173-.042.01 0 .023.005.035.005.055.003.07.007.118.015a.97.97 0 0 1 .727.68.933.933 0 0 1-.75 1.167.746.746 0 0 1-.126.016c-.012 0 .007-.004-.036.01l-.19.074-.49.186c.16.162.304.254.41.304.138.066.29.077.436.09.358.04.74-.182.983-.53.058-.084.113-.18.152-.28.185-.44.192-.97.035-1.424" fill="#D0E7F7"/><path d="M17.976 34.545a.58.58 0 0 0-.193-.22.593.593 0 0 0-.208-.092c-.02 0-.043-.008-.063-.008-.01 0-.015-.004-.023 0l-.14.054-.31.122-1.237.494-.153.062c-.087.05-.185.038-.27.007a.49.49 0 0 1-.324-.343c-.008-.04-.01-.077-.015-.116v-.084l.005-.162v-.328c.007-.872.01-1.74.02-2.6.003-.404.01-1.03.015-1.754v-.282l-.737-1.376.737 1.376c.004-.28.008-.578.004-.864a.957.957 0 0 0-.65-.817c-.105-.035-.207-.073-.313-.108-.67-.232-1.323-.46-1.877-.648-.322-.11-.61-.205-.853-.283a.525.525 0 0 0-.468.03.505.505 0 0 0-.235.5c.027.184.17.334.33.38h.008l1.933.602c.14.042.275.088.405.126.15.054.287.135.397.228a1.262 1.262 0 0 1 .46.93l.003.254v.497c0 .336 0 .67-.004.988-.016.975-.028 1.943-.044 2.915l-.008.73-.004.362c.004.108.012.212.044.316.113.41.5.73.935.767l.07.004a.025.025 0 0 0 .024 0l.15-.058.306-.116.62-.236.618-.24.31-.118c.064-.02.084-.035.19-.066.055-.004.067 0 .09-.004a.587.587 0 0 0 .515-.575.473.473 0 0 0-.06-.25" fill="#D8E3F3"/><path d="M4.6 5.135l2.896-.458A8575.53 8575.53 0 0 1 24.778 1.93L28 1.42l1.61-.253a9.658 9.658 0 0 1 1.585-.154 8.942 8.942 0 0 1 1.572.127c.507.09 1.05.224 1.576.336l3.175.702 1.587.35c.275.062.503.112.72.21a2.108 2.108 0 0 1 .734.527 22.52 22.52 0 0 0-.858.177c-1.05.247-5.98 1.01-7.52 1.238-3.294.49-6.685 1.065-9.986 1.59-1.862.296-3.717.574-5.58.836-.61.09-1.273.208-1.886.305-.71.113-1.815.29-3.25.545l.008.06a2.516 2.516 0 0 0-.357-.543 2.94 2.94 0 0 0-1.744-.983L3.4 5.327c.15-.027.32-.05.477-.077l.723-.115zM10.404 28.267c-.42-.124-.928-.282-1.44-.448-1.028-.336-2.085-.7-2.588-.88a67.22 67.22 0 0 1-.81-.282l-.408-.138a1.71 1.71 0 0 1-.342-.147c-.425-.243-.71-.71-.704-1.18.004-.482.28-.94.712-1.172.216-.11.46-.177.703-.173.122 0 .24.023.358.05l.408.12a90.5 90.5 0 0 1 3.682 1.16c.4.135.853.243 1.258.363.137.04.212.062.318.116.103.054.22.135.33.24.178.153.355.41.378.624l-.42-.143-.24-.085c-.078-.023-.153-.058-.27-.085-.445-.092-.92.208-1.02.637-.12.424.147.902.57 1.033l.14-.39h.007l-.138.394c.28.09.53.17.755.244a1.543 1.543 0 0 1-.37.17 1.45 1.45 0 0 1-.868-.027" fill="#D0E7F7"/><path d="M19.17 36.153c-.066.116-.14.224-.23.324a1.833 1.833 0 0 1-.956.582c-.515.123-1.077-.024-1.497-.336a1.832 1.832 0 0 1-.405-.455l-.342.13-.397.154c-.05.035-.14.012-.173.016a.61.61 0 0 1-.118-.012 1.46 1.46 0 0 1-1.242-1.122 1.448 1.448 0 0 1-.03-.29v-1.244c0-.66.003-1.312.007-1.968 0-.652 0-1.307.004-1.967v-.497a.896.896 0 0 0-.08-.4.83.83 0 0 0-.257-.314c-.118-.092-.22-.127-.4-.18-.193-.063-.41-.132-.66-.21-.174.217-.402.34-.61.413-.255.088-.51.127-.766.127a1.89 1.89 0 0 1-.39-.03 2.05 2.05 0 0 1-.37-.094l-.635-.2c-.85-.262-1.706-.53-2.554-.79-.676-.217-1.352-.433-2.032-.653a2.105 2.105 0 0 1-1.065-.652 1.932 1.932 0 0 1-.487-1.172 1.935 1.935 0 0 1 .353-1.21c.244-.355.61-.61 1.014-.75.406-.134.862-.138 1.26-.022l1.024.282c.86.235 1.69.486 2.52.73.416.122.832.24 1.25.365l.635.174c.263.07.51.21.72.367.152.124.31.278.466.518.07.123.15.266.2.45.04.15.063.336.024.545.114.038.228.077.342.12l.605.207.366.128c.157.06.322.092.514.2.18.1.334.247.444.42.115.17.182.37.198.57.012.206.004.348.008.526 0 .335.004.675.004 1.006v.008l.248.463-.248-.462v4.022l-.004.405c0 .174 0 .166.035.208.02.02.048.027.04.027.004 0 0 0 .008-.003l.095-.035.106-.043c-.017-.47.14-.91.42-1.29.184-.25.45-.458.754-.585a1.63 1.63 0 0 1 .613-.14c.44-.037.892.136 1.21.402.322.27.542.625.668.995.25.74.18 1.555-.204 2.24m5.702 5.728a71.55 71.55 0 0 0-.173-3.448c-.228-3.39-.786-6.764-1.942-9.976-1.006-2.84-2.593-5.562-4.857-7.625-1.122-1.04-2.455-1.838-3.86-2.424l-.528-.224c-.177-.073-.365-.116-.546-.174l-.546-.165-.275-.085-.138-.043a1.056 1.056 0 0 1-.707-.567c-.122-.216-.11-.497-.106-.66l.01-1.137c.01-.708.017-1.81.03-3.092l.01-2.032c0-.347.01-.717-.003-1.06a2.22 2.22 0 0 0-.26-.957 2.338 2.338 0 0 0-1.52-1.166c-.675-.127-1.32-.246-1.905-.358-1.17-.216-2.11-.378-2.605-.44a54.564 54.564 0 0 1-2.46-.393l-.048-.012a1.4 1.4 0 0 0-.196.283 1.45 1.45 0 0 0-.173.582c-.012.2-.004.47-.004.702v1.438l-.005 2.873c0 1.917-.004 3.83-.004 5.74-.01 3.82-.022 7.623-.034 11.395-.008 1.967-.016 5.16-.03 8.924 4.215 1.8 9.143 3.906 13.445 5.75 2.178.917 4.198 1.774 5.892 2.49.85.352 1.615.672 2.283.95l1.124.462c.003-.047.007-.09.007-.132.16-2.36.14-4.207.125-5.418" fill="#A8DCF6"/><path fill="#FEFEFE" d="M2.29 5.463l-.005.008-.004-.007z"/><g><path d="M32.294 45.807a334.33 334.33 0 0 0-6.687 1.707l-.398.105-1.596-.652-2.282-.952-5.89-2.49-13.446-5.75.03-8.924c.01-3.77.023-7.574.035-11.393.003-1.91.004-3.824.006-5.74l.002-2.876v-1.44c.002-.23-.006-.5.005-.698a1.44 1.44 0 0 1 .172-.584 1.52 1.52 0 0 1 .943-.75c.19-.05.45-.08.688-.12l.723-.115 2.894-.462 5.783-.92 11.5-1.826L28 1.42l1.612-.252a8.924 8.924 0 0 1 3.153-.03c.51.092 1.05.226 1.577.338l3.175.703 1.587.35c.277.06.504.11.72.206.216.095.417.225.59.382a2.134 2.134 0 0 1 .71 1.544c.005.115 0 .26 0 .39l-.004.8-.02 3.192-.01 1.598c.004.145-.012.233.01.45a1.217 1.217 0 0 0 .643.903c.08.043.185.077.262.1l.188.06c.663.187 1.315.457 1.96.756.636.322 1.26.683 1.845 1.106a14.435 14.435 0 0 1 3.022 2.98c.978 1.28 2.032 3.068 2.93 5.377.896 2.306 1.646 5.12 2.1 8.368l.698-.06c-.323-2.388-.75-4.26-1.184-5.794a29.045 29.045 0 0 0-1.33-3.762c-1.21-2.76-2.882-5.347-5.227-7.24a14.083 14.083 0 0 0-1.86-1.263 13.786 13.786 0 0 0-2.05-.924c-.175-.068-.358-.113-.537-.17l-.268-.083-.126-.04a.528.528 0 0 1-.31-.25.498.498 0 0 1-.057-.232v-.135l.002-2.15.004-2.148V5.417c-.007-.36.026-.7-.032-1.127a2.83 2.83 0 0 0-1.343-1.983 2.91 2.91 0 0 0-.566-.262c-.097-.038-.2-.057-.3-.085l-.27-.06-1.077-.235c-1.436-.312-2.88-.626-4.33-.943-.36-.076-.728-.165-1.117-.224a9.472 9.472 0 0 0-2.328-.073c-.4.034-.763.107-1.137.164-4.714.75-9.442 1.506-14.178 2.262l-7.11 1.124-3.557.56-.89.14c-.145.025-.294.044-.476.083a2.137 2.137 0 0 0-1.65 1.886l-.027 28.3.005 3.2c7.954 3.382 15.992 6.8 23.732 10.093l7.28-1.758-.14-.675z" fill="#4983BB"/><path d="M2.213 5.8c.853.156 1.81.325 2.737.444.495.064 1.433.225 2.606.44l1.904.362c.62.14 1.21.57 1.52 1.165.157.295.25.625.262.957.01.342 0 .712 0 1.06-.002.706-.006 1.392-.01 2.032l-.026 3.09c-.004.378-.01.757-.013 1.137-.005.164-.014.445.106.663a1.07 1.07 0 0 0 .707.566l.137.042.274.083.55.167c.18.06.368.1.543.176l.53.22c1.406.588 2.74 1.387 3.86 2.427 2.265 2.063 3.852 4.785 4.856 7.625 1.156 3.212 1.716 6.587 1.942 9.976.08 1.11.15 2.332.175 3.448.016 1.3.04 3.336-.163 5.95l.696.083c.173-1.937.203-3.063.212-3.96.01-2.405-.093-4.72-.34-7.025-.25-2.303-.66-4.593-1.342-6.905-.55-1.823-1.26-3.615-2.206-5.3-.945-1.68-2.142-3.25-3.628-4.536a13.984 13.984 0 0 0-5.142-2.833l-.71-.21-.14-.042a.45.45 0 0 1-.22-.175c-.077-.118-.075-.196-.072-.48v-.708c0-.945-.003-1.89-.004-2.832L11.8 9.348c.013-.658-.22-1.36-.67-1.874a2.94 2.94 0 0 0-1.743-.985c-2.37-.46-4.727-.916-7.027-1.36l-.147.67z" fill="#4983BB"/><g transform="translate(27.114 29.246)"><mask id="b" fill="#fff"><use xlink:href="#a"/></mask><path d="M10.68 19.228c1.19-.284 2.522-.607 3.787-.96 1.353-.375 5.208-1.28 9.222-2.198l5.845-1.326c.896-.2 1.73-.388 2.462-.553.367-.08.71-.157 1.02-.226.158-.035.306-.07.448-.1a1.683 1.683 0 0 0 1.312-1.698l-.01-1.61-.03-3.232-.02-1.628a2.294 2.294 0 0 0-.754-1.623 2.5 2.5 0 0 0-.783-.47l-.76-.326-1.52-.65-3.044-1.3-1.52-.65c-.257-.1-.486-.234-.808-.31a2.344 2.344 0 0 0-.928-.03l-6.453 1.376a1401.948 1401.948 0 0 1-14.43 2.983L1.28 5.21l-.31.067a.925.925 0 0 0-.726.662.967.967 0 0 0-.032.25V7.556l.002 3.52.01 2.296.008 1.277.003.33c0 .042-.002.148.02.238.018.09.052.18.1.26.183.33.6.52.984.43l-.068-.338-.076-.335c-.126.035-.255-.073-.25-.186v-.856c0-.55.003-1.04.005-1.486 0-.892.002-1.602.003-2.23L.94 7.974l-.004-1.24v-.577a.21.21 0 0 1 .143-.174l4.828-1.028 9.788-2.09c2.64-.567 5.285-1.137 7.936-1.708l.995-.212c.275-.058.565-.048.835.03.118.03.282.11.437.175l.466.2.933.4 3.734 1.61 1.867.804c.306.115.517.252.718.456a1.68 1.68 0 0 1 .46 1.117l.006.497.01 1 .023 2 .023 2 .012 1c.003.245-.084.49-.243.68a1.113 1.113 0 0 1-.64.382l-.99.228-1.98.458-19.762 4.572.143.674z" fill="#4983BB" mask="url(#b)"/></g><g transform="translate(27.9 34.645)"><mask id="d" fill="#fff"><use xlink:href="#c"/></mask><path d="M.032 10.508c.456.153.968.32 1.474.438 1.084.254 5.883 2.044 7.377 2.616l.6.23c.036.01.15.058.222.075a.53.53 0 0 0 .617-.297c.07-.137.044-.37.05-.44l.004-.32.006-.636.006-2.56V4.507l.005-.718-1.41-.524L7.757 2.8c-.814-.32-1.627-.636-2.443-.955-.587-.232-1.247-.45-1.842-.67C2.777.922 1.698.53.28.056L.03.7c1.018.363 1.61.598 2.084.76 2.554.87 4.88 1.783 7.413 2.672l.217.077.022.004c0 .924 0 1.85.003 2.778l-.018 3.026-.018 3.028v.182h-.002l-.043-.015-.09-.033-.362-.13-1.446-.515c-2.51-.885-5.08-1.78-7.515-2.67l-.248.643z" fill="#4983BB" mask="url(#d)"/></g><path d="M61.285 33.514c-.36.088-.764.193-1.14.335-.808.303-4.693 1.08-5.91 1.31-2.597.487-5.254 1.108-7.852 1.65-1.466.307-2.927.586-4.4.84-.48.084-1.002.216-1.482.316-.56.118-1.427.303-2.55.58l.146.673c.817-.18 1.302-.264 1.68-.355 2.027-.487 3.93-.826 5.955-1.287 3.202-.73 6.468-1.342 9.678-2.06 2.01-.45 4.06-.92 6.023-1.33l-.145-.674zM41.172 3.154c-.46.08-.978.174-1.468.29-1.05.247-5.982 1.008-7.524 1.237-3.293.49-6.68 1.067-9.984 1.59-1.864.295-3.716.574-5.58.837-.608.087-1.275.206-1.885.303-.71.113-1.814.29-3.25.543l.063.408c1.04-.17 1.654-.256 2.135-.34 2.59-.448 5-.794 7.58-1.226 4.078-.682 8.218-1.297 12.308-1.974 2.56-.424 5.173-.863 7.668-1.258l-.062-.408zM42.084 11.504a28.38 28.38 0 0 0-1.513.32c-1.08.268-6.165 1.13-7.754 1.39-3.395.554-6.888 1.2-10.292 1.79-1.922.332-3.83.647-5.752.95-.627.097-1.315.23-1.943.34-.735.126-1.873.326-3.352.608l.068.407c1.072-.192 1.705-.29 2.2-.384 2.67-.5 5.155-.896 7.814-1.38 4.204-.765 8.472-1.463 12.688-2.223 2.638-.475 5.332-.966 7.904-1.412l-.068-.406zM32.96 29.914c-.01-.17-.03-.363-.106-.534-.074-.177-.21-.724-.642-1.13a1.25 1.25 0 0 0-.78-.346c-.278-.02-.504.08-.635.148-.566.325-.837.955-.903 1.55-.066.603.056 1.234.41 1.748.204.28.496.54.88.617.38.083.797-.044 1.08-.285.195-.153.34-.377.445-.584.124-.24.268-.647.25-1.182l-.42-.002c-.004.332-.065.52-.1.666-.1.39-.33.748-.65.917-.316.175-.692.116-.98-.137-.464-.407-.63-1.133-.534-1.766.047-.32.162-.63.342-.885.18-.25.435-.435.707-.46.345-.047.694.19.904.522.214.333.31.745.31 1.14l.42.002z" fill="#4983BB"/><path d="M30.68 32.137c.263.063.518.075.777.003.133-.046.395-.083.682-.254.29-.165.54-.492.656-.847.227-.716.157-1.46.075-1.822-.076-.38-.265-.783-.603-1.06-.33-.285-.76-.422-1.165-.46a3.26 3.26 0 0 0-.91.035c-.044.006-.118.023-.135.027l-.118.005a1.515 1.515 0 0 0-.644.195c-.2.115-.362.285-.478.466-.262.416-.34.867-.382 1.295-.032.426-.057.866.078 1.348a1.5 1.5 0 0 0 .658.832c.178.11.426.204.708.244.282.043.597.03.907.01l.003-.688c-.476.01-.7-.025-.877-.052-.972-.08-.904-1.445-.71-2.346.105-.367.32-.623.647-.683.04-.012.085-.012.127-.02l.067-.002.063-.003a.284.284 0 0 0 .08-.01c.107-.024.2-.035.305-.045.204-.018.408-.01.602.014.384.066.728.216.928.497.207.276.315.65.34 1.053.04.505-.012 1.05-.272 1.364a.857.857 0 0 1-.52.292 1.58 1.58 0 0 1-.67-.043l-.22.654zM41.6 27.708a1.58 1.58 0 0 0-.106-.534c-.074-.177-.21-.724-.643-1.13a1.25 1.25 0 0 0-.78-.347c-.276-.02-.503.08-.633.15-.566.323-.837.953-.903 1.548-.066.603.056 1.234.41 1.748.204.28.496.54.88.618.38.084.796-.043 1.08-.284.195-.153.34-.377.445-.584.124-.24.268-.647.25-1.182l-.42-.002c-.005.332-.065.52-.1.666-.1.39-.33.748-.65.916-.316.176-.693.117-.98-.137-.465-.406-.63-1.132-.534-1.766.047-.32.16-.63.34-.884.182-.25.436-.435.71-.46.344-.046.693.19.903.523.214.333.31.745.31 1.14l.42.002z" fill="#4983BB"/><path d="M39.32 29.93a1.5 1.5 0 0 0 .777.003c.132-.045.395-.083.68-.253.29-.165.542-.492.66-.847.225-.716.155-1.458.074-1.822-.077-.38-.265-.782-.603-1.06-.33-.284-.76-.42-1.166-.46a3.257 3.257 0 0 0-.91.037c-.042.006-.116.023-.134.026l-.117.006a1.515 1.515 0 0 0-.644.193c-.2.116-.363.285-.48.467-.26.416-.34.867-.38 1.295-.032.425-.058.864.077 1.347a1.5 1.5 0 0 0 .66.832c.177.11.425.204.707.243.282.043.597.03.907.01l.002-.688c-.477.01-.7-.025-.877-.053-.972-.08-.905-1.444-.71-2.345.105-.368.32-.623.647-.684.04-.012.085-.01.127-.02h.067l.063-.004a.286.286 0 0 0 .08-.01c.106-.024.2-.035.305-.045.204-.02.407-.012.602.012.384.067.728.217.928.5.206.274.314.648.34 1.052.038.505-.013 1.048-.273 1.364a.856.856 0 0 1-.52.292 1.58 1.58 0 0 1-.67-.043l-.22.653zM49.702 26.205c-.01-.17-.03-.363-.106-.535-.074-.176-.21-.723-.642-1.128a1.25 1.25 0 0 0-.78-.348c-.278-.02-.504.08-.635.15-.567.323-.837.953-.904 1.548-.066.603.056 1.234.41 1.748.204.28.496.54.88.618.38.082.797-.044 1.08-.285.195-.153.34-.377.445-.584.126-.24.27-.65.252-1.183l-.42-.002c-.004.332-.065.52-.1.665-.1.39-.33.75-.65.917-.316.175-.692.117-.98-.137-.464-.406-.63-1.132-.534-1.766.047-.32.162-.63.342-.884.18-.25.435-.435.707-.46.345-.047.694.19.904.522.216.334.313.746.312 1.14l.42.003z" fill="#4983BB"/><path d="M47.423 28.427c.262.064.517.075.776.003.132-.045.394-.083.68-.254.29-.165.54-.492.658-.846.227-.716.157-1.458.075-1.822-.077-.38-.265-.783-.604-1.06-.332-.285-.76-.42-1.166-.46a3.29 3.29 0 0 0-.91.035c-.044.007-.118.024-.136.027l-.117.006a1.515 1.515 0 0 0-.642.194c-.2.116-.363.285-.478.467-.262.416-.34.866-.382 1.295-.032.425-.057.864.078 1.346.087.313.345.65.658.832.178.11.426.204.708.244.282.043.597.03.907.01l.002-.688c-.477.01-.7-.025-.877-.052-.972-.08-.904-1.445-.71-2.345.105-.37.32-.625.648-.685.038-.012.084-.01.126-.02h.066l.064-.004a.29.29 0 0 0 .08-.01c.105-.023.2-.034.304-.045.204-.017.407-.01.603.014.383.066.727.216.927.498.206.275.315.65.34 1.053.04.506-.012 1.05-.272 1.365a.856.856 0 0 1-.52.292 1.58 1.58 0 0 1-.67-.044l-.22.654zM29.667 22.88c-.01-.17-.03-.362-.106-.534-.073-.176-.21-.723-.64-1.128a1.25 1.25 0 0 0-.782-.348c-.277-.02-.503.08-.634.15-.566.323-.836.953-.903 1.548-.065.603.057 1.234.412 1.748.203.28.495.54.88.618.38.082.796-.044 1.08-.285.194-.154.34-.378.444-.585.125-.24.27-.648.25-1.182l-.42-.002c-.003.333-.064.52-.1.666-.1.39-.33.75-.65.917-.315.175-.69.117-.978-.137-.466-.406-.63-1.132-.535-1.766.047-.32.162-.63.34-.884.183-.25.437-.435.71-.46.344-.047.693.19.903.523.215.332.312.744.31 1.14h.42z" fill="#4983BB"/><path d="M27.388 25.103c.262.064.517.075.776.003.133-.045.395-.083.682-.254.29-.165.54-.492.657-.846.227-.716.157-1.458.075-1.822-.077-.38-.266-.783-.604-1.06-.33-.285-.76-.42-1.165-.46a3.26 3.26 0 0 0-.912.035c-.043.006-.117.023-.134.026l-.118.006a1.515 1.515 0 0 0-.643.194c-.2.116-.362.285-.478.467-.262.416-.34.866-.382 1.295-.032.425-.057.864.078 1.347a1.5 1.5 0 0 0 .66.83c.177.112.425.205.707.245.282.043.597.03.907.01l.003-.688c-.476.01-.7-.025-.877-.052-.972-.08-.904-1.445-.71-2.345.106-.368.32-.624.647-.684.04-.01.085-.01.127-.018l.067-.002.064-.003a.286.286 0 0 0 .08-.012 2.873 2.873 0 0 1 .907-.03c.383.068.727.218.927.5.206.275.314.65.34 1.053.038.505-.013 1.048-.273 1.364a.858.858 0 0 1-.52.293 1.58 1.58 0 0 1-.67-.044l-.22.653zM37.914 20.674a1.59 1.59 0 0 0-.106-.534c-.074-.177-.21-.723-.643-1.13a1.25 1.25 0 0 0-.78-.346c-.277-.02-.504.08-.634.148-.565.325-.836.955-.902 1.55-.066.603.056 1.234.41 1.748.204.28.496.54.88.617.38.083.796-.044 1.08-.285.195-.153.34-.377.445-.583.125-.24.268-.65.25-1.183l-.42-.003c-.004.332-.064.52-.1.666-.1.39-.33.748-.65.917-.315.175-.692.116-.978-.137-.466-.406-.63-1.133-.535-1.766.047-.32.16-.63.34-.884.182-.25.436-.435.71-.46.344-.047.693.19.903.522.216.334.312.745.31 1.14l.42.002z" fill="#4983BB"/><path d="M35.635 22.897a1.5 1.5 0 0 0 .776.003c.134-.045.396-.083.682-.254.29-.165.54-.492.658-.847.226-.716.156-1.458.075-1.822-.077-.38-.266-.783-.604-1.06-.33-.285-.758-.42-1.165-.46a3.257 3.257 0 0 0-.91.035c-.043.006-.117.023-.135.027l-.117.005a1.515 1.515 0 0 0-.643.195c-.2.116-.363.285-.478.466-.262.417-.34.867-.383 1.295-.032.426-.058.866.077 1.348a1.5 1.5 0 0 0 .66.832c.177.11.425.204.707.244.282.043.597.03.907.01l.003-.688c-.476.01-.7-.025-.876-.052-.972-.08-.904-1.445-.71-2.346.105-.367.32-.623.647-.683.04-.012.085-.012.127-.02l.068-.002.063-.002a.304.304 0 0 0 .082-.01c.105-.024.2-.035.304-.045.204-.017.407-.01.602.014.384.066.728.216.928.498.206.275.315.65.34 1.052.04.506-.013 1.05-.273 1.364a.856.856 0 0 1-.52.292 1.58 1.58 0 0 1-.67-.043l-.218.654zM45.624 18.785a1.59 1.59 0 0 0-.107-.534c-.073-.175-.21-.722-.642-1.128a1.25 1.25 0 0 0-.78-.347c-.278-.02-.504.08-.635.148-.566.325-.836.955-.903 1.55-.066.603.057 1.234.41 1.748.204.282.496.542.88.62.38.08.797-.045 1.08-.286.196-.154.34-.378.445-.584.125-.24.27-.648.252-1.182l-.42-.003c-.005.332-.066.52-.1.666-.102.392-.332.75-.65.918-.317.175-.693.117-.98-.137-.465-.405-.63-1.13-.535-1.765.046-.32.16-.63.34-.884.182-.25.436-.434.708-.46.345-.046.694.19.904.523.216.334.312.746.31 1.14l.422.002z" fill="#4983BB"/><path d="M43.344 21.008a1.5 1.5 0 0 0 .776.003c.133-.044.396-.082.682-.253.29-.165.54-.492.658-.847.226-.715.156-1.457.074-1.82-.077-.382-.265-.784-.604-1.062-.33-.284-.76-.42-1.165-.46a3.26 3.26 0 0 0-.91.036c-.044.006-.118.023-.135.027l-.118.007a1.515 1.515 0 0 0-.642.194c-.2.117-.363.286-.48.468-.26.416-.34.866-.38 1.295-.033.425-.058.864.077 1.346.087.312.345.65.658.83.178.112.426.205.708.245.283.043.597.03.907.01l.003-.688c-.476.01-.7-.024-.877-.052-.972-.08-.904-1.445-.71-2.346.106-.368.32-.624.648-.684.04-.012.084-.012.126-.02l.067-.002.064-.002a.284.284 0 0 0 .08-.012c.107-.023.202-.033.305-.044.204-.017.408-.01.603.014.383.067.727.217.927.5.207.274.315.648.34 1.05.04.507-.012 1.05-.272 1.366a.857.857 0 0 1-.52.29 1.58 1.58 0 0 1-.67-.042l-.22.654zM0 29.383l.004-.086c.003-.128.015-.068.02-.035.007.07.016.024.025.04.003.01.008.045.013.106.002.02.003.002.005.005s.005.005.008-.03v-.687c-.003.002-.004-.018-.005-.008-.006.05-.012-.02-.02.003-.01.038-.02-.05-.03-.025-.007.016-.014.043-.02.03v.688zM18.247 9.28a.168.168 0 0 1 .08-.148c.027-.017.042-.02.16-.042l.284-.056c.38-.075.764-.157 1.138-.25 1.6-.39 9.133-1.566 11.488-1.918.628-.096 1.26-.192 1.89-.29l.95-.147.477-.077.238-.037c.047-.01.073-.01.092-.012a.38.38 0 0 1 .31.144.39.39 0 0 1 .08.284l-.003.95-.002 1.904v1.175a.363.363 0 0 1-.234.32c-.06.027-.27.05-.417.08l-.478.08-.956.16-3.8.628c-2.845.465-5.672.9-8.516 1.313-.464.067-.95.148-1.438.23l-.728.125-.36.06-.08.014h-.02a.15.15 0 0 1-.043-.01.134.134 0 0 1-.075-.08c-.01.015-.005-.21-.006-.37-.002-.343-.003-.722-.003-1.136-.01-.827-.02-1.793-.03-2.885l-.7-.01-.01 3.245.01.735.002.366a.843.843 0 0 0 .198.552.86.86 0 0 0 .816.29l.182-.03c.24-.042.483-.082.723-.123l2.867-.47c1.906-.31 3.81-.615 5.778-.955 1.558-.262 3.12-.525 4.684-.79l2.35-.383c.09-.01.282-.052.404-.13a.983.983 0 0 0 .492-.732c.005-.038.005-.077.007-.113V10.522l.006-1.17.01-2.342V6.72c0-.035.002-.136-.013-.206a1.012 1.012 0 0 0-.995-.836 1.21 1.21 0 0 0-.208.018l-.294.047-.588.095-4.695.772-5.89.99-2.93.49-1.45.237-.722.117c-.4.047-.74.418-.74.82l.352.013.35.004M11.86 27.913c-.047.126-.3.288-.59.38a1.4 1.4 0 0 1-.865-.027 53.95 53.95 0 0 1-1.44-.448 108.17 108.17 0 0 1-2.59-.876l-.81-.282-.407-.14a1.624 1.624 0 0 1-.343-.15c-.422-.24-.712-.705-.704-1.178.007-.48.28-.94.715-1.17a1.44 1.44 0 0 1 1.06-.125l.41.12c1.24.363 2.46.748 3.682 1.16.4.135.85.244 1.256.363.136.04.213.06.318.116.105.054.22.134.332.238.218.194.44.547.37.77l.658.236c.092-.26.065-.5.017-.68a1.81 1.81 0 0 0-.203-.45 2.063 2.063 0 0 0-1.185-.884l-.636-.176-1.25-.364c-.83-.246-1.657-.494-2.52-.73l-1.026-.282a2.133 2.133 0 0 0-1.257.022c-.403.138-.77.396-1.014.75a1.936 1.936 0 0 0-.352 1.21c.025.434.202.85.487 1.173.143.16.312.298.497.41.175.11.415.194.57.242l2.03.65 2.556.792.636.2a2.294 2.294 0 0 0 .757.124c.257 0 .512-.04.767-.127.248-.09.523-.245.693-.543l-.618-.324z" fill="#4983BB"/><path d="M11.018 27.487a.472.472 0 0 1-.33-.383.5.5 0 0 1 .235-.495.514.514 0 0 1 .466-.034l.852.282c.64.222 1.408.487 2.192.76.36.115.624.453.65.814.006.38-.002.785-.003 1.144l-.016 1.757-.02 2.6v.326l-.002.162v.083a.488.488 0 0 0 .335.46c.09.03.186.04.27-.007l.156-.062 1.24-.493.31-.124.134-.055c.01-.005.014 0 .024 0 .023 0 .044.006.066.01.17.037.323.153.398.31.17.312-.036.742-.39.813-.02.006-.043.007-.064.01-.024.005-.033.003-.09.007-.108.03-.126.045-.187.066l-.31.12-.62.236-.62.236-.308.118-.147.055c-.007.004-.015.004-.025.003l-.07-.004a1.09 1.09 0 0 1-.935-.77 1.13 1.13 0 0 1-.043-.313l.003-.363.008-.73.044-2.914c0-.318.003-.652.005-.986a11469.367 11469.367 0 0 0-.005-.755 1.262 1.262 0 0 0-.46-.93 1.308 1.308 0 0 0-.4-.224c-.128-.04-.262-.084-.403-.13-.554-.17-1.2-.372-1.933-.6l-.137.392c1.056.34 1.677.54 2.166.696.18.053.283.09.4.18.11.08.198.19.255.312.06.127.084.25.08.402l.002.497-.004 1.968-.007 1.965c-.002.33-.002.66-.003.994l.002.252a1.423 1.423 0 0 0 .28.827 1.484 1.484 0 0 0 1.11.596c.033-.005.12.02.174-.016l.396-.152 1.53-.585.19-.073c.046-.017.024-.01.035-.012a.956.956 0 0 0 .593-.24.93.93 0 0 0 .284-.94.957.957 0 0 0-.728-.68c-.053-.01-.066-.014-.15-.02-.064-.022-.143.037-.174.04l-.19.077-.383.15-.763.3-.382.15-.095.038c-.005.002-.003 0-.005 0 .006.004-.023-.006-.04-.023-.037-.045-.038-.036-.035-.21v-.405l.003-.806v-3.222l-.005-1.008c-.003-.176.003-.32-.006-.523a1.263 1.263 0 0 0-.64-.99c-.194-.108-.358-.142-.517-.203l-.972-.336-.968-.336-.483-.167-.24-.084c-.08-.025-.155-.06-.275-.084-.443-.096-.916.206-1.017.634-.12.425.147.902.57 1.032l.14-.39z" fill="#4983BB"/><path d="M16.41 34.577c-.025-.105-.036-.236-.067-.38-.043-.15.09-.618.47-.887.368-.285.894-.246 1.075-.158.428.158.753.557.91 1.01.155.458.15.985-.038 1.423-.198.5-.686.867-1.135.81-.142-.01-.3-.024-.434-.09-.152-.072-.39-.228-.614-.556l-.617.325c.2.347.372.53.528.647.42.314.98.46 1.497.337.52-.12.94-.474 1.184-.906.387-.69.456-1.5.207-2.243a2.24 2.24 0 0 0-.67-.992c-.32-.267-.772-.44-1.21-.403a1.825 1.825 0 0 0-1.367.725 2.022 2.022 0 0 0-.415 1.428l.694-.09zM46.114 36.893a3.19 3.19 0 0 0-.5-.136c-.375-.06-1.97-.71-2.465-.92-1.057-.45-2.175-.846-3.247-1.267-.606-.238-1.202-.488-1.794-.754-.194-.087-.417-.16-.615-.237-.23-.092-.59-.23-1.068-.39l-.155.383c.34.128.535.216.695.27.857.297 1.626.636 2.474.945 1.34.487 2.67 1.053 4.01 1.55.84.31 1.7.62 2.51.94l.154-.385zM54.784 35.236a3.286 3.286 0 0 0-.502-.155c-.378-.075-1.97-.786-2.465-1.017-1.055-.49-2.173-.933-3.246-1.397-.605-.262-1.2-.535-1.79-.825-.194-.094-.416-.175-.614-.26-.23-.1-.59-.254-1.07-.433l-.167.378c.34.142.534.237.693.3.86.33 1.626.7 2.474 1.04 1.34.542 2.667 1.16 4.01 1.71.838.343 1.698.69 2.51 1.04l.167-.38z" fill="#4983BB"/><path d="M45.222 36.643a.78.78 0 0 0-.053-.252c-.08-.18-.043-1.02-.022-1.282.043-.56.014-1.138.025-1.7.006-.318.027-.633.064-.95.013-.103 0-.217.003-.32a5.11 5.11 0 0 0-.018-.556h-.42c0 .177-.01.28-.005.363.03.442-.013.852.002 1.292.022.696-.033 1.4-.017 2.097.01.437.027.883.02 1.308h.42zM36.56 38.32a.894.894 0 0 0-.054-.27c-.078-.196-.042-1.1-.022-1.382.044-.603.015-1.225.026-1.83.005-.342.027-.68.064-1.022.013-.11 0-.234.003-.346.002-.13.003-.333-.018-.597h-.422c.002.19-.01.302-.005.39.03.476-.012.918.002 1.39.023.75-.03 1.507-.015 2.258.01.47.026.95.018 1.408h.42zM52.425 34.376a.655.655 0 0 0-.053-.227c-.078-.164-.042-.92-.022-1.158.043-.505.015-1.027.026-1.534.005-.287.027-.57.064-.857.012-.092 0-.195.003-.29.002-.108.003-.278-.018-.5h-.42c0 .16-.01.254-.006.328.03.4-.013.77 0 1.166.024.628-.03 1.263-.014 1.892.01.393.026.796.018 1.18h.42z" fill="#4983BB"/></g></g></svg>