<svg width="56" height="49" viewBox="0 0 56 49" xmlns="http://www.w3.org/2000/svg"><title>EF255B66-E958-4E07-A128-5720ABB0CA37</title><g fill="none" fill-rule="evenodd"><path d="M20.489 4.24L43.363 29.01a3.075 3.075 0 0 1-.138 4.29l-14.97 14.226a2.971 2.971 0 0 1-4.23-.14L1.15 22.613a3.075 3.075 0 0 1 .138-4.29L16.259 4.099a2.971 2.971 0 0 1 4.23.14" fill="#FCDAC8"/><path fill="#FAC39A" d="M7.797 12.14l26.836 29.062-4.102 3.898L3.695 16.037z"/><path d="M29.325 45.06c-.31.126-.6.28-.883.445a.608.608 0 0 0-.381-.125h-.32a.701.701 0 0 0-.269.079 9.52 9.52 0 0 0-1.229-.427 46.204 46.204 0 0 1-1.891-3.54.556.556 0 0 0 .02-.422 199.48 199.48 0 0 0-2.43-6.763 51.623 51.623 0 0 0-.902-2.493.667.667 0 0 0-.262-.324c-.365-1.204-.74-2.405-1.131-3.601a.73.73 0 0 0-.131-.242l-.903-3.007a.618.618 0 0 0-.312-.389c-.316-1.124-.62-2.25-.9-3.386a.57.57 0 0 0-.44-.447 47.22 47.22 0 0 0-1.582-4.941.675.675 0 0 0-.279-.341 36.595 36.595 0 0 0-.523-1.55.773.773 0 0 0-.1-.187 11 11 0 0 0-.449-1.275l-.479-1.537c.264-.735.409-1.503.699-2.242.151-.146.31-.29.483-.427.025-.02.044-.042.065-.063l.03-.012.146-.071c.35-.125.684-.28 1.02-.475.002 0 .005 0 .008-.002.052-.022.1-.046.152-.068v.002l.058-.029c.275-.123.54-.257.797-.406.25-.123.503-.241.756-.357.071.01.146.01.225-.003.463-.082.923-.163 1.37-.32.107-.037.409-.205.615-.292.17.017.342.03.518.04.662.034.837-.887.324-1.212a1.134 1.134 0 0 0-.49-.19.684.684 0 0 0-.096-.141c-.545-.621-1.2-.909-2.011-.966a.538.538 0 0 0-.445.19c-.758-.092-1.44.12-1.669.946l-.084.045c-.375.165-.74.356-1.096.587a.622.622 0 0 0-.294.647c-.107.128-.214.256-.313.396-.007.01-.01.02-.017.029-.673.327-1.283.75-1.77 1.386a.703.703 0 0 0-.083.145.546.546 0 0 0-.063.037c-.27-.117-.619-.088-.842.208-.575.76-.348 2.118-.253 3.01.127 1.203.412 2.367.828 3.5a.66.66 0 0 0 .244.324 702.303 702.303 0 0 0 8.66 22.321c.469 1.451.969 2.892 1.486 4.326l.012.058c.018.093.051.171.094.236.41 1.127.832 2.25 1.27 3.368a8.47 8.47 0 0 0 .66 1.681.713.713 0 0 0 .083.125c.131.42.367.79.716 1.118.16.15.335.19.5.17.119.124.3.2.46.195a1.8 1.8 0 0 0 1.558-.986c.578-.4 1.156-.838 1.806-1.1.758-.305.427-1.564-.34-1.254" fill="#FAC39A"/><path d="M20.79 3.953a3.44 3.44 0 0 0-3.034-1.08 3.418 3.418 0 0 0-1.68.763c-.453.399-.833.77-1.262 1.167a204.804 204.804 0 0 0-5.003 4.82 267.527 267.527 0 0 1-5.12 4.978l-2.585 2.453-.648.614c-.215.208-.43.397-.662.659a3.41 3.41 0 0 0-.776 1.83c-.1.908.189 1.862.79 2.552.579.631 1.144 1.205 1.717 1.813 1.142 1.199 2.274 2.406 3.352 3.626 2.9 3.28 5.544 5.837 8.26 8.892 1.822 2.05 3.76 3.923 5.596 5.95l2.871 3.225.716.808c.246.27.454.534.753.815a3.23 3.23 0 0 0 2.162.82 3.166 3.166 0 0 0 1.51-.381c.234-.122.45-.278.645-.454.192-.171.35-.333.526-.5l2.055-1.996a298.163 298.163 0 0 1 4.133-3.972c.973-.913 1.884-1.879 2.843-2.793l3.908-3.61 1.377-1.277c.224-.197.48-.462.66-.733.192-.274.322-.58.42-.883a3.364 3.364 0 0 0 .054-1.755 3.18 3.18 0 0 0-.6-1.243c-.227-.272-.441-.472-.66-.702l-.654-.677a37.46 37.46 0 0 1-1.268-1.387c-.746-.864-4.356-4.715-5.447-5.952-2.33-2.64-4.84-5.28-7.224-7.89a206.564 206.564 0 0 1-3.964-4.467c-.425-.493-.928-1.006-1.368-1.489a109.201 109.201 0 0 0-2.389-2.538l-.561.523c.759.817 1.187 1.314 1.545 1.686 1.924 2.004 3.614 3.949 5.51 5.962 2.997 3.184 5.943 6.52 8.938 9.721l3.623 3.908 1.803 1.967.9.985.45.493c.148.165.256.3.362.469.413.654.495 1.5.256 2.23a2.593 2.593 0 0 1-.589.972c-.277.281-.636.6-.95.898l-3.89 3.636c-1.853 1.737-3.67 3.522-5.486 5.308l-2.73 2.672-1.374 1.326c-.226.213-.467.457-.682.641a2.413 2.413 0 0 1-.714.435 2.607 2.607 0 0 1-1.872.022 2.5 2.5 0 0 1-.81-.489c-.218-.2-.473-.507-.713-.771l-2.924-3.264c-1.496-1.656-3.058-3.216-4.551-4.873-3.039-3.372-6.127-6.663-9.215-10a362.285 362.285 0 0 0-4.13-4.404l-1.078-1.126-.532-.56a2.657 2.657 0 0 1-.396-.56 2.751 2.751 0 0 1 .07-2.677c.102-.184.236-.346.38-.498.15-.156.328-.321.49-.48l1-.96 2.004-1.902 4.023-3.803c1.707-1.63 3.377-3.181 5.044-4.736l2.501-2.346a2.67 2.67 0 0 1 2.853-.518 2.516 2.516 0 0 1 .788.537l.099.097.554-.527z" fill="#2D82BC"/><path d="M7.64 11.97c-1.014.974-2.15 2.068-3.217 3.137l-.948.923 3.18 3.399 4.254 4.6 7.439 8.096L30.523 45.35l4.355-4.14-4.817-5.219-11.455-12.509-3.892-4.22c-1.474-1.59-3.759-4.053-6.737-7.267l-.347.304 4.407 4.78 15.66 16.957 6.616 7.156-3.771 3.575L15.895 28.88 4.015 16.048l3.924-3.726-.299-.352z" fill="#2D82BC"/><path d="M28.758 27.89l6.999 7.578c.24.26.226.67-.03.912l-.634.603a.63.63 0 0 1-.899-.03l-6.999-7.58a.653.653 0 0 1 .03-.91l.635-.604a.631.631 0 0 1 .898.03M22.345 20.945l4.446 4.814a.653.653 0 0 1-.03.912l-.634.603a.631.631 0 0 1-.899-.03l-4.446-4.815a.653.653 0 0 1 .03-.91l.635-.604a.631.631 0 0 1 .898.03M27.965 21.272L38.59 32.777a.653.653 0 0 1-.03.911l-.635.604a.631.631 0 0 1-.898-.03L26.402 22.757a.653.653 0 0 1 .03-.911l.635-.604a.631.631 0 0 1 .898.03" fill="#FAC39A"/><path d="M38.976 2.483L50.138 34.48c.549 1.575-.271 3.318-1.823 3.875l-19.338 6.94c-1.552.557-3.27-.274-3.82-1.848L13.997 11.449c-.55-1.574.271-3.318 1.823-3.874L35.157.634c1.551-.557 3.27.275 3.819 1.849" fill="#DFF7D7"/><path d="M37.202 27.511l3.415 9.79a.65.65 0 0 1-.387.824l-.82.294a.635.635 0 0 1-.812-.393l-3.415-9.79a.65.65 0 0 1 .388-.823l.82-.294a.635.635 0 0 1 .81.392" fill="#C6E9B2"/><path d="M37.202 27.511l3.415 9.79a.65.65 0 0 1-.387.824l-.82.294a.635.635 0 0 1-.812-.393l-3.415-9.79a.65.65 0 0 1 .388-.823l.82-.294a.635.635 0 0 1 .81.392z" stroke="#F7EBD3" stroke-width=".3"/><path fill="#C6E9B2" d="M24.226 4.557l13.095 37.54-5.299 1.902-13.094-37.54z"/><path d="M38.857 2.37l-.788-.856a.578.578 0 0 0-.399-.2A3.317 3.317 0 0 0 36.63.75a.538.538 0 0 0-.41.027c-1.165-.192-2.696.427-3.637.933-.02.01-.031.027-.049.039a51.81 51.81 0 0 0-.183.082c-.002 0-.004.003-.006.004-.337.05-.67.111-1.003.185-.81.117-1.533.35-2.282.742l-.01-.001c-.861.073-1.417.252-2.11.775l-.028.032c-.313-.388-1.118-.257-1.155.404a140.47 140.47 0 0 0 .785 24.486c-.03 4.031.144 8.062.528 12.087a.73.73 0 0 0 .04.172c.173 1.948 1.77 4.803 3.992 3.697.495-.247.364-1.063-.154-1.188-1.564-.378-1.712-1.298-1.83-2.3-.005-.17-.013-.34-.023-.509l-.126-3.593c.145-1.961.08-3.9-.178-5.862.04-1.358.036-2.714-.018-4.075.002-.735.006-1.47.004-2.205a.557.557 0 0 0 .153-.405c-.068-2.182-.149-4.362-.239-6.543.01-1.47.003-2.942-.038-4.414a.737.737 0 0 0-.039-.215c.078-2.252.204-4.502.386-6.75a.589.589 0 0 0-.072-.35l.413-1.02c.46-.36.94-.684 1.46-.98a.591.591 0 0 0 .297-.378c.036-.016.07-.028.107-.045.19.005.376.006.559 0 .054.01.11.017.174.013l1.168-.069h.015l.012-.002 1.51-.088a.64.64 0 0 0 .536.14c.43-.077.845-.119 1.257-.144.467.02.924.118 1.37.305.17.053.326.025.456-.047.238.013.463-.15.582-.379.22-.243.248-.686.013-.94" fill="#B9E19D"/><path d="M39.365 2.343A3.49 3.49 0 0 0 37.013.119a3.393 3.393 0 0 0-1.84.017c-.573.18-1.069.366-1.618.555a201.48 201.48 0 0 0-6.489 2.38 263.71 263.71 0 0 1-6.659 2.478l-3.336 1.195-.837.3c-.28.102-.55.188-.867.333a3.361 3.361 0 0 0-1.435 1.36 3.39 3.39 0 0 0-.285 2.66c.281.814.573 1.57.857 2.359.571 1.564 1.132 3.13 1.637 4.686 1.36 4.184 2.771 7.602 4.051 11.505.858 2.62 1.894 5.124 2.774 7.728l1.355 4.122.336 1.03c.12.348.206.675.368 1.054a3.278 3.278 0 0 0 1.657 1.63c.48.212 1.01.31 1.534.266.262-.016.521-.071.77-.154.244-.078.452-.162.679-.243l2.671-.993a298.08 298.08 0 0 1 5.358-1.958c1.252-.44 2.468-.954 3.708-1.401l5.007-1.718 1.767-.61c.282-.089.621-.228.894-.403.284-.172.524-.4.733-.638a3.34 3.34 0 0 0 .744-1.586 3.2 3.2 0 0 0-.059-1.382c-.1-.342-.217-.612-.327-.912l-.33-.886a37.928 37.928 0 0 1-.615-1.787c-.34-1.094-2.125-6.09-2.636-7.668-1.09-3.366-2.346-6.805-3.498-10.166-.65-1.898-1.271-3.794-1.866-5.705-.194-.624-.451-1.299-.664-1.92-.249-.724-.639-1.848-1.185-3.297l-.721.25c.372 1.058.568 1.687.748 2.174.972 2.618 1.75 5.088 2.691 7.703 1.487 4.136 2.867 8.391 4.345 12.542l1.774 5.053.874 2.535.435 1.268.217.635c.071.211.116.38.147.577.119.768-.14 1.576-.648 2.147a2.547 2.547 0 0 1-.923.651c-.366.145-.82.291-1.226.436l-5 1.749c-2.385.837-4.755 1.733-7.125 2.63l-3.557 1.338-1.782.656c-.291.102-.609.228-.88.31a2.379 2.379 0 0 1-.825.107 2.625 2.625 0 0 1-2.272-1.519c-.12-.272-.233-.656-.349-.996l-1.387-4.18c-.716-2.125-1.53-4.189-2.243-6.315-1.45-4.325-2.98-8.596-4.489-12.91a364.9 364.9 0 0 0-2.042-5.713l-.542-1.47-.266-.73a2.725 2.725 0 0 1-.142-.674c-.079-.921.355-1.887 1.123-2.424.166-.127.354-.22.546-.301.198-.083.427-.16.639-.241l1.294-.472 2.588-.927 5.188-1.848c2.21-.798 4.352-1.54 6.493-2.287L35.27.973c.95-.35 2.097-.082 2.818.686a2.587 2.587 0 0 1 .509.812l.052.129.716-.257z" fill="#2D82BC"/><path d="M24.15 4.338a212.35 212.35 0 0 0-4.188 1.565l-1.233.46 1.57 4.407 2.078 5.944 3.614 10.443 5.925 17.067 5.626-2.02-2.35-6.741-5.547-16.12-1.898-5.448-3.299-9.398-.437.137 2.147 6.172 7.643 21.904 3.23 9.247-4.867 1.74-7.137-20.51L19.217 6.6l5.068-1.817-.135-.444z" fill="#2D82BC"/><path d="M34.073 18.541l2.17 6.22a.649.649 0 0 1-.388.822l-.82.294a.635.635 0 0 1-.811-.393l-2.17-6.218a.65.65 0 0 1 .388-.823l.82-.295a.635.635 0 0 1 .81.393" fill="#C6E9B2"/><path d="M34.073 18.541l2.17 6.22a.649.649 0 0 1-.388.822l-.82.294a.635.635 0 0 1-.811-.393l-2.17-6.218a.65.65 0 0 1 .388-.823l.82-.295a.635.635 0 0 1 .81.393z" stroke="#F7EBD3" stroke-width=".3"/><path d="M39.092 21.127l5.184 14.861a.65.65 0 0 1-.388.823l-.82.295a.636.636 0 0 1-.81-.393l-5.185-14.861a.65.65 0 0 1 .387-.823l.82-.295a.635.635 0 0 1 .812.393" fill="#C6E9B2"/><path d="M39.092 21.127l5.184 14.861a.65.65 0 0 1-.388.823l-.82.295a.636.636 0 0 1-.81-.393l-5.185-14.861a.65.65 0 0 1 .387-.823l.82-.295a.635.635 0 0 1 .812.393z" stroke="#F7EBD3" stroke-width=".3"/><path d="M55.41 6.653l.176 33.942c.009 1.67-1.33 3.042-2.976 3.051l-20.513.11c-1.646.008-3-1.35-3.008-3.02l-.176-33.942c-.008-1.67 1.331-3.042 2.977-3.051l20.513-.11c1.645-.008 3 1.35 3.008 3.02" fill="#E5ECF8"/><path d="M55.824 6.651a3.532 3.532 0 0 0-1.501-2.884 3.404 3.404 0 0 0-1.744-.598c-.6-.02-1.127-.01-1.708-.016-2.279-.003-4.67.012-6.9.086-2.378.079-4.734.106-7.09.12l-3.54.016-.887.005c-.297.003-.581-.006-.926.026a3.32 3.32 0 0 0-1.797.806 3.367 3.367 0 0 0-1.13 2.418c.001.862.032 1.672.045 2.513.033 1.667.055 3.333.028 4.97-.072 4.406.154 8.104.098 12.218-.038 2.76.13 5.47.117 8.223l-.055 4.345-.017 1.086c0 .367-.024.705.006 1.117a3.319 3.319 0 0 0 1.036 2.091 3.189 3.189 0 0 0 2.14.875c.256.007.48-.003.72-.004l2.845-.047a296.34 296.34 0 0 1 5.694-.063c1.325.002 2.641-.079 3.957-.088l5.285.048 1.866.013c.296.009.661-.01.975-.084.325-.067.625-.203.9-.358a3.296 3.296 0 0 0 1.216-1.25c.264-.469.363-.946.392-1.325.016-.356-.007-.65-.013-.97l-.026-.947a37.238 37.238 0 0 1 0-1.892c.031-1.148-.035-6.462-.007-8.12.06-3.544-.01-7.21-.01-10.77 0-2.008.03-4.006.086-6.009.02-.654-.006-1.377-.005-2.034 0-.768-.004-1.959-.051-3.51l-.762-.003c.009 1.123-.01 1.782.003 2.302.069 2.797.004 5.388.046 8.172.064 4.402-.012 8.881.04 13.293l.038 5.364.004 2.686v2.015c-.002.223-.013.396-.049.593a2.647 2.647 0 0 1-1.307 1.813 2.52 2.52 0 0 1-1.083.307c-.392.014-.869.001-1.299.003l-5.288-.015c-2.525-.005-5.053.052-7.582.109l-3.793.078-1.896.025c-.308 0-.648.012-.93-.001a2.379 2.379 0 0 1-.815-.174 2.655 2.655 0 0 1-1.654-2.192c-.025-.297-.007-.697-.006-1.057l.043-4.41c.013-2.245-.088-4.467-.072-6.712.03-4.568-.029-9.111-.057-13.689a361.92 361.92 0 0 0-.078-6.077l-.035-1.569-.015-.777c0-.23.025-.46.084-.684.224-.897.947-1.664 1.846-1.916.198-.064.405-.09.613-.102.214-.012.455-.01.681-.015l1.377-.014 2.744-.013 5.498-.015c2.345-.018 4.61-.004 6.874.004l3.406.005c1.012-.013 2.008.621 2.44 1.588a2.597 2.597 0 0 1 .218.936l.007.139.76-.004z" fill="#2D82BC"/><path fill="#A7DDFA" d="M40.808 3.696l.206 39.82-5.62.03-.206-39.82z"/><path d="M40.807 3.463c-1.397.015-2.962.035-4.462.083l-1.314.023.055 4.685.038 6.308.029 11.067.067 18.094 5.968-.033-.035-7.15-.018-17.072-.027-5.78-.07-9.975-.458-.016.028 6.544.122 23.235.056 9.81-5.161.022-.097-21.75-.113-17.604 5.376-.027.016-.464z" fill="#2D82BC"/><path d="M45.627 29.7l.053 10.386a.643.643 0 0 1-.632.648l-.87.004a.642.642 0 0 1-.639-.641l-.054-10.385a.642.642 0 0 1 .633-.648l.87-.005a.642.642 0 0 1 .639.642M45.577 20.185l.035 6.597a.642.642 0 0 1-.633.648l-.87.005a.642.642 0 0 1-.639-.642l-.034-6.596a.642.642 0 0 1 .632-.648l.87-.005a.642.642 0 0 1 .64.641M49.48 24.3l.081 15.765a.643.643 0 0 1-.632.648l-.87.005a.642.642 0 0 1-.639-.642l-.082-15.764a.642.642 0 0 1 .633-.648l.87-.005a.642.642 0 0 1 .639.642" fill="#A7DDFA"/></g></svg>