<svg width="50" height="50" viewBox="0 0 50 50" xmlns="http://www.w3.org/2000/svg" xmlns:xlink="http://www.w3.org/1999/xlink"><title>D0B287BA-8F70-436A-904C-54E485FEF333</title><defs><path id="a" d="M12.504 5.236V.162H.146v5.074h12.358z"/></defs><g fill="none" fill-rule="evenodd"><path d="M36.123 3.1c.036.609-.047 1.225-.025 1.834.014.3.032.609.032.91-.032.021-.079.043-.108.06-.376.23-.87.273-1.34.395-.44.107-.895.16-1.353.208.021-.058.043-.122.068-.183.075-.226.15-.459.172-.577.125-.487.09-1.014.021-1.504a16.32 16.32 0 0 0-.132-.839c-.018-.093-.061-.186-.09-.272-.021-.06-.046-.136-.086-.23.37-.046.738-.107 1.1-.164l1.246-.172c.14-.025.287-.09.427-.14l.079-.032c-.004.233-.026.466-.011.706" fill="#C6E9B2"/><path d="M33.232 4.153c.118.57.09 1.164-.025 1.72a2.96 2.96 0 0 1-.219.673 13.82 13.82 0 0 0-.673.079c-1.014.143-2.045.175-3.073.193.01-.029.021-.057.032-.093.025-.09.06-.19.1-.294a6.1 6.1 0 0 0 .147-.544c.111-.459.075-.953.018-1.415a29.444 29.444 0 0 0-.108-.785c-.01-.09-.05-.175-.075-.261-.018-.054-.04-.125-.079-.211.201-.008.377-.022.502-.04.254-.04.509-.097.766-.079.237.018 1.312-.1 1.652-.107.222-.004.444-.014.666-.04.029.072.047.126.068.169.161.337.219.68.301 1.035" fill="#C6E9B2"/><path d="M29.18 4.39c.112.537.076 1.096-.014 1.619a2.79 2.79 0 0 1-.272.813c-.15.003-.3.003-.451.007-.924.01-1.852.204-2.78.186-.312-.007-.623-.032-.935-.057-.05-.247-.057-.71-.05-.874.018-.444-.007-.903.018-1.347.01-.25.046-.498.1-.745.018-.083.011-.172.022-.25.01-.094.028-.24.032-.42.559-.018 1.121-.064 1.68-.06.276.003.544-.065.817-.073.143-.003.856.03 1.504.03h.004c.032.085.046.146.068.193.14.318.186.64.258.977M24.184 3.33c.093.003.182.003.275.003-.014.096-.025.161-.028.215-.01.358-.072.684-.072 1.039-.003.562-.05 1.131-.003 1.694.018.215.046.437.071.652-.122-.007-.24-.018-.362-.025-.404-.022-.806.043-1.214.01-.752-.057-1.504-.064-2.257-.1l-.017-.018c-.065-.05-.137-.236-.19-.437a2.901 2.901 0 0 1-.083-.516c-.032-.437-.079-.888-.057-1.329a3.65 3.65 0 0 1 .118-.734c.018-.079.022-.168.036-.247.014-.09.036-.222.054-.394.096.007.193.014.29.029.559.071 1.117-.036 1.676.003.588.04 1.172.136 1.763.154" fill="#C6E9B2"/><path d="M36.09 1.656c-.032.022-.06.036-.093.058-.197.129-.458.2-.709.261l-.788.165c-.86.197-1.766.218-2.647.326-1.43.172-2.887.161-4.327.161-1.032 0-2.067.183-3.102.15-.595-.02-1.19-.093-1.78-.132-.452-.032-.903.029-1.355-.014-.92-.086-1.834-.111-2.754-.187-.409-.032-.806-.068-1.218-.082-.423-.018-.842-.04-1.261-.082a7.871 7.871 0 0 1-1.096-.19 5.907 5.907 0 0 1-.523-.154c-.09-.025-.169-.058-.25-.09l-.108-.046-.05-.025c-.044-.026-.09-.054-.1-.104-.012-.05.031-.09.07-.111a.271.271 0 0 1 .065-.033l.104-.039c.104-.04.208-.072.319-.1.437-.115.9-.19 1.361-.294.054-.01.283-.04.283-.04v.004c.183-.032.405-.043.505-.068.552-.118 1.103-.111 1.659-.186.88-.115 1.802-.09 2.69-.158C22.42.54 23.883.596 25.326.643c1.032.032 2.074-.119 3.11-.05.59.035 1.185.128 1.773.193.451.046.902.007 1.35.068.91.125 1.823.197 2.723.347.397.072.741.133 1.128.208.183.04.362.09.509.158.068.028.129.06.172.09" fill="#B9E19D"/><path d="M37.76 19.173c.143-.083.748-.42.702-.495-.054-.086-.688.276-.831.359-.057.04-.24.129-.52.254-.275.125-.64.304-1.096.462-.888.362-2.095.695-3.36.985a35.23 35.23 0 0 1-3.76.584c-.578.06-1.111.086-1.563.122-.455.028-.83.032-1.1.043-.093.018-1.654.014-2.342-.004l-1.168-.043c-.39-.018-.78-.057-1.171-.082-.588-.036-1.172-.126-1.759-.19-.584-.075-1.16-.183-1.744-.276-1.322-.272-2.655-.562-3.898-1.057-.62-.243-1.228-.53-1.723-.942-.247-.2-.455-.447-.548-.72a.92.92 0 0 1 .14-.816c.136-.2.398-.455.78-.663.388-.2.89-.401 1.43-.591 1.089-.373 2.414-.652 3.704-.799 2.583-.3 5-.211 5.28-.218.168 0 .903.014.906-.086 0-.09-.691-.097-.852-.097-1.709-.018-3.335-.018-4.972.118-1.63.14-3.285.412-4.936 1.068-.387.157-.796.322-1.15.601-.344.262-.68.652-.71 1.161-.025.512.287.931.606 1.225.33.297.702.52 1.082.716 1.54.756 3.202 1.115 4.846 1.444 1.662.308 3.346.49 5.03.57 1.687.086 3.377.05 5.05-.097a32.265 32.265 0 0 0 4.976-.82c1.587-.405 3.148-.914 4.67-1.716m3.189 3.195c.046 2.042.132 4.112-.047 6.168-.104 1.179-.276 2.354-.433 3.525-.122.896-.161 1.791-.308 2.683-.194 1.179-.376 2.354-.602 3.514a3.498 3.498 0 0 0-.168-.326c-.523-.917-1.347-1.558-2.203-2.049-.867-.487-1.791-.842-2.748-1.157-.67-.215-1.314-.34-1.995-.487a30.662 30.662 0 0 0-2.744-.48c-1.29-.172-2.697-.247-3.428-.244l-1.96.022c-.3-.004-1.138.025-2.013.093-.87.065-1.773.176-2.202.222a25.397 25.397 0 0 0-5.474 1.247c-.992.35-1.963.763-2.873 1.329-.297.179-.594.43-.86.662-.175.165-.415.39-.648.706-.032-.33-.097-.627-.14-.946-.293-1.959-.723-3.922-.899-5.906a72.896 72.896 0 0 1-.175-3.421c-.036-.87-.143-1.73-.143-2.601.014-1.766.01-3.528.268-5.258.068-.38.111-.763.215-1.125l.133-.555c.06-.18.11-.366.179-.549a10.74 10.74 0 0 1 1.024-2.149c.753-1.225 1.755-2.246 2.787-3.26.656-.648 1.336-1.228 1.985-1.87.16-.164.318-.329.469-.515.15-.186.3-.383.405-.641.053-.13.09-.28.096-.441v-.34l-.01-.692c0-.071 0-.268.003-.39.634.064 1.258.154 1.899.197.598.04 1.221-.022 1.816.072.799.125 1.48-.018 2.224.068.502.057 1-.061 1.498-.033.193.011.386.033.58.05a11.7 11.7 0 0 0 1.003.08c.702.01 1.4-.097 2.103-.097.247 0 .487-.072.73-.083.205-.007 1.677.058 2.182-.043.225-.043.455-.1.688-.086.21.018 1.17-.107 1.475-.118.172-.003.344-.014.52-.032.097-.007.197-.022.294-.032-.004.197-.008.344-.004.472.01.283.014.56.014.835.004.072 0 .125.004.215.007.097.021.19.046.269a2 2 0 0 0 .201.44c.326.513.716.9 1.128 1.293 1.319 1.211 2.587 2.476 3.668 3.851.874 1.107 1.59 2.354 1.953 3.708.361 1.343.458 2.783.487 4.205" fill="#E5ECF8"/><path d="M39.382 38.803c-.039.086-.078.175-.14.258-.082.114-.143.24-.24.347l-.279.326c-.537.544-1.192.967-1.88 1.375-.362.19-.735.37-1.107.549l-1.164.45c-.355.112-.717.209-1.075.309-.179.047-.355.1-.537.14l-.548.1-1.096.204-1.11.15c-1.892.273-3.68.258-5.585.355-.076 0-.287.004-.412.007-.434-.028-.688-.064-.889-.071a18.906 18.906 0 0 1-1.586-.111c-.516-.061-1.032-.13-1.573-.176-1.694-.183-3.396-.54-5.033-.981-1.322-.348-2.63-.86-3.675-1.67-.505-.408-.956-.913-1.082-1.472-.025-.068-.021-.136-.036-.2l-.028-.265v-.018c.16-.27.311-.441.43-.58.447-.542 1.01-.954 1.597-1.305a13.67 13.67 0 0 1 1.884-.91c2.107-.841 4.41-1.246 6.667-1.525 1.834-.219 3.69-.29 5.541-.23 1.852.061 3.697.255 5.502.616 1.29.266 2.533.574 3.715 1.043 1.168.473 2.325 1.103 3.123 2.12.287.377.498.774.616 1.165" fill="#E5ECF8"/><path d="M20.007 6.084c.054.243.129.487.215.72a16.46 16.46 0 0 0-.942-.022c-.38.004-.76 0-1.14-.007-.598-.018-1.178-.114-1.762-.204a.462.462 0 0 0-.093-.136c-.06-.054-.125-.247-.172-.455a3.01 3.01 0 0 1-.06-.534c-.008-.448-.03-.91.024-1.357.03-.255.09-.502.172-.742.025-.079.033-.172.054-.25l.054-.23c.627.065 1.29.05 1.902.161.641.115 1.221.083 1.805.097-.018.09-.036.147-.04.197-.031.358-.107.688-.11 1.046-.007.566-.032 1.15.093 1.716M15.956 2.817c-.004.01-.008.021-.008.032-.064.366-.164.695-.197 1.064-.043.577-.103 1.171-.007 1.759.047.286.126.566.215.838a9.408 9.408 0 0 1-1.031-.236 8.935 8.935 0 0 1-.574-.183 1.908 1.908 0 0 1-.45-.208.439.439 0 0 0-.083-.204c-.119-.15-.061-.852-.033-1.075.069-.469.026-.952.04-1.422.01-.265.043-.53.097-.795a.1.1 0 0 0 .003-.046l.086.032c.25.086.498.15.742.208.4.096.798.175 1.2.236" fill="#C6E9B2"/><path d="M41.289 26.387l-.094-1.762.023-.233a.143.143 0 0 0-.042-.118l-.149-2.783a.173.173 0 0 0-.046-.11c.021-.264.04-.528.05-.793.003-.084-.054-.139-.122-.162a6.944 6.944 0 0 0-.62-2.644.143.143 0 0 0 .033-.163c-.155-.396-.33-1.128-.705-1.45a7.04 7.04 0 0 0-.747-1.255c-.751-1.248-1.715-2.284-2.911-3.197l-.023-.014-.268-.28a.938.938 0 0 0-.182-.3 14.5 14.5 0 0 1-1.672-2.277.865.865 0 0 0-.376-.348c.003-.096.005-.192.018-.292.01-.07.013-.136.009-.2a.5.5 0 0 0 .142-.25.435.435 0 0 0-.01-.206.39.39 0 0 0-.004-.116.417.417 0 0 0 .047-.243c-.054-.43-.677-.535-.875-.152v.001a7.584 7.584 0 0 0-.293.001.319.319 0 0 0-.256-.092c-.456.021-.518.018-.78.089l-.258.03a.309.309 0 0 0-.175-.031c-.455.05-.908.085-1.361.114a.296.296 0 0 0-.219-.074l-1.986.134a.35.35 0 0 0-.28.164l-1.132.008a.32.32 0 0 0-.217-.072l-2.903.094c-.023 0-.038.01-.058.013a62.2 62.2 0 0 1-1.53-.029.37.37 0 0 0-.184-.07 24.927 24.927 0 0 0-2.907-.1.389.389 0 0 0-.125.027.29.29 0 0 0-.17-.098 5.532 5.532 0 0 0-1.007-.084l-.076-.067a.35.35 0 0 0-.567.114c-.067.009-.13.014-.2.025-.35.054-.335.624 0 .69l.026.005c-.1.188-.06.442.205.489 4.232.746 8.48.604 12.726.243.014.007.026.015.044.018.342.068.67.167.985.288.785.405 1.455 1.03 2.112 1.674 1.018 2.132 3.336 3.704 4.419 5.909 1.124 2.29 1.526 4.765 1.613 7.276l-.002.008c0 .37-.034.745-.109 1.11-.008.039-.014.079-.024.117l-.008.03a4.13 4.13 0 0 1-.845 1.627c-.013.014-.024.03-.038.043-.15.13-.307.25-.471.362-.494.3-1.075.45-1.637.628a7.254 7.254 0 0 0-2.491-.392c-1.38.033-1.386 2.183 0 2.15 1.39-.034 2.722.416 3.7 1.437.425.444.994 1.146.833 1.799a9.787 9.787 0 0 0-.615-.655c-.991-.966-2.512.553-1.52 1.52.151.147.306.306.458.475-1.138.645-.11 2.398 1.085 1.845l.019.085c-.394-.03-.78.122-1.004.505-.206.354-.18.884.082 1.223.013.235.112.458.27.648a.96.96 0 0 0-.229.253c-2.353 1.268-4.948 1.665-7.378.806a4.22 4.22 0 0 0 1.078-.65c1.058-.894-.47-2.407-1.52-1.52-.56.473-1.442.582-2.375.518a3.929 3.929 0 0 0-.16-.668c-.4-1.192-2.162-.826-2.127.25-.417-.112-.794-.229-1.094-.327-.8-.262-1.319.4-1.312 1.057-1.837-.76-4.106-.879-5.992-.303a9.648 9.648 0 0 0-.659.126.925.925 0 0 0-.013-.062 1.016 1.016 0 0 0-.157-.651 1.02 1.02 0 0 0-.105-.273 1.05 1.05 0 0 0-.556-.454c.391-1.585 2.713-1.886 4.72-1.767.013.091.025.183.044.28.227 1.143 1.733.91 2.038-.002.195.044.368.088.511.131 1.326.405 1.893-1.669.572-2.072a10.204 10.204 0 0 0-1.055-.257c-.013-.045-.023-.091-.042-.135-.188-.441-.536-.574-.896-.825-1.652-1.148.878-2.502 1.908-2.936 1.256-.529.704-2.61-.571-2.073-1.695.715-3.517 1.604-3.966 3.57a3.028 3.028 0 0 0 .298 2.148c.007.013.015.023.023.036-2.846.159-5.644 1.29-5.79 4.279a1.07 1.07 0 0 0 .05.385 2.666 2.666 0 0 0-.282.218c-.595.55-.642 1.311-.131 1.93.05.06.11.108.175.15.068.269.225.509.436.68a.996.996 0 0 0 .465.508c2.808 1.55 5.982 2.13 9.146 1.523 1.512-.291 3.158-1.035 3.999-2.236.07.094.154.183.264.26.097.066.198.123.296.186 1.593 1.828 4.516 1.921 6.796 1.872 1.901-.04 4.411-.194 5.548-1.7.391-.276.812-.588 1.069-.974.07-.041.139-.09.205-.148.368-.324.478-.67.427-1.013.005-.013.013-.025.016-.041.033-.202.049-.262.031-.357l.104-.674a.184.184 0 0 0 .117-.157c.042-.348.07-.697.102-1.046l.013-.059a.185.185 0 0 0 0-.082c.011-.127.025-.255.034-.382l.004-.026c.013-.052.02-.105.032-.157.412-.373.295-1.318.343-1.816l.164-1.695c.13-.681.209-1.363.235-2.05a.155.155 0 0 0 .03-.072l.006-.048v-.006c.018-.124.03-.247.044-.37.058-.193.094-.424.116-.67.11.033.27-.059.247-.216-.065-.47-.099-.938-.117-1.406.028-.176.059-.352.077-.528.077-.01.145-.063.139-.168" fill="#D8E3F3"/><path d="M39.99 39.09c-.042-.295-.24-.793-.487-1.22-.538-.952-1.391-1.595-2.262-2.079-.882-.484-1.814-.83-2.776-1.148-.673-.22-1.326-.323-2.008-.468-.287-.065-1.452-.334-2.745-.508-1.292-.182-2.705-.267-3.437-.251-.658.011-1.308.05-1.965.035-.3-.01-1.143.019-2.016.087-.874.064-1.778.173-2.21.217-1.845.185-3.728.62-5.5 1.234-1 .352-1.982.753-2.918 1.309-.309.178-.609.44-.882.678-.307.283-.809.76-1.155 1.59l.584.26c.223-.49.452-.728.609-.924.43-.535.988-.94 1.57-1.284a14.714 14.714 0 0 1 1.866-.9c2.09-.85 4.393-1.22 6.64-1.507a34.604 34.604 0 0 1 5.525-.225c1.844.07 3.683.274 5.473.643 1.282.267 2.518.561 3.694 1.014 1.163.45 2.315 1.067 3.09 2.063.367.49.612 1.007.683 1.495l.626-.111z" fill="#F5F7FA"/><path d="M15.803 7.04l-.029 1.157-.008.316c.001.066-.01.071-.011.102.001.023-.02.06-.027.09-.051.134-.16.296-.283.454-.525.638-1.249 1.273-1.846 1.921-1.293 1.377-2.652 2.694-3.634 4.367a10.315 10.315 0 0 0-.826 1.803c-.11.313-.208.63-.282.954-.084.32-.176.637-.233.955-.374 1.715-.241 3.182-.316 4.787-.036 1.082.122 2.138.163 3.212.038 1.133.043 2.264.14 3.395.13 1.501.401 2.98.592 4.475.068.521.202 1.028.289 1.542.024.216.179 1.115.244 2.065.019.244.072.547.187.782.05.126.11.244.184.35.068.11.133.22.215.309l.228.269.235.215c.075.066.146.13.213.185l.197.132.32.206c.11.065.225.118.335.179.222.12.44.246.661.36.1.056.295.152.542.269l.868.33c.63.203 1.286.413 1.602.493.334.098.674.19 1.017.28l1.041.205.523.098.525.075 1.042.155c.78.108 1.555.216 2.332.352.254.037.538.04.795.061.3.025.766.06 1.373.072l.04-.638c-.435-.029-.69-.065-.891-.072-.543-.019-1.066-.05-1.585-.111-.518-.063-1.035-.129-1.573-.175-1.696-.185-3.398-.542-5.034-.981-1.32-.35-2.628-.862-3.675-1.67-.504-.407-.955-.914-1.083-1.472-.023-.068-.02-.136-.035-.202l-.028-.265-.056-.538c-.03-.366-.1-.69-.15-1.036-.292-1.962-.72-3.923-.897-5.908a72.956 72.956 0 0 1-.175-3.422c-.036-.87-.144-1.728-.143-2.599.013-1.766.009-3.53.268-5.258.067-.38.111-.765.216-1.127l.131-.554c.06-.18.111-.365.177-.547.26-.745.602-1.469 1.026-2.15.754-1.225 1.755-2.247 2.785-3.26.657-.65 1.337-1.228 1.986-1.871.16-.165.321-.33.471-.517.15-.185.298-.381.405-.639.053-.128.09-.278.095-.44l-.001-.341-.01-.69.004-.489h-.636z" fill="#5282BE"/><path d="M24.123 44.013l2.566-.027c.47-.015.95-.061 1.429-.101.477-.05.953-.08 1.407-.172.97-.183 1.932-.307 2.887-.518l.718-.139.711-.185.713-.19c.238-.062.468-.16.703-.24a12.006 12.006 0 0 0 3.574-1.986c.33-.26.613-.563.841-.898l.165-.253.133-.272c.083-.185.147-.374.18-.593.003-.016 0-.005 0-.011.154-.868.25-1.711.425-2.594.205-1.1.23-2.202.377-3.306.163-1.162.357-2.316.468-3.486.136-1.555.126-3.115.168-4.677.009-.545-.059-1.086-.066-1.626l-.016-.793c-.004-.194-.002-.413-.012-.648l-.049-.737c-.02-.51-.11-1.038-.179-1.511-.078-.472-.212-.882-.29-1.16-.176-.489-.408-.957-.6-1.438a9.784 9.784 0 0 0-.772-1.387c-.376-.578-.82-1.137-1.024-1.409-.873-1.163-2-2.162-3.029-3.155-.289-.282-.57-.569-.825-.867-.251-.292-.492-.62-.574-.905-.001-.04-.025-.088-.021-.119 0-.018-.003-.03-.006-.052l-.001-.104-.004-.411c.003-.31.005-.791-.027-1.418l-.64-.003c.003.453-.015.72-.006.93.01.282.015.56.016.834.002.073-.003.126.003.216.007.096.019.19.047.27.047.17.124.308.2.44.324.51.716.9 1.127 1.294 1.32 1.21 2.587 2.474 3.668 3.85.875 1.105 1.59 2.354 1.953 3.706.362 1.345.458 2.784.487 4.206.047 2.04.131 4.113-.046 6.17-.103 1.178-.277 2.351-.434 3.522-.123.895-.16 1.792-.307 2.683-.199 1.193-.38 2.386-.61 3.56-.002.014-.01.054-.007.05a2.139 2.139 0 0 1-.108.348c-.065.119-.11.246-.192.361-.082.114-.145.238-.241.345l-.281.326c-.538.547-1.192.967-1.88 1.376-.36.192-.734.37-1.106.55l-1.164.449c-.355.113-.715.209-1.073.308-.18.046-.357.1-.54.139l-.546.103-1.096.204-1.111.15c-1.892.27-3.678.258-5.587.352l-.503.013.007.636z" fill="#5282BE"/><path d="M13.237 5.891c.009.26.15.394.25.493.101.085.204.15.305.204.203.108.409.185.622.255.425.134.872.219 1.293.24.896.04 1.746.195 2.63.252.6.038 1.223-.022 1.816.072.798.125 1.479-.02 2.225.067.502.059.998-.061 1.498-.031.528.029 1.053.118 1.583.127.702.013 1.4-.097 2.103-.098.245 0 .486-.07.729-.081.204-.006 1.678.057 2.183-.042.227-.044.455-.1.686-.086.212.017 1.173-.11 1.478-.118.651-.01 1.311-.146 1.959-.251.366-.06.732-.106 1.117-.16.127-.017.256-.079.381-.124.074-.027.169-.065.285-.13.063-.042.122-.071.204-.15.065-.046.195-.232.194-.343l-.608-.174c.032-.005-.087.06-.146.093-.378.228-.871.27-1.343.392-.765.19-1.579.213-2.365.327-1.278.18-2.583.186-3.873.202-.925.012-1.85.207-2.78.187-.532-.012-1.065-.072-1.596-.105-.406-.024-.81.043-1.215.011-.825-.065-1.647-.066-2.474-.109a18.65 18.65 0 0 0-1.098-.03c-.38.003-.76.003-1.138-.007-.678-.02-1.334-.14-2-.235a9.239 9.239 0 0 1-1.216-.266 8.972 8.972 0 0 1-.572-.181c-.177-.064-.377-.147-.468-.218a1.018 1.018 0 0 0-.019-.016c-.006-.004-.001-.005-.001-.005.001-.001.007-.002-.024.013-.062.021-.038.02-.059.024-.01.002-.02.001-.02.001h-.526zM36.791 1.652l-.015-.08a.51.51 0 0 0-.08-.196c-.1-.156-.204-.207-.298-.266a1.707 1.707 0 0 0-.274-.117c-.179-.062-.351-.098-.523-.135-.343-.069-.679-.125-1.004-.215-.88-.241-1.651-.158-2.476-.305C31.565.24 31.006.324 30.45.263 29.863.2 29.282.084 28.693.047c-.783-.05-1.566.026-2.348-.007-.273-.012-.545.047-.816.046-.228-.004-1.864-.137-2.433-.064-.255.03-.511.077-.767.05-.235-.027-1.313.046-1.65.036-.724-.03-1.467.062-2.19.109-.409.025-.817.034-1.23.022-.136-.002-.331.038-.465.053a5.415 5.415 0 0 0-.76.134V.425c-.379.045-.84.093-1.325.198-.242.053-.49.117-.741.221-.031.012-.064.028-.096.043l-.122.058c-.095.063-.202.119-.28.19-.178.138-.232.318-.248.504.03.201.117.372.302.492.084.062.186.109.278.16.1.041.14.057.21.081.254.088.5.15.745.21.49.118.978.21 1.47.272.669.082 1.375.057 2.034.175.887.159 1.655.035 2.485.142.56.072 1.117-.035 1.674.003.588.04 1.174.137 1.764.155.783.023 1.564-.077 2.347-.068.274.004.544-.064.815-.071.227-.003 1.868.078 2.434-.017.254-.039.509-.096.767-.078.235.019 1.31-.1 1.65-.107.724-.006 1.463-.14 2.186-.249l1.245-.174c.14-.022.286-.088.425-.139.083-.033.187-.071.317-.15.066-.04.137-.085.221-.17a.633.633 0 0 0 .2-.45l-.319-.003h-.206c-.026 0-.026-.005-.054-.016a.242.242 0 0 1-.055-.026h.002c-.015.008-.023.02-.043.031-.04.026-.078.047-.117.07-.197.13-.46.204-.712.262l-.789.166c-.857.196-1.765.217-2.645.326-1.43.17-2.885.162-4.326.162-1.033 0-2.069.18-3.105.148-.594-.02-1.187-.09-1.779-.132-.452-.033-.903.028-1.355-.015-.918-.085-1.834-.11-2.752-.185-.408-.033-.808-.066-1.22-.082-.421-.017-.842-.041-1.26-.082a7.695 7.695 0 0 1-1.621-.342c-.086-.027-.167-.06-.25-.091L14.08 1.8l-.052-.026c-.042-.024-.087-.054-.1-.102-.01-.05.035-.09.074-.114a.352.352 0 0 1 .063-.03l.106-.042c.102-.036.207-.069.317-.097.437-.116.899-.192 1.362-.294.052-.012.283-.041.283-.041v.003c.183-.032.404-.043.506-.066.55-.12 1.101-.113 1.657-.186.881-.116 1.801-.092 2.689-.158 1.44-.106 2.9-.05 4.34-.005 1.033.032 2.077-.118 3.111-.05.593.038 1.185.128 1.774.193.45.048.902.007 1.35.07.912.125 1.823.197 2.72.348.398.069.743.13 1.13.208.183.038.361.09.51.155.075.032.143.068.19.1.022.015.038.03.043.032-.02.009.045-.029.074-.035a.055.055 0 0 1 .04-.01h.525z" fill="#5282BE"/><path d="M13.903 5.891a.418.418 0 0 0-.08-.21c-.12-.152-.064-.856-.033-1.075.065-.47.022-.953.038-1.424.009-.267.041-.53.098-.795.019-.087.001-.182.004-.27.004-.101.005-.259-.027-.464h-.639c.003.148-.016.235-.007.304.045.37-.02.713.002 1.082.036.582-.048 1.172-.023 1.756.015.366.04.74.028 1.095l.639.001zM36.766 6.078a.448.448 0 0 0-.08-.22c-.119-.159-.064-.893-.033-1.122.066-.49.022-.995.038-1.487.01-.278.042-.553.098-.83.02-.09.002-.19.004-.281.004-.106.005-.27-.027-.485h-.639c.003.154-.016.245-.007.317.045.387-.02.745.002 1.13.036.608-.047 1.224-.023 1.833.015.382.04.772.028 1.143l.64.002z" fill="#5282BE"/><path d="M37.597 18.975c-.057.04-.239.128-.515.252-.276.125-.64.304-1.092.46-.885.359-2.09.688-3.354.971a34.477 34.477 0 0 1-3.753.57c-.575.06-1.106.082-1.558.118-.453.026-.829.027-1.097.037-.092.016-1.65-.002-2.334-.02l-1.166-.04c-.39-.019-.778-.056-1.168-.084-.587-.034-1.167-.126-1.75-.189-.582-.075-1.16-.182-1.74-.275-1.318-.27-2.645-.56-3.877-1.048-.612-.241-1.217-.524-1.693-.918-.238-.194-.432-.426-.515-.67-.08-.24-.035-.49.12-.724.123-.186.369-.43.743-.634.373-.197.877-.4 1.41-.59 1.082-.374 2.398-.657 3.683-.808 2.574-.305 4.99-.22 5.272-.228.166.003.903.02.906-.152.002-.145-.689-.15-.85-.15-1.712-.016-3.34-.03-4.982.087-1.636.124-3.304.382-4.973 1.041-.388.157-.81.324-1.178.614a2.253 2.253 0 0 0-.5.516c-.14.206-.244.462-.256.736-.015.273.066.54.19.758.125.218.283.401.454.557.341.312.724.536 1.11.735 1.563.764 3.226 1.119 4.88 1.447 1.667.311 3.355.497 5.045.58a36.09 36.09 0 0 0 5.064-.098 30.419 30.419 0 0 0 4.985-.86c1.588-.42 3.147-.945 4.676-1.75.142-.08.755-.418.676-.54-.093-.145-.72.215-.863.299" fill="#F5F7FA"/><path d="M16.395 6.606a.54.54 0 0 0-.11-.17c-.061-.054-.125-.248-.173-.455a3.118 3.118 0 0 1-.059-.534c-.01-.448-.03-.91.025-1.36.03-.252.087-.5.17-.741.026-.08.035-.17.055-.25a8.24 8.24 0 0 0 .096-.425l-.364-.12c-.045.15-.075.228-.088.298-.063.365-.164.694-.194 1.062-.044.579-.106 1.174-.009 1.762.062.366.174.73.295 1.073l.356-.14zM20.69 6.963a.517.517 0 0 0-.114-.161c-.064-.05-.134-.237-.19-.437a3.158 3.158 0 0 1-.083-.518c-.03-.437-.078-.886-.054-1.328.012-.248.051-.494.115-.734.02-.08.022-.168.036-.248.015-.092.04-.24.06-.422l-.373-.09c-.031.15-.055.228-.062.297-.033.36-.109.687-.113 1.047-.004.566-.03 1.148.094 1.715.078.353.202.703.333 1.033l.351-.154zM24.85 7.284a.55.55 0 0 0-.07-.191c-.096-.133-.113-.802-.101-1.01.018-.444-.01-.9.015-1.346a4.81 4.81 0 0 1 .1-.746c.019-.08.015-.17.025-.252.01-.094.026-.243.032-.432l-.38-.055c-.018.147-.037.227-.04.295-.01.358-.07.685-.072 1.04-.002.561-.05 1.13-.003 1.694.027.353.08.71.115 1.052l.38-.05zM29.166 7.136a.626.626 0 0 0 .054-.214c0-.043.026-.112.055-.198.025-.088.06-.19.1-.294.062-.212.127-.434.147-.542.111-.46.073-.953.015-1.415a29.353 29.353 0 0 0-.107-.787c-.01-.087-.05-.175-.075-.258a2.263 2.263 0 0 0-.18-.436l-.35.158c.053.118.072.203.097.26.141.32.187.644.258.98.11.537.076 1.095-.015 1.618a2.92 2.92 0 0 1-.33.935l.33.193zM33.152 7.065a.703.703 0 0 0 .066-.226.857.857 0 0 1 .067-.206c.029-.093.07-.201.113-.311.074-.223.148-.459.17-.573.126-.49.09-1.016.022-1.508-.037-.28-.082-.556-.133-.836-.016-.093-.06-.186-.089-.274a2.365 2.365 0 0 0-.208-.46l-.342.174c.06.123.085.214.113.274.16.334.22.678.3 1.035.12.57.09 1.165-.025 1.719a3.098 3.098 0 0 1-.38.99l.326.202z" fill="#5282BE"/><path d="M18.594 47.458a2.66 2.66 0 0 1-.869.452c-.03.008-.06.016-.09.027l.014-.14.027-.427c.025-.357-.036-.721-.069-1.072a4.25 4.25 0 0 1-.019-.592c.006-.063-.01-.134-.014-.197l-.01-.181c.14-.047.28-.1.416-.151.14-.055.283-.113.42-.176v.014c.038.241.022.466.046.707.042.379.03.765.066 1.146l.033.36.016.178c.003.038 0 .035 0 .04a.15.15 0 0 0 .033.012M17.424 47.512c.003.132 0 .266-.011.398 0 .033-.006.063-.009.096-.375.12-.718.26-1.093.334-.053-.11-.022-.59-.011-.743.024-.326-.006-.663-.017-.99a6.211 6.211 0 0 1 .006-.553c.005-.06-.008-.126-.014-.187a1.68 1.68 0 0 0-.024-.216 7.32 7.32 0 0 0 1.01-.23c.034.277.034.534.075.8.066.433.08.869.088 1.291M14.97 48.551c-.055-.104-.033-.586-.02-.737.031-.32.009-.655.015-.976.002-.184.016-.365.04-.546.009-.06 0-.126.003-.186 0-.069 0-.175-.013-.318a49.793 49.793 0 0 0 .954-.096c.003.038.003.069.008.093.047.252.033.488.06.74.041.398.017.804.028 1.204a8.6 8.6 0 0 1 .008.65 3.98 3.98 0 0 0-.639.11c-.145.027-.288.06-.436.076l-.008-.014M14.748 48.57c.003.003.011.006.017.009-.415.008-.82-.039-1.229-.055h-.074a.169.169 0 0 0-.019-.06c-.05-.102-.008-.568.008-.713.036-.313.02-.636.025-.949.003-.178.014-.353.036-.532.005-.057-.003-.12-.003-.178 0-.06-.003-.145-.016-.255.178-.01.356-.019.534-.008.107.011.376.003.675-.013 0 .087-.009.14-.003.183.022.253-.009.488.003.74.019.4-.017.806-.003 1.206.003.124.008.253.01.379.004.063.004.123.006.186v.061h.033zM12.042 45.76c.442.064.886.1 1.15.091.002.066 0 .11.005.145.027.244.002.472.016.713.019.387-.02.776-.02 1.16 0 .216.004.436-.01.65-.376-.003-.754 0-1.13-.042a.09.09 0 0 0-.01-.022c-.055-.104-.039-.58-.025-.731.024-.318 0-.648.003-.965 0-.181.013-.362.035-.543.008-.058 0-.124 0-.181 0-.06 0-.154-.014-.274M11.765 47.858c.006.194.02.392.02.584-.176-.022-.357-.006-.53-.042a5.14 5.14 0 0 1-.488-.131l-.016-.03c-.06-.101-.063-.598-.06-.751.01-.332-.03-.669-.044-.998a5.465 5.465 0 0 1 .01-.562c.006-.06-.004-.126-.007-.187-.003-.06-.006-.15-.022-.265l.09.016c.113.027.565.142 1.078.23h-.052c.002.102-.003.162 0 .209.024.249 0 .482.013.734.022.395-.01.795.008 1.193M9.882 45.317c.162.051.326.082.49.112l-.049.002c.009.105.003.168.012.214.035.26.021.502.046.76.041.406.027.822.066 1.23.016.182.033.368.047.549-.17-.055-.351-.118-.508-.173a4.5 4.5 0 0 0-.397-.134c-.14-.044-.29-.08-.42-.15-.043-.135-.013-.612-.002-.766.03-.34.005-.69 0-1.033a5.812 5.812 0 0 1 .022-.579c.005-.063-.006-.131-.009-.194 0-.028-.002-.06-.005-.099.233.096.471.178.707.26M8.912 47.098c.005.157.008.316.008.472a5.25 5.25 0 0 1-.296-.195c-.19-.142-.356-.312-.406-.41a8.187 8.187 0 0 0-.082-.152l-.052-.153c-.028-.052-.014-.104-.025-.157a.697.697 0 0 1-.008-.178c.003-.268.003-.537.011-.8.01-.299.038-.595.087-.891.006-.047.009-.093.009-.143.178.148.375.266.57.368.041.022.085.04.129.06.003.06.003.101.008.137.036.266.017.513.038.779.03.42 0 .844.009 1.263" fill="#FAE0AC"/><path d="M19.434 43.66a1.04 1.04 0 0 0-.049.137c-.108.245-.31.444-.526.612-.23.16-.472.3-.734.435-.837.435-1.801.575-2.726.726-1.514.223-3.082.097-4.556-.245-.529-.129-1.058-.251-1.565-.435-.5-.184-1.001-.444-1.32-.848-.023-.033-.046-.067-.065-.1a.841.841 0 0 1-.111-.64c.06-.242.241-.46.452-.65.336-.287.72-.575 1.16-.743.903-.334 1.85-.563 2.82-.67.43-.05.857-.077 1.292-.108.448-.03.897-.036 1.347-.024.805.03 1.584.205 2.35.438.484.15.942.349 1.346.615.404.263.768.606.913 1.016.017.05.023.224.029.224h-.046c-.003.082-.006.168-.011.26" fill="#F8D593"/><path d="M19.434 43.66a1.04 1.04 0 0 0-.049.137c-.108.245-.31.444-.526.612-.23.16-.472.3-.734.435-.837.435-1.801.575-2.726.726-1.514.223-3.082.097-4.556-.245-.529-.129-1.058-.251-1.565-.435-.5-.184-1.001-.444-1.32-.848-.023-.033-.046-.067-.065-.1a.841.841 0 0 1-.111-.64c.06-.242.241-.46.452-.65.336-.287.72-.575 1.16-.743.903-.334 1.85-.563 2.82-.67.43-.05.857-.077 1.292-.108.448-.03.897-.036 1.347-.024.805.03 1.584.205 2.35.438.484.15.942.349 1.346.615.404.263.768.606.913 1.016.017.05.023.224.029.224h-.046c-.003.082-.006.168-.011.26z" stroke="#FAE0AC"/><path d="M19.407 45.238l.014-.045c.03-.017.062-.03.093-.047.364-.196.19-.796-.208-.79l-.192.004a.417.417 0 0 0-.356.224 9.415 9.415 0 0 1-1.834.672l-1.211.104a.345.345 0 0 0-.085-.002l-1.158.109a.429.429 0 0 0-.162.048 16.57 16.57 0 0 1-1.967.045.353.353 0 0 0-.311.15.577.577 0 0 0-.094.046c-.039-.143-.13-.27-.28-.305a.435.435 0 0 0-.333.059c-.021-.001-.043-.007-.065-.005a.411.411 0 0 0-.374-.12.394.394 0 0 0-.43.085c-.001-.038-.005-.075-.006-.112-.019-.401-.473-.507-.698-.314-.143-.12-.407-.292-.572-.158-.029-.025-.04.128-.073.103-.132-.1-.27-.182-.422-.19l-.065-.248c-.125-.473-.785-.358-.808.112-.032.66-.082 1.572.227 2.177.253.496.815.884 1.323 1.045.095.03.189.33.262.299.101.033.09-.02.198 0l.134-.075c.084.436.647.612.794.285.214.257.56.208 1.187.205.038.117.118.067.26.087a6.642 6.642 0 0 0 2.399-.072.32.32 0 0 0 .172.1c.657.114 1.335-.106 1.983-.412.027.006.053.016.082.016.755.005 1.345-.28 1.785-.849a.458.458 0 0 0 .088-.027c.795-.357 1.113-1.141.854-1.985a.413.413 0 0 0-.15-.22" fill="#F8D593"/><path d="M19.404 43.582c0 1.16-2.293 2.1-5.12 2.1-2.829 0-5.121-.94-5.121-2.1 0-1.16 2.292-2.1 5.12-2.1 2.828 0 5.12.94 5.12 2.1" fill="#FCE2AE"/><path d="M19.404 43.582c0 1.16-2.293 2.1-5.12 2.1-2.829 0-5.121-.94-5.121-2.1 0-1.16 2.292-2.1 5.12-2.1 2.828 0 5.12.94 5.12 2.1z" stroke="#F8D593"/><path d="M19.902 43.391c-.007-.256-.07-.556-.23-.787-.145-.248-.35-.437-.564-.614a3.735 3.735 0 0 0-1.432-.662c-1.034-.233-2.022-.447-3.06-.489-.703-.026-1.421.082-2.119.079-.948.006-1.7.316-2.554.51-.58.145-1.078.483-1.571.82-.26.18-.518.396-.693.71-.182.312-.18.763.008 1.085.25.428.639.67 1.013.864.384.185.778.316 1.168.455.275.09.566.107.843.163.116.03.587.159 1.113.253.525.093 1.103.15 1.401.127.268-.02.537-.054.804-.028.246.044 1.371-.072 1.724-.109.76-.045 1.526-.257 2.25-.533.411-.155.819-.328 1.226-.586.138-.076.247-.232.36-.35.055-.087.14-.184.204-.335.03-.077.06-.162.086-.254.012-.1.02-.206.022-.316l-.638-.003c-.01.162-.074.247-.093.324-.09.208-.281.38-.484.527-.218.138-.448.26-.697.38-.791.393-1.721.501-2.606.64-1.449.208-2.955.075-4.362-.239-.503-.119-1.01-.217-1.495-.373-.479-.153-.96-.377-1.25-.725-.154-.203-.205-.42-.144-.605.057-.19.221-.368.42-.529.31-.24.665-.51 1.088-.655a12.692 12.692 0 0 1 2.693-.59c.412-.045.819-.071 1.237-.106.43-.036.86-.049 1.292-.044.773.018 1.519.185 2.251.39.466.131.9.314 1.282.553.382.233.716.538.847.872.015.04.017.181.024.18h.636z" fill="#2B81BB"/><path d="M19.21 43.391c-.028.537-.12 1.306-.017 1.978.055.358.067.713.068 1.068-.001.241-.164.481-.39.699-.306.291-.705.609-1.166.723-.614.143-1.095.44-1.703.479-.403.023-.781.197-1.189.207-.428.005-.853-.064-1.276-.083-.56-.017-1.127.033-1.686-.058-.193-.037-.396.001-.588-.037a8.1 8.1 0 0 1-.752-.227c-.345-.12-.705-.265-.901-.313-.173-.049-.363-.079-.502-.198-.068-.048-.265-.161-.455-.296-.184-.138-.347-.305-.391-.4-.023-.05-.048-.1-.074-.147-.015-.05-.027-.098-.045-.145-.024-.047-.01-.096-.02-.142a.762.762 0 0 1-.008-.174c.003-.268 0-.536.01-.8.014-.298.05-.594.11-.891.02-.097.004-.204.008-.302a3.296 3.296 0 0 0-.01-.446l-.155.29c.006-.008.03-.03.055-.052l-.36-.528-.062.043-.123.082-.005.156c-.005.127-.017.204-.01.267.04.416-.03.8-.014 1.214.014.328-.003.657-.02.988-.01.07 0 .19.013.3.004.115.051.21.086.312.082.194.202.364.34.494.443.432.95.689 1.461.917a9.52 9.52 0 0 0 1.578.517c.773.18 1.57.083 2.34.127.445.03.893.078 1.342.075.344-.001.674-.108 1.016-.135.698-.052 1.38-.23 2.052-.471.298-.104.587-.24.86-.422.277-.189.546-.4.765-.682.19-.243.38-.537.391-.892.015-.294.017-.556.016-.838-.009-.706.086-1.364.043-2.07-.002-.041.005-.187.005-.187h-.637z" fill="#2B81BB"/><path d="M10.751 48.44a.358.358 0 0 0-.054-.153c-.076-.11-.065-.631-.054-.794.025-.35-.016-.706-.021-1.055a4.087 4.087 0 0 1 .034-.591c.008-.065-.005-.135-.006-.2a2.156 2.156 0 0 0-.03-.342l-.384.015c.006.11-.002.175.005.226.039.273.01.528.035.8.04.43.009.869.041 1.3.02.27.047.547.051.81l.383-.015zM17.436 48.015a.206.206 0 0 0-.17.192c0 .07.02.1.042.134.023.03.055.063.117.081.024.013.114.004.091.003.05-.012.045-.016.068-.027.125-.105.087-.176.084-.2-.038-.128.032-.658.037-.828.033-.36-.034-.725-.064-1.075a3.52 3.52 0 0 1-.004-.593c.006-.064-.011-.133-.013-.197a2.8 2.8 0 0 0-.033-.336l-.383.007c.006.114-.004.183.005.235.043.281.033.543.077.816.07.432.073.868.083 1.286.005.13.004.262-.006.392-.002.066-.012.13-.02.193l-.008.048c-.038.004.102.028.116.047a.066.066 0 0 1 .022.018c.015.033-.001.011.003.018.003 0 .002-.004.005-.008.005-.008.012-.008 0-.004-.016.005-.022-.008-.015.007l-.004-.02-.03-.189M18.641 47.566c.002-.003-.007.019-.04.037a.45.45 0 0 1-.056.027l-.034.012h.003c.004.001.01.006.016.01a.015.015 0 0 0 .005.003l.054-.005.088-.004.123-.015.048-.002c-.004-.002-.008-.01-.013-.016-.076-.1-.07-.595-.06-.75.021-.33-.024-.667-.032-.996a3.623 3.623 0 0 1 .028-.56c.007-.061-.007-.128-.008-.188a1.895 1.895 0 0 0-.035-.324l-.382.024c.007.104 0 .166.007.214.042.257.016.499.044.756.043.406.016.821.053 1.228l.036.385.014.191.003.047.001.015.001.007v.008l.002.004v.002c.017.024-.04-.057.049.1.648-.18.185-.118.327-.136v-.02l-.006-.039a.387.387 0 0 0-.027-.089c-.017-.028-.042-.113-.18-.142l-.026.19-.003.026z" fill="#2B81BB"/><path d="M22.283 39.163a2.4 2.4 0 0 1-.867.433c.005-.042.01-.084.013-.126l.024-.386c.023-.322-.032-.65-.061-.968-.018-.178-.025-.356-.018-.534.005-.057-.01-.122-.012-.179l-.01-.163a9.031 9.031 0 0 0 .755-.295v.013c.034.218.02.42.042.638.037.342.027.691.06 1.035l.03.324.014.161c.002.035 0 .032 0 .037a.133.133 0 0 0 .03.01M21.226 39.213c.002.119 0 .24-.01.359 0 .03-.005.057-.007.086-.34.11-.65.235-.988.302-.047-.099-.02-.532-.01-.67.022-.295-.005-.6-.015-.894a5.688 5.688 0 0 1 .005-.5c.005-.055-.007-.114-.012-.168a1.55 1.55 0 0 0-.022-.196c.307-.047.61-.116.913-.208.03.25.03.483.067.723.06.39.071.785.079 1.166M19.01 40.15c-.049-.093-.03-.53-.017-.665.028-.29.008-.592.013-.881.002-.166.015-.33.037-.493.007-.054 0-.113.002-.168 0-.062 0-.158-.012-.287a45.44 45.44 0 0 0 .861-.087c.003.035.003.062.007.084.043.228.03.44.055.669.037.359.015.725.025 1.086.007.198.015.396.007.587a3.588 3.588 0 0 0-.577.099c-.13.024-.26.054-.393.07-.002-.006-.005-.008-.007-.013M18.81 40.168c.003.003.01.005.015.008-.374.007-.74-.035-1.109-.05h-.067a.144.144 0 0 0-.017-.054c-.044-.092-.008-.513.008-.644.032-.282.017-.574.022-.856a4.5 4.5 0 0 1 .032-.48c.005-.052-.003-.11-.003-.161 0-.055-.002-.131-.015-.23.162-.01.322-.018.483-.008.097.01.34.002.61-.012 0 .079-.008.126-.003.165.02.228-.008.441.002.669.017.361-.015.727-.002 1.089.002.111.007.227.01.341l.004.169V40.168h.03zM16.367 37.631c.399.057.8.09 1.037.082.003.06 0 .099.005.13.025.221.003.427.015.645.018.349-.017.7-.017 1.046 0 .196.002.394-.01.587-.34-.002-.68 0-1.02-.037a.079.079 0 0 0-.01-.02c-.05-.094-.034-.525-.022-.66.022-.288 0-.585.003-.872 0-.163.012-.327.032-.49.007-.052 0-.111 0-.163 0-.055 0-.139-.013-.248M16.117 39.525c.005.175.017.353.017.527-.158-.02-.321-.005-.477-.037a4.676 4.676 0 0 1-.44-.12l-.016-.027c-.054-.09-.056-.54-.054-.678.01-.3-.027-.604-.04-.9a4.904 4.904 0 0 1 .01-.508c.005-.054-.004-.114-.007-.168-.003-.055-.005-.136-.02-.24.028.004.055.01.082.015.101.024.51.128.973.207h-.047c.002.092-.003.146 0 .189.022.225 0 .435.012.663.02.356-.01.718.007 1.077M14.417 37.23c.146.047.294.074.443.102l-.045.002c.008.094.003.151.01.193.033.235.02.453.043.686.036.366.024.742.059 1.11.015.164.03.333.042.496-.154-.05-.317-.106-.458-.156a4.12 4.12 0 0 0-.359-.121c-.126-.04-.262-.072-.378-.136-.04-.122-.013-.552-.003-.69.027-.308.005-.624 0-.934a5.222 5.222 0 0 1 .02-.522c.005-.057-.005-.119-.008-.176 0-.025-.002-.054-.005-.089.21.087.426.161.639.235M13.54 38.839c.006.141.008.285.008.426a4.833 4.833 0 0 1-.267-.176c-.17-.129-.322-.282-.366-.371l-.075-.137-.047-.138c-.025-.047-.012-.094-.022-.141a.67.67 0 0 1-.008-.16c.003-.244.003-.486.01-.724.01-.27.035-.537.08-.804.005-.042.007-.084.007-.129a2.89 2.89 0 0 0 .631.386c.003.055.003.092.008.124.032.24.015.463.034.703.027.379 0 .762.008 1.14" fill="#FAE0AC"/><path d="M23.04 35.734a.996.996 0 0 0-.043.125c-.098.22-.28.4-.475.552-.209.144-.427.271-.663.392-.756.393-1.626.52-2.461.656-1.367.201-2.783.088-4.113-.221-.478-.116-.956-.227-1.413-.393-.453-.166-.905-.4-1.192-.765-.021-.03-.041-.061-.06-.091a.76.76 0 0 1-.1-.578c.054-.218.219-.415.409-.586.303-.26.65-.52 1.048-.672.814-.3 1.67-.508 2.546-.605.388-.044.773-.069 1.166-.096.404-.028.81-.034 1.215-.022.727.027 1.431.185 2.122.395.437.135.85.315 1.216.555.364.238.693.547.824.918.016.044.02.201.026.201h-.041a8.545 8.545 0 0 1-.01.235" fill="#F8D593"/><path d="M23.04 35.734a.996.996 0 0 0-.043.125c-.098.22-.28.4-.475.552-.209.144-.427.271-.663.392-.756.393-1.626.52-2.461.656-1.367.201-2.783.088-4.113-.221-.478-.116-.956-.227-1.413-.393-.453-.166-.905-.4-1.192-.765-.021-.03-.041-.061-.06-.091a.76.76 0 0 1-.1-.578c.054-.218.219-.415.409-.586.303-.26.65-.52 1.048-.672.814-.3 1.67-.508 2.546-.605.388-.044.773-.069 1.166-.096.404-.028.81-.034 1.215-.022.727.027 1.431.185 2.122.395.437.135.85.315 1.216.555.364.238.693.547.824.918.016.044.02.201.026.201h-.041a8.545 8.545 0 0 1-.01.235z" stroke="#FAE0AC"/><path d="M23.017 37.16l.012-.042c.028-.014.056-.026.083-.041.33-.177.173-.72-.187-.713-.058 0-.116.002-.173.003a.377.377 0 0 0-.322.202 8.532 8.532 0 0 1-1.655.607c-.365.03-.73.062-1.094.093a.314.314 0 0 0-.076-.001l-1.046.098a.381.381 0 0 0-.146.043c-.588.048-1.177.063-1.776.04a.318.318 0 0 0-.281.137.507.507 0 0 0-.084.04c-.036-.128-.118-.243-.253-.275a.392.392 0 0 0-.3.054c-.02-.001-.04-.006-.06-.005a.372.372 0 0 0-.338-.107.356.356 0 0 0-.387.075l-.007-.1c-.016-.363-.426-.458-.63-.284-.128-.109-.367-.263-.516-.142-.026-.023-.036.115-.065.093-.12-.091-.245-.165-.381-.172l-.06-.224c-.112-.427-.708-.323-.729.101-.029.596-.073 1.42.205 1.966.228.447.736.798 1.195.943.085.027.17.297.236.27.092.03.082-.017.179 0l.12-.068c.076.394.585.553.718.258.193.231.505.188 1.071.185.035.105.107.06.235.078a5.997 5.997 0 0 0 2.165-.065c.044.045.097.08.156.09.593.103 1.205-.095 1.79-.372.025.006.048.015.075.015.682.004 1.214-.252 1.611-.766a.403.403 0 0 0 .08-.025c.718-.322 1.005-1.03.771-1.792a.375.375 0 0 0-.136-.198" fill="#F8D593"/><path d="M23.013 35.664c0 1.047-2.07 1.896-4.623 1.896-2.553 0-4.623-.85-4.623-1.896 0-1.047 2.07-1.895 4.623-1.895 2.554 0 4.623.848 4.623 1.895" fill="#FCE2AE"/><path d="M23.013 35.664c0 1.047-2.07 1.896-4.623 1.896-2.553 0-4.623-.85-4.623-1.896 0-1.047 2.07-1.895 4.623-1.895 2.554 0 4.623.848 4.623 1.895z" stroke="#F8D593"/><path d="M23.497 35.492c-.005-.239-.064-.517-.211-.73-.133-.23-.32-.404-.517-.566a3.296 3.296 0 0 0-1.304-.6c-.94-.202-1.832-.4-2.772-.436-.637-.023-1.286.085-1.917.076-.86-.002-1.535.295-2.31.465-.527.128-.973.444-1.42.748-.238.162-.474.356-.636.644-.17.285-.17.703.003 1 .229.393.585.612.926.787.35.167.706.283 1.06.41.248.081.513.092.763.143.105.027.53.146 1.006.234.474.087.997.14 1.266.117.243-.02.485-.055.727-.028.222.043 1.24-.065 1.56-.095.688-.035 1.38-.232 2.038-.48.373-.14.744-.294 1.12-.526.126-.068.226-.213.33-.322.052-.08.13-.169.188-.308.028-.073.057-.15.08-.237a2.71 2.71 0 0 0 .02-.294l-.64-.002c-.008.139-.065.211-.08.278-.076.183-.247.337-.428.467-.195.123-.402.23-.624.34-.71.356-1.55.446-2.345.572-1.305.192-2.663.064-3.927-.222-.452-.109-.907-.194-1.345-.33-.43-.134-.864-.332-1.119-.641-.286-.376-.114-.691.252-.977.275-.21.59-.46.97-.588.775-.25 1.586-.444 2.422-.53.371-.04.737-.064 1.114-.098.386-.036.774-.05 1.164-.048.697.012 1.368.167 2.028.35.42.118.81.285 1.15.5.343.21.636.484.751.772.014.034.015.155.02.155h.637z" fill="#2B81BB"/><path d="M22.805 35.492c-.028.484-.12 1.179-.017 1.785.055.324.067.644.068.965 0 .206-.143.415-.342.61-.271.26-.626.555-1.042.653-.554.12-.983.405-1.533.433-.364.017-.703.186-1.071.193-.387.003-.77-.068-1.15-.086-.505-.017-1.018.037-1.52-.047-.174-.034-.359.006-.532-.029a6.863 6.863 0 0 1-.676-.21c-.31-.11-.633-.243-.81-.284-.157-.04-.33-.064-.453-.174-.06-.045-.238-.147-.407-.267-.165-.124-.31-.273-.348-.358a1.628 1.628 0 0 0-.063-.13c-.012-.044-.022-.087-.037-.128-.022-.041-.008-.083-.018-.122a.676.676 0 0 1-.006-.155c.002-.242-.002-.484.01-.723a4.6 4.6 0 0 1 .108-.804c.02-.087.003-.184.008-.272a2.763 2.763 0 0 0-.01-.403l-.156.29c.005-.007.027-.027.049-.047l-.36-.528-.057.038-.121.082-.007.157c-.004.114-.016.183-.01.24.04.376-.029.723-.011 1.097.014.295-.002.593-.02.89-.008.064 0 .175.012.278.004.106.047.194.08.289.074.18.185.336.312.454.407.396.868.628 1.33.838a8.62 8.62 0 0 0 1.428.475c.7.165 1.425.061 2.121.104.402.028.807.078 1.214.077.312 0 .61-.102.92-.125.633-.042 1.25-.206 1.86-.426.27-.094.533-.218.78-.386.251-.174.494-.37.693-.629.172-.223.346-.492.357-.82.015-.267.017-.502.016-.757-.009-.638.086-1.232.043-1.87-.002-.037.005-.168.005-.168h-.637z" fill="#2B81BB"/><path d="M15.22 40.05a.297.297 0 0 0-.054-.139c-.075-.098-.062-.57-.05-.717.027-.315-.013-.637-.017-.952-.002-.178.01-.355.037-.534.008-.058-.005-.122-.006-.18a1.76 1.76 0 0 0-.029-.31l-.383.016c.005.1-.003.158.004.204.038.246.008.477.032.723.037.388.005.784.035 1.174.02.244.045.493.048.73l.383-.015zM22.325 39.261c.002-.003-.006.017-.035.033-.02.015-.09.038-.097.04.004 0 .01.004.016.008.005 0-.006.002.013 0 .015 0 .087-.01.135-.009l.111-.013.053-.003h.005c-.003-.002-.007-.01-.012-.014-.076-.091-.068-.537-.056-.677.023-.299-.02-.602-.027-.9a3 3 0 0 1 .03-.506c.01-.055-.005-.115-.006-.17a1.605 1.605 0 0 0-.033-.292l-.382.025c.006.093-.002.149.006.192.04.232.013.45.04.683.04.366.012.741.046 1.11l.034.346.014.173.002.042.001.014v.007l.002.007v.006c.018.024-.04-.057.05.1.648-.18.185-.118.327-.136l-.001-.018-.005-.038c-.005-.024-.01-.048-.026-.084-.015-.027-.04-.11-.177-.14l-.025.19-.003.024z" fill="#2B81BB"/><path d="M36.512 39.44a2.4 2.4 0 0 1-.784.408c-.027.007-.055.015-.082.025.005-.042.01-.085.012-.127l.025-.386c.022-.321-.032-.65-.062-.968a3.808 3.808 0 0 1-.017-.534c.005-.057-.01-.121-.012-.178l-.01-.164a9.032 9.032 0 0 0 .754-.294v.012c.035.218.02.42.043.639.037.341.027.69.06 1.034l.029.325.015.16c.002.035 0 .033 0 .037a.133.133 0 0 0 .03.01M35.455 39.489c.003.119 0 .24-.01.359 0 .03-.004.057-.007.087-.339.108-.648.235-.987.302-.048-.1-.02-.533-.01-.671.022-.295-.005-.6-.015-.894a5.688 5.688 0 0 1 .005-.5c.005-.054-.008-.114-.013-.168a1.55 1.55 0 0 0-.022-.196c.307-.047.611-.116.913-.207.03.25.03.482.067.722.06.391.072.785.08 1.166M33.24 40.427c-.05-.094-.03-.53-.017-.666.027-.29.007-.591.012-.88.003-.167.015-.33.038-.493.007-.055 0-.114.002-.169 0-.062 0-.158-.013-.287a45.44 45.44 0 0 0 .862-.087c.002.035.002.062.007.085.042.227.03.44.055.668.037.359.015.725.025 1.086.007.199.014.397.007.587a3.588 3.588 0 0 0-.577.099c-.131.025-.26.055-.393.07l-.008-.013M33.04 40.444c.002.003.01.005.015.008-.374.007-.74-.035-1.11-.05h-.066a.144.144 0 0 0-.017-.054c-.045-.092-.008-.513.007-.644.032-.282.017-.574.022-.856a4.5 4.5 0 0 1 .033-.48c.005-.052-.003-.11-.003-.161 0-.054-.002-.131-.015-.23.161-.01.322-.018.483-.008.096.01.339.003.609-.012 0 .08-.008.126-.003.166.02.228-.007.44.003.668.017.361-.015.728-.003 1.09.003.11.008.227.01.34.003.057.003.112.005.169V40.444h.03zM30.597 37.907c.398.057.8.09 1.037.082.002.06 0 .099.005.131.025.22.002.426.015.644.017.349-.018.7-.018 1.047 0 .195.003.393-.01.586-.338-.002-.68 0-1.019-.037a.079.079 0 0 0-.01-.02c-.05-.094-.035-.524-.022-.66.022-.287 0-.584.002-.872 0-.163.012-.326.032-.49.008-.052 0-.111 0-.163 0-.054 0-.139-.012-.248M30.347 39.8c.005.177.017.355.017.528-.158-.02-.322-.005-.477-.037a4.676 4.676 0 0 1-.44-.119l-.016-.027c-.054-.092-.057-.54-.054-.678.01-.3-.028-.604-.04-.901a4.904 4.904 0 0 1 .01-.507c.005-.055-.005-.114-.007-.169-.003-.054-.005-.136-.02-.24l.082.015c.101.025.51.128.972.208h-.047c.003.091-.002.146 0 .188.022.225 0 .436.012.663.02.356-.01.718.008 1.077M28.647 37.506c.146.047.294.075.443.102l-.045.002c.007.095.002.151.01.193.032.236.02.454.042.686.037.366.025.743.06 1.111.014.164.03.332.042.495-.154-.05-.317-.106-.458-.156a4.27 4.27 0 0 0-.36-.121c-.126-.04-.262-.072-.378-.136-.04-.121-.012-.552-.002-.69.027-.307.004-.624 0-.934a5.222 5.222 0 0 1 .02-.522c.004-.057-.006-.119-.008-.176 0-.024-.003-.054-.005-.089.21.087.426.161.639.235M27.77 39.115c.005.141.008.285.008.426a4.833 4.833 0 0 1-.267-.176c-.171-.128-.322-.282-.367-.371-.024-.047-.05-.092-.074-.136l-.047-.139c-.025-.047-.012-.094-.022-.14a.67.67 0 0 1-.008-.162c.003-.242.003-.485.01-.722.01-.27.035-.537.08-.805.004-.042.007-.084.007-.129a2.89 2.89 0 0 0 .631.387c.002.054.002.091.008.123.031.24.014.463.034.703.027.379 0 .763.007 1.141" fill="#FAE0AC"/><path d="M37.27 36.01a.996.996 0 0 0-.043.125c-.098.22-.28.4-.476.553-.208.143-.426.27-.662.392-.756.392-1.627.52-2.462.655-1.366.202-2.782.088-4.113-.221-.478-.116-.955-.227-1.412-.393-.453-.166-.905-.4-1.193-.765l-.059-.091a.76.76 0 0 1-.1-.578c.054-.218.219-.414.408-.586.304-.26.65-.519 1.049-.671.814-.301 1.67-.509 2.546-.605.388-.044.773-.07 1.166-.097.403-.028.81-.033 1.215-.022.727.027 1.431.185 2.122.395.437.135.85.315 1.215.556.365.237.694.546.825.917.015.044.02.202.025.202h-.04a8.545 8.545 0 0 1-.01.235" fill="#F8D593"/><path d="M37.27 36.01a.996.996 0 0 0-.043.125c-.098.22-.28.4-.476.553-.208.143-.426.27-.662.392-.756.392-1.627.52-2.462.655-1.366.202-2.782.088-4.113-.221-.478-.116-.955-.227-1.412-.393-.453-.166-.905-.4-1.193-.765l-.059-.091a.76.76 0 0 1-.1-.578c.054-.218.219-.414.408-.586.304-.26.65-.519 1.049-.671.814-.301 1.67-.509 2.546-.605.388-.044.773-.07 1.166-.097.403-.028.81-.033 1.215-.022.727.027 1.431.185 2.122.395.437.135.85.315 1.215.556.365.237.694.546.825.917.015.044.02.202.025.202h-.04a8.545 8.545 0 0 1-.01.235z" stroke="#FAE0AC"/><path d="M37.247 37.435l.012-.04c.028-.015.056-.027.083-.042.33-.177.173-.72-.187-.713l-.174.003a.377.377 0 0 0-.321.202 8.532 8.532 0 0 1-1.656.607l-1.093.094a.314.314 0 0 0-.076-.002l-1.046.098a.381.381 0 0 0-.146.043c-.589.048-1.178.063-1.776.041a.318.318 0 0 0-.281.136.507.507 0 0 0-.085.041c-.035-.128-.117-.244-.253-.276a.392.392 0 0 0-.3.054c-.02-.001-.04-.006-.059-.005a.372.372 0 0 0-.338-.107.356.356 0 0 0-.387.076l-.007-.101c-.016-.363-.427-.458-.63-.284-.129-.108-.368-.263-.516-.142-.026-.023-.036.115-.066.093-.12-.09-.245-.164-.38-.172l-.06-.224c-.112-.427-.709-.322-.729.102-.029.595-.074 1.419.205 1.965.228.448.735.798 1.195.943.085.028.17.298.236.27.091.03.082-.017.178 0l.121-.067c.076.394.585.552.717.257.194.232.505.188 1.072.185.034.105.106.06.235.078a5.997 5.997 0 0 0 2.165-.065c.044.045.097.08.156.09.593.104 1.205-.095 1.79-.372.025.007.048.015.075.015.681.004 1.213-.252 1.61-.766a.403.403 0 0 0 .08-.025c.718-.322 1.006-1.03.772-1.792a.375.375 0 0 0-.136-.198" fill="#F8D593"/><path d="M37.243 35.94c0 1.048-2.07 1.896-4.623 1.896-2.553 0-4.623-.848-4.623-1.895 0-1.047 2.07-1.896 4.623-1.896 2.553 0 4.623.849 4.623 1.896" fill="#FCE2AE"/><path d="M37.243 35.94c0 1.048-2.07 1.896-4.623 1.896-2.553 0-4.623-.848-4.623-1.895 0-1.047 2.07-1.896 4.623-1.896 2.553 0 4.623.849 4.623 1.896z" stroke="#F8D593"/><path d="M37.727 35.768c-.006-.238-.065-.517-.211-.73-.133-.23-.321-.404-.517-.566a3.296 3.296 0 0 0-1.305-.6c-.94-.201-1.832-.4-2.772-.436-.636-.023-1.285.085-1.916.077-.86-.002-1.536.294-2.31.464-.527.128-.973.444-1.42.749-.238.161-.474.356-.637.644-.17.284-.17.702.004 1 .228.393.585.612.926.786.349.167.706.283 1.06.41.248.081.512.092.763.143.105.027.53.147 1.005.234.475.087.997.14 1.267.117.243-.02.485-.055.727-.028.222.043 1.24-.065 1.56-.095.687-.035 1.38-.231 2.038-.48.373-.14.744-.293 1.12-.525.126-.069.226-.214.33-.322.051-.08.129-.17.188-.309.028-.072.057-.15.08-.236a2.71 2.71 0 0 0 .019-.295l-.638-.002c-.01.139-.066.212-.082.279-.076.183-.246.337-.428.466-.194.123-.401.231-.624.34-.71.356-1.55.446-2.345.573-1.304.192-2.662.063-3.926-.223-.452-.108-.908-.193-1.345-.33-.431-.133-.864-.332-1.12-.64-.285-.377-.113-.692.252-.978.276-.21.59-.46.97-.587.776-.251 1.586-.445 2.423-.53.37-.04.737-.064 1.114-.1.386-.034.774-.049 1.164-.047.697.012 1.368.167 2.028.35.419.118.81.285 1.15.5.342.21.636.485.751.772.014.035.014.156.02.155h.637z" fill="#2B81BB"/><path d="M37.035 35.768c-.028.485-.12 1.18-.017 1.786.054.323.067.644.068.964-.001.206-.143.415-.342.61-.272.26-.626.556-1.043.653-.554.121-.983.405-1.533.433-.363.017-.702.187-1.07.193-.387.003-.77-.068-1.151-.086-.505-.017-1.017.037-1.52-.047-.174-.034-.358.007-.532-.028a6.863 6.863 0 0 1-.675-.21c-.31-.11-.634-.244-.81-.284-.157-.041-.33-.065-.454-.175-.06-.045-.237-.146-.406-.266-.165-.124-.31-.273-.348-.359a1.628 1.628 0 0 0-.063-.13c-.012-.044-.023-.087-.038-.128-.022-.04-.007-.082-.017-.122a.676.676 0 0 1-.007-.155c.002-.242-.001-.484.01-.722a4.6 4.6 0 0 1 .109-.804c.02-.088.003-.185.007-.273a2.763 2.763 0 0 0-.01-.403l-.156.29c.006-.007.027-.027.05-.047l-.36-.528-.057.038-.122.082-.006.157c-.004.114-.016.183-.01.24.04.376-.029.723-.012 1.097.014.295-.002.593-.019.891-.009.063 0 .175.012.277.004.106.046.195.08.289.074.18.185.337.311.455.408.395.868.628 1.33.837a8.62 8.62 0 0 0 1.43.475c.7.165 1.423.061 2.12.104.401.028.807.078 1.214.077.312.001.61-.102.92-.125.633-.042 1.25-.206 1.86-.425.27-.095.532-.219.78-.387.25-.174.494-.37.692-.629.173-.223.346-.492.358-.82.014-.267.017-.502.016-.757-.01-.638.085-1.232.043-1.87-.003-.036.004-.168.004-.168h-.636z" fill="#2B81BB"/><path d="M29.45 40.326a.3.3 0 0 0-.054-.138c-.076-.099-.062-.57-.05-.717.026-.315-.014-.638-.017-.953-.002-.178.01-.355.036-.534.009-.058-.004-.121-.005-.18a1.76 1.76 0 0 0-.03-.309l-.383.016c.006.099-.003.158.005.203.037.246.008.477.032.723.037.389.004.784.035 1.174.02.244.045.493.048.73l.383-.015zM36.555 39.538c.002-.003-.006.016-.036.033-.02.015-.09.038-.096.04.003 0 .01.004.015.007.006 0-.006.002.014 0 .015 0 .087-.01.135-.009l.111-.013.053-.003h.005c-.004-.002-.007-.009-.012-.014-.076-.09-.068-.537-.057-.677.023-.298-.02-.602-.027-.9a3 3 0 0 1 .032-.505c.008-.056-.006-.115-.007-.17a1.605 1.605 0 0 0-.033-.293l-.382.025c.006.093-.002.15.006.193.04.231.013.45.04.682.04.366.011.742.046 1.11l.034.346.013.173.003.043v.013l.001.007.001.008v.004l.001.002c.018.024-.04-.058.05.099.647-.18.185-.117.327-.135l-.002-.02-.005-.036a.387.387 0 0 0-.025-.085c-.016-.026-.04-.11-.178-.14l-.024.19-.003.025z" fill="#2B81BB"/><path d="M29.78 35.982a2.396 2.396 0 0 1-.867.433c.005-.042.01-.085.013-.126l.024-.387c.022-.321-.032-.65-.061-.967-.018-.179-.025-.357-.018-.535.005-.057-.01-.121-.012-.178l-.01-.164a9.032 9.032 0 0 0 .755-.294v.012c.034.218.02.421.042.639.037.341.027.69.06 1.034l.03.325.014.16c.002.035 0 .033 0 .038a.133.133 0 0 0 .03.01M28.723 36.031c.002.119 0 .24-.01.359 0 .03-.005.057-.008.087-.339.109-.648.235-.987.302-.047-.1-.02-.533-.01-.671.022-.295-.005-.6-.015-.894a5.688 5.688 0 0 1 .005-.5c.005-.054-.007-.114-.012-.168a1.55 1.55 0 0 0-.023-.196c.307-.047.611-.116.913-.207.03.25.03.482.067.722.06.391.072.785.08 1.166M26.507 36.97c-.049-.095-.03-.53-.017-.667.027-.29.007-.591.012-.88.003-.166.015-.33.038-.493.007-.055 0-.114.002-.169 0-.062 0-.158-.012-.287a45.441 45.441 0 0 0 .861-.087c.003.035.003.062.007.085.043.227.03.44.055.668.037.359.015.725.025 1.087.007.198.015.396.007.586a3.588 3.588 0 0 0-.577.099c-.13.025-.26.055-.393.07l-.008-.013M26.307 36.986c.002.003.01.005.015.008-.374.007-.74-.035-1.109-.05h-.067a.144.144 0 0 0-.017-.054c-.045-.092-.008-.513.007-.644.033-.282.018-.574.023-.856a4.5 4.5 0 0 1 .032-.48c.005-.052-.003-.109-.003-.16 0-.055-.002-.132-.015-.231.161-.01.322-.017.483-.008.096.01.339.003.61-.012 0 .08-.008.126-.003.166.02.228-.008.44.002.668.017.361-.015.728-.002 1.09.002.11.007.227.01.34l.004.169V36.986h.03zM23.864 34.45c.398.056.8.089 1.037.081.003.06 0 .099.005.131.025.22.003.426.015.644.017.349-.017.7-.017 1.047 0 .195.002.393-.01.586-.34-.002-.681 0-1.02-.037a.079.079 0 0 0-.01-.02c-.05-.094-.035-.524-.022-.66.022-.287 0-.584.002-.872 0-.163.013-.326.033-.49.007-.052 0-.111 0-.163 0-.054 0-.139-.013-.248M23.614 36.343c.005.176.017.354.017.527-.158-.02-.321-.005-.477-.037a4.676 4.676 0 0 1-.44-.119l-.016-.027c-.054-.092-.056-.54-.054-.678.01-.3-.027-.604-.04-.901a4.904 4.904 0 0 1 .01-.507c.005-.055-.005-.114-.007-.169-.003-.054-.005-.136-.02-.24l.082.015c.101.025.51.129.972.208h-.047c.003.091-.002.146 0 .188.023.225 0 .436.013.663.02.357-.01.718.007 1.077M21.914 34.049c.146.046.294.074.443.1l-.045.003c.008.095.003.152.01.194.032.235.02.453.042.685.037.367.025.743.06 1.111.015.164.03.332.042.495-.154-.05-.317-.106-.458-.155a4.27 4.27 0 0 0-.359-.122c-.126-.04-.263-.072-.379-.136-.04-.121-.012-.552-.002-.69.027-.307.005-.624 0-.933a5.218 5.218 0 0 1 .02-.523c.005-.057-.005-.119-.008-.176 0-.024-.002-.054-.005-.088.21.086.426.16.639.235M21.038 35.657c.005.141.007.285.007.426a4.97 4.97 0 0 1-.267-.176c-.171-.128-.322-.282-.367-.371-.024-.047-.049-.091-.074-.136l-.047-.139c-.025-.047-.012-.094-.022-.14a.67.67 0 0 1-.008-.161c.003-.243.003-.486.01-.723.01-.27.035-.537.08-.805.004-.042.007-.084.007-.128a2.89 2.89 0 0 0 .631.386c.003.054.003.091.008.123.032.24.014.463.034.703.027.38 0 .763.008 1.141" fill="#FAE0AC"/><path d="M30.537 32.553a.996.996 0 0 0-.043.124c-.098.22-.28.4-.476.553-.208.143-.426.27-.662.392-.756.392-1.627.52-2.462.655-1.366.202-2.782.089-4.113-.221-.477-.116-.955-.227-1.412-.393-.453-.165-.905-.4-1.192-.765-.021-.03-.042-.06-.06-.091a.76.76 0 0 1-.1-.578c.054-.218.219-.414.409-.586.303-.26.65-.519 1.048-.671.814-.301 1.67-.508 2.546-.605.388-.044.773-.07 1.166-.097.403-.027.81-.033 1.215-.022.727.027 1.431.185 2.122.395.437.135.85.315 1.216.556.364.237.693.547.824.917.016.044.02.202.026.202h-.041a8.545 8.545 0 0 1-.01.235" fill="#F8D593"/><path d="M30.537 32.553a.996.996 0 0 0-.043.124c-.098.22-.28.4-.476.553-.208.143-.426.27-.662.392-.756.392-1.627.52-2.462.655-1.366.202-2.782.089-4.113-.221-.477-.116-.955-.227-1.412-.393-.453-.165-.905-.4-1.192-.765-.021-.03-.042-.06-.06-.091a.76.76 0 0 1-.1-.578c.054-.218.219-.414.409-.586.303-.26.65-.519 1.048-.671.814-.301 1.67-.508 2.546-.605.388-.044.773-.07 1.166-.097.403-.027.81-.033 1.215-.022.727.027 1.431.185 2.122.395.437.135.85.315 1.216.556.364.237.693.547.824.917.016.044.02.202.026.202h-.041a8.545 8.545 0 0 1-.01.235z" stroke="#FAE0AC"/><path d="M30.514 33.977l.012-.04c.028-.015.056-.027.083-.042.33-.177.173-.72-.187-.713l-.173.003a.377.377 0 0 0-.322.202 8.532 8.532 0 0 1-1.655.607l-1.094.094a.314.314 0 0 0-.076-.002l-1.046.098a.381.381 0 0 0-.146.043c-.589.048-1.177.064-1.776.041a.318.318 0 0 0-.281.136.507.507 0 0 0-.084.041c-.036-.128-.118-.244-.254-.276a.392.392 0 0 0-.3.055c-.02-.002-.04-.007-.059-.005a.372.372 0 0 0-.338-.108.356.356 0 0 0-.387.076l-.007-.101c-.016-.363-.426-.457-.63-.284-.128-.108-.367-.263-.516-.142-.026-.022-.036.115-.066.093-.12-.09-.245-.164-.38-.172l-.06-.224c-.112-.427-.708-.322-.729.102-.029.595-.074 1.419.205 1.965.229.448.736.798 1.195.943.085.028.17.298.236.27.092.03.082-.017.179 0l.12-.067c.076.394.585.552.717.257.194.232.506.188 1.072.185.035.105.107.06.235.078a5.997 5.997 0 0 0 2.165-.065c.044.046.097.08.156.09.593.104 1.205-.095 1.79-.371.025.006.048.015.075.015.682.004 1.213-.253 1.611-.767a.403.403 0 0 0 .08-.025c.717-.322 1.005-1.03.77-1.792a.375.375 0 0 0-.135-.198" fill="#F8D593"/><path d="M30.51 32.483c0 1.047-2.07 1.895-4.623 1.895-2.553 0-4.623-.848-4.623-1.895 0-1.047 2.07-1.896 4.623-1.896 2.554 0 4.623.849 4.623 1.896" fill="#FCE2AE"/><path d="M30.51 32.483c0 1.047-2.07 1.895-4.623 1.895-2.553 0-4.623-.848-4.623-1.895 0-1.047 2.07-1.896 4.623-1.896 2.554 0 4.623.849 4.623 1.896z" stroke="#F8D593"/><path d="M30.994 32.31c-.006-.238-.064-.517-.211-.73-.133-.23-.32-.404-.517-.566a3.296 3.296 0 0 0-1.304-.6c-.94-.201-1.833-.4-2.773-.436-.636-.023-1.285.085-1.916.077-.86-.002-1.536.294-2.31.464-.527.128-.973.444-1.42.749-.238.162-.474.356-.637.644-.169.285-.17.703.004 1 .229.393.585.612.926.786.349.167.706.283 1.06.41.248.082.513.092.763.143.105.027.53.147 1.005.234.475.088.997.14 1.267.117.243-.02.485-.055.727-.028.222.043 1.24-.065 1.56-.095.688-.035 1.38-.231 2.038-.48.373-.14.744-.293 1.12-.525.126-.069.226-.214.33-.322.051-.08.13-.17.188-.309.028-.072.057-.15.08-.236a2.71 2.71 0 0 0 .02-.295l-.64-.002c-.008.139-.065.212-.08.279-.077.183-.247.337-.429.466-.194.123-.4.231-.624.34-.71.356-1.549.446-2.344.573-1.305.192-2.663.063-3.927-.223-.452-.108-.908-.193-1.345-.33-.43-.133-.864-.332-1.119-.64-.286-.377-.114-.692.252-.978.275-.21.59-.46.97-.587.775-.251 1.585-.445 2.422-.53.37-.04.737-.064 1.114-.099.386-.035.774-.05 1.164-.048.697.012 1.368.167 2.028.35.419.118.81.285 1.15.5.342.211.636.485.751.772.014.035.014.156.02.155h.637z" fill="#2B81BB"/><path d="M30.302 32.31c-.028.485-.12 1.18-.017 1.786.055.324.067.644.068.964 0 .206-.143.416-.342.61-.271.26-.626.556-1.042.653-.554.121-.984.405-1.533.434-.364.016-.703.186-1.071.192-.387.003-.77-.068-1.151-.086-.504-.017-1.017.037-1.52-.047-.173-.034-.358.007-.532-.028a6.863 6.863 0 0 1-.675-.21c-.31-.11-.633-.243-.81-.284-.157-.041-.33-.065-.454-.175-.06-.045-.237-.146-.406-.266-.165-.124-.31-.273-.348-.358a1.628 1.628 0 0 0-.063-.13c-.012-.045-.023-.088-.038-.129-.021-.04-.007-.082-.017-.122a.676.676 0 0 1-.007-.155c.003-.242-.001-.484.01-.722a4.6 4.6 0 0 1 .109-.804c.02-.088.003-.185.008-.273a2.763 2.763 0 0 0-.01-.403l-.156.29c.005-.007.027-.027.049-.047l-.36-.528-.057.038-.122.082-.006.157c-.004.114-.016.183-.01.24.04.376-.029.723-.012 1.097.014.296-.001.593-.019.891-.009.063 0 .175.012.277.004.107.046.195.08.29.074.179.185.336.311.454.408.395.868.628 1.33.837a8.62 8.62 0 0 0 1.43.475c.7.165 1.424.062 2.12.105.401.027.807.077 1.214.077.312 0 .61-.103.92-.125.633-.043 1.25-.206 1.86-.426.27-.095.533-.219.78-.387.25-.174.494-.37.693-.629.172-.223.346-.492.357-.82.014-.267.017-.502.016-.757-.01-.638.085-1.232.043-1.87-.002-.036.004-.168.004-.168h-.636z" fill="#2B81BB"/><path d="M22.717 36.869a.3.3 0 0 0-.054-.14c-.076-.098-.062-.569-.05-.716.026-.315-.013-.638-.017-.953-.002-.178.01-.355.037-.533.008-.059-.005-.122-.006-.18a1.76 1.76 0 0 0-.03-.31l-.382.016c.005.099-.003.158.004.203.037.247.008.478.032.723.037.389.004.784.035 1.174.02.244.045.493.048.73l.383-.014zM29.822 36.08c.002-.003-.006.016-.036.033-.019.015-.09.038-.096.04.004 0 .01.004.015.007.006 0-.006.002.014 0 .015 0 .087-.01.135-.009l.111-.013.053-.003h.005l-.012-.014c-.076-.09-.068-.537-.057-.676.023-.3-.02-.603-.026-.9a3.003 3.003 0 0 1 .03-.506c.009-.056-.005-.115-.006-.17a1.605 1.605 0 0 0-.033-.292l-.382.024c.006.093-.002.15.006.193.04.231.013.45.04.682.04.366.011.742.046 1.11l.034.346.013.173.003.043.001.013v.007l.001.008v.004l.001.002c.018.024-.04-.058.05.099.648-.18.185-.117.327-.135l-.001-.019-.005-.037a.387.387 0 0 0-.026-.085c-.016-.026-.04-.11-.178-.14l-.024.19-.003.025z" fill="#2B81BB"/><path d="M28.246 31.875a2.4 2.4 0 0 1-.784.409c-.028.007-.055.015-.082.024.004-.041.01-.084.012-.126l.025-.386c.022-.321-.033-.65-.062-.968a3.808 3.808 0 0 1-.017-.534c.005-.057-.01-.122-.013-.179l-.01-.163a9.032 9.032 0 0 0 .755-.294v.012c.035.218.02.42.042.639.038.341.028.69.06 1.034l.03.325.014.16c.003.035 0 .033 0 .037a.133.133 0 0 0 .03.01M27.19 31.925c.002.119 0 .24-.01.359 0 .03-.006.057-.008.086-.34.11-.649.235-.988.302-.047-.099-.02-.532-.01-.67.023-.295-.005-.6-.014-.894a5.688 5.688 0 0 1 .004-.5c.005-.054-.007-.114-.012-.168a1.55 1.55 0 0 0-.022-.196c.307-.047.611-.116.913-.208.03.25.03.483.067.723.06.391.072.785.08 1.166M24.974 32.863c-.05-.094-.03-.53-.017-.666.027-.29.007-.591.012-.88.002-.167.015-.33.037-.493.008-.055 0-.114.003-.169 0-.062 0-.158-.013-.287a45.44 45.44 0 0 0 .862-.087c.002.035.002.062.007.084.042.228.03.441.054.669.038.359.015.725.025 1.086.008.198.015.397.008.587a3.588 3.588 0 0 0-.577.099c-.131.025-.26.054-.394.07-.002-.006-.005-.008-.007-.013M24.773 32.88c.003.003.01.005.015.008-.373.007-.74-.035-1.109-.05h-.066a.144.144 0 0 0-.018-.054c-.044-.092-.007-.513.008-.644.032-.282.017-.574.022-.856a4.5 4.5 0 0 1 .032-.48c.005-.052-.002-.11-.002-.161 0-.055-.003-.131-.015-.23.16-.01.322-.018.483-.008.096.01.338.003.609-.012 0 .079-.008.126-.003.166.02.228-.007.44.003.668.017.361-.015.728-.003 1.09l.01.34c.002.057.002.112.005.169V32.88H24.773zM22.33 30.343c.399.057.8.09 1.038.082.002.06 0 .099.005.131.024.22.002.426.014.644.018.349-.017.7-.017 1.046 0 .196.003.394-.01.587-.339-.002-.68 0-1.02-.037a.079.079 0 0 0-.01-.02c-.049-.094-.034-.525-.022-.66.023-.288 0-.585.003-.872 0-.163.012-.326.032-.49.007-.052 0-.111 0-.163 0-.055 0-.139-.012-.248M22.08 32.237c.006.176.018.354.018.527-.159-.02-.322-.005-.478-.037a4.676 4.676 0 0 1-.44-.12l-.015-.026c-.055-.092-.057-.54-.055-.678.01-.3-.027-.604-.04-.901a4.904 4.904 0 0 1 .01-.508c.006-.054-.004-.114-.007-.168-.002-.054-.005-.136-.02-.24l.082.015c.102.024.51.128.973.207h-.047c.002.092-.003.147 0 .189.022.225 0 .435.012.663.02.356-.01.718.008 1.077M20.38 29.942c.146.047.295.075.443.102l-.044.002c.007.094.002.151.01.193.032.236.02.453.042.686.037.366.025.742.059 1.111.015.163.03.332.042.495-.153-.05-.317-.106-.458-.156a4.269 4.269 0 0 0-.358-.121c-.127-.04-.263-.072-.38-.136-.039-.121-.012-.552-.002-.69.028-.307.005-.624 0-.934a5.222 5.222 0 0 1 .02-.522c.005-.057-.005-.119-.007-.176 0-.025-.003-.054-.005-.089.21.087.425.161.638.235M19.504 31.551c.005.141.008.285.008.426a4.833 4.833 0 0 1-.268-.176c-.17-.128-.322-.282-.366-.371l-.074-.136-.047-.139c-.025-.047-.013-.094-.023-.14a.67.67 0 0 1-.007-.162c.002-.243.002-.485.01-.723.01-.27.035-.536.079-.804.005-.042.008-.084.008-.129a2.89 2.89 0 0 0 .63.387c.003.054.003.091.008.123.032.24.015.463.035.703.027.379 0 .763.007 1.141" fill="#FAE0AC"/><path d="M29.004 28.446a.996.996 0 0 0-.044.125c-.097.22-.28.4-.475.552-.208.144-.426.271-.663.393-.755.392-1.626.52-2.461.655-1.367.202-2.782.088-4.113-.221-.478-.116-.956-.227-1.413-.393-.452-.166-.904-.4-1.192-.765-.02-.03-.041-.06-.059-.091a.76.76 0 0 1-.1-.578c.054-.218.218-.414.408-.586.303-.26.65-.52 1.049-.671.814-.301 1.67-.509 2.545-.605.388-.044.774-.07 1.167-.097.403-.028.809-.033 1.215-.022.727.027 1.43.185 2.122.395.436.135.85.315 1.215.555.365.238.694.547.825.918.015.044.02.201.025.201h-.041a8.545 8.545 0 0 1-.01.235" fill="#F8D593"/><path d="M29.004 28.446a.996.996 0 0 0-.044.125c-.097.22-.28.4-.475.552-.208.144-.426.271-.663.393-.755.392-1.626.52-2.461.655-1.367.202-2.782.088-4.113-.221-.478-.116-.956-.227-1.413-.393-.452-.166-.904-.4-1.192-.765-.02-.03-.041-.06-.059-.091a.76.76 0 0 1-.1-.578c.054-.218.218-.414.408-.586.303-.26.65-.52 1.049-.671.814-.301 1.67-.509 2.545-.605.388-.044.774-.07 1.167-.097.403-.028.809-.033 1.215-.022.727.027 1.43.185 2.122.395.436.135.85.315 1.215.555.365.238.694.547.825.918.015.044.02.201.025.201h-.041a8.545 8.545 0 0 1-.01.235z" stroke="#FAE0AC"/><path d="M28.98 29.871l.012-.04.084-.042c.329-.177.173-.72-.187-.713l-.174.003a.377.377 0 0 0-.322.202 8.532 8.532 0 0 1-1.655.607c-.364.03-.73.062-1.094.094a.314.314 0 0 0-.076-.002l-1.046.098a.381.381 0 0 0-.145.043c-.589.048-1.178.063-1.776.041a.318.318 0 0 0-.282.136.507.507 0 0 0-.084.041c-.035-.129-.117-.244-.253-.276a.392.392 0 0 0-.3.054c-.02-.001-.04-.006-.06-.005a.372.372 0 0 0-.337-.107.356.356 0 0 0-.388.075l-.006-.1c-.017-.363-.427-.458-.63-.284-.129-.108-.368-.263-.516-.142-.027-.023-.037.115-.066.093-.12-.091-.245-.164-.38-.172l-.06-.224c-.113-.427-.709-.323-.73.102-.028.595-.073 1.418.206 1.965.228.447.735.798 1.194.943.086.027.17.298.237.27.091.03.081-.017.178 0l.12-.067c.077.394.586.552.718.257.193.232.505.188 1.072.185.034.105.106.06.234.078a5.997 5.997 0 0 0 2.166-.065c.044.045.096.08.156.09.593.104 1.205-.095 1.79-.372.024.006.048.015.074.015.682.004 1.214-.252 1.612-.766a.403.403 0 0 0 .08-.025c.717-.322 1.004-1.03.77-1.792a.375.375 0 0 0-.136-.198" fill="#F8D593"/><path d="M28.977 28.376c0 1.047-2.07 1.896-4.623 1.896-2.553 0-4.623-.849-4.623-1.896 0-1.046 2.07-1.895 4.623-1.895 2.553 0 4.623.849 4.623 1.895" fill="#FCE2AE"/><path d="M28.977 28.376c0 1.047-2.07 1.896-4.623 1.896-2.553 0-4.623-.849-4.623-1.896 0-1.046 2.07-1.895 4.623-1.895 2.553 0 4.623.849 4.623 1.895z" stroke="#F8D593"/><path d="M29.46 28.204c-.005-.238-.064-.517-.21-.73-.134-.23-.321-.404-.517-.566a3.296 3.296 0 0 0-1.305-.6c-.94-.201-1.832-.4-2.772-.436-.636-.023-1.285.085-1.917.077-.859-.003-1.535.294-2.31.464-.526.128-.973.444-1.42.748-.237.162-.474.357-.636.645-.17.284-.17.702.004 1 .228.393.585.611.926.786.348.167.706.283 1.059.41.249.081.513.092.763.143.105.027.531.147 1.006.234.475.087.997.14 1.267.117.242-.02.485-.055.727-.028.222.043 1.24-.065 1.559-.095.688-.035 1.38-.232 2.039-.48.372-.14.743-.294 1.12-.525.126-.069.226-.214.33-.322.05-.08.129-.17.188-.31.027-.071.056-.15.08-.236a2.71 2.71 0 0 0 .019-.294l-.639-.002c-.009.139-.066.212-.081.279-.076.183-.247.337-.428.467-.195.122-.401.23-.624.34-.71.355-1.55.445-2.345.572-1.304.192-2.662.063-3.927-.223-.451-.108-.907-.194-1.344-.33-.431-.133-.865-.332-1.12-.64-.285-.377-.114-.692.252-.978.275-.21.59-.46.97-.588.775-.25 1.586-.444 2.423-.53.37-.04.736-.063 1.114-.098.385-.035.774-.05 1.163-.048.697.012 1.369.167 2.028.35.42.118.81.285 1.151.5.342.21.636.484.75.772.014.035.015.156.021.155h.637z" fill="#2B81BB"/><path d="M28.768 28.204c-.028.485-.119 1.18-.017 1.786.055.323.067.644.068.964 0 .206-.142.415-.341.61-.272.26-.626.555-1.043.653-.554.121-.983.405-1.533.433-.363.017-.703.187-1.07.193-.388.003-.77-.068-1.152-.086-.504-.017-1.016.037-1.52-.047-.173-.034-.358.007-.531-.029a6.863 6.863 0 0 1-.676-.21c-.31-.11-.633-.243-.81-.283-.156-.041-.33-.065-.453-.175-.06-.045-.237-.146-.407-.266-.164-.124-.31-.273-.347-.359a1.628 1.628 0 0 0-.063-.13c-.013-.044-.023-.087-.038-.128-.022-.04-.008-.082-.018-.122a.676.676 0 0 1-.006-.155c.002-.242-.002-.484.01-.722a4.6 4.6 0 0 1 .108-.805c.02-.087.004-.184.008-.272a2.763 2.763 0 0 0-.01-.403l-.156.29c.006-.007.027-.027.05-.047l-.36-.528-.057.038-.122.082-.006.157c-.005.114-.017.183-.01.24.04.376-.03.723-.012 1.097.014.295-.002.593-.02.891-.008.063 0 .175.012.277.004.106.047.194.08.29.074.179.186.335.312.454.408.395.868.628 1.33.837a8.62 8.62 0 0 0 1.429.475c.7.165 1.424.061 2.12.104.402.028.807.078 1.215.077.312.001.61-.102.92-.125.632-.042 1.25-.206 1.859-.426.27-.094.533-.218.78-.386.251-.174.495-.37.693-.629.172-.223.346-.492.358-.82.014-.267.017-.502.015-.757-.009-.638.086-1.232.044-1.87-.003-.036.004-.168.004-.168h-.637z" fill="#2B81BB"/><path d="M21.184 32.762a.297.297 0 0 0-.055-.138c-.075-.099-.062-.57-.05-.717.027-.315-.013-.638-.016-.953-.003-.178.01-.355.036-.534.009-.058-.005-.121-.005-.18-.001-.068-.005-.173-.03-.31l-.383.016c.006.1-.003.158.004.204.038.246.009.477.033.723.037.388.004.784.035 1.174.02.244.045.493.048.73l.383-.015zM28.288 31.974c.003-.003-.006.016-.035.032-.02.016-.09.038-.096.04.003 0 .009.005.015.008.005 0-.006.002.014 0 .015 0 .086-.01.135-.009l.11-.013.054-.003h.005c-.004-.002-.008-.009-.012-.014-.077-.09-.068-.537-.057-.677.023-.298-.02-.602-.027-.9a3.003 3.003 0 0 1 .031-.506c.008-.055-.006-.115-.007-.17a1.605 1.605 0 0 0-.032-.292l-.383.025c.007.094-.001.15.006.192.04.232.014.451.04.683.04.366.012.742.047 1.11l.033.346.014.173.002.043.002.013v.007l.001.008v.006c.018.024-.04-.058.05.099.648-.18.185-.117.328-.136l-.002-.018-.005-.037a.387.387 0 0 0-.025-.085c-.016-.026-.04-.11-.178-.14l-.025.19-.003.025z" fill="#2B81BB"/><path d="M34.248 35.362a2.395 2.395 0 0 1-.845-.262c-.024-.014-.049-.028-.075-.04.033-.026.066-.053.097-.08l.29-.258c.242-.213.434-.485.636-.731.113-.14.233-.271.364-.393.043-.037.078-.093.116-.135.026-.03.065-.072.108-.123a9.478 9.478 0 0 0 .744.321l-.01.01c-.127.178-.28.312-.418.483-.214.269-.466.51-.685.777l-.207.251-.103.125c-.022.027-.022.023-.026.027a.129.129 0 0 0 .014.028M33.462 34.654c-.082.086-.169.17-.26.248-.02.02-.043.037-.066.056-.317-.16-.626-.289-.914-.48.036-.103.36-.392.465-.484.223-.193.417-.429.617-.645.114-.122.23-.24.355-.352.042-.035.075-.087.11-.128.031-.036.075-.087.122-.155.25.182.516.347.795.494-.154.199-.318.364-.46.561-.233.32-.501.608-.764.885M31.227 33.763c.031-.102.352-.398.456-.486.223-.187.422-.415.629-.618.118-.116.242-.223.373-.324.043-.033.08-.08.12-.118.043-.044.111-.112.193-.212.213.175.42.342.529.43.047.039.093.077.144.114-.023.026-.042.046-.054.065-.13.191-.289.334-.431.513-.226.281-.5.526-.747.79a7.883 7.883 0 0 1-.407.422 3.566 3.566 0 0 0-.48-.335c-.11-.074-.222-.144-.328-.227l.003-.014M31.073 33.634c0 .004.003.01.005.016-.27-.258-.502-.545-.754-.815l-.047-.047a.158.158 0 0 0 .026-.05c.033-.098.355-.37.458-.453.221-.178.416-.397.618-.594.115-.112.233-.218.36-.318.04-.034.075-.08.112-.116.038-.04.09-.095.15-.174.122.106.242.213.35.334.061.075.239.24.441.419-.056.056-.094.084-.118.116-.146.176-.315.308-.469.477-.241.269-.522.507-.767.772-.077.081-.155.168-.233.25-.038.043-.077.081-.115.124l-.03.03-.007.006-.001.002.001.002.018.017.002.002zM31.12 30.112c.243.321.506.626.68.788-.04.044-.07.07-.089.097-.137.174-.298.304-.442.467-.233.26-.505.486-.748.733-.138.139-.275.281-.42.41-.24-.24-.484-.479-.699-.744a.077.077 0 0 0 .007-.02c.031-.102.344-.398.449-.486.218-.189.41-.416.614-.618.115-.116.239-.224.368-.326.042-.032.078-.079.115-.116.038-.039.097-.099.165-.185M29.61 31.283c-.12.128-.236.263-.358.387-.098-.126-.225-.23-.313-.362a4.728 4.728 0 0 1-.23-.395l.009-.03c.026-.103.339-.423.438-.52.218-.206.405-.449.605-.668.115-.124.235-.242.364-.354.042-.035.077-.085.113-.125.037-.04.092-.1.155-.184l.048.067c.054.09.272.45.545.832l-.033-.033c-.063.067-.105.102-.133.134-.142.176-.306.31-.457.48-.237.268-.512.504-.752.77M30.015 28.456c.071.136.158.26.244.384l-.033-.03c-.061.072-.105.109-.13.144-.142.19-.304.336-.451.517-.232.287-.505.546-.74.832-.104.127-.212.257-.318.382-.074-.144-.15-.299-.216-.433a4.137 4.137 0 0 0-.17-.339c-.062-.117-.136-.235-.173-.363.057-.114.38-.401.484-.493.235-.199.442-.44.656-.663.12-.125.247-.243.381-.357.044-.037.08-.088.118-.13.018-.018.037-.041.06-.067.088.21.19.413.288.616M28.261 28.984a11.94 11.94 0 0 1-.294.308 4.973 4.973 0 0 1-.067-.313c-.03-.212-.03-.427.001-.522.015-.05.03-.1.043-.149l.064-.131c.016-.051.057-.076.084-.117a.633.633 0 0 1 .107-.12c.173-.17.343-.342.516-.506a6.27 6.27 0 0 1 .621-.516c.034-.027.065-.055.096-.087.02.209.073.41.133.598.012.04.029.08.045.12-.037.041-.063.068-.082.094-.146.193-.315.34-.47.524-.247.289-.536.542-.797.817" fill="#FAE0AC"/><path d="M37.198 33.457a.971.971 0 0 0-.118.057c-.225.089-.48.088-.727.06a5.95 5.95 0 0 1-.747-.188c-.813-.252-1.521-.774-2.21-1.265-1.114-.818-2.04-1.894-2.769-3.05-.258-.418-.52-.833-.729-1.272-.204-.436-.36-.921-.309-1.383a1.55 1.55 0 0 1 .022-.106.76.76 0 0 1 .335-.481c.192-.118.447-.141.703-.13.398.029.827.088 1.217.26.79.359 1.545.813 2.236 1.36.307.242.598.495.897.752.306.264.599.545.88.839.497.53.887 1.138 1.23 1.773.216.403.383.822.473 1.25.093.425.109.876-.058 1.231-.02.043-.127.158-.124.162l-.002-.002-.027-.027c-.054.051-.11.104-.173.16" fill="#F8D593"/><path d="M37.198 33.457a.971.971 0 0 0-.118.057c-.225.089-.48.088-.727.06a5.95 5.95 0 0 1-.747-.188c-.813-.252-1.521-.774-2.21-1.265-1.114-.818-2.04-1.894-2.769-3.05-.258-.418-.52-.833-.729-1.272-.204-.436-.36-.921-.309-1.383a1.55 1.55 0 0 1 .022-.106.76.76 0 0 1 .335-.481c.192-.118.447-.141.703-.13.398.029.827.088 1.217.26.79.359 1.545.813 2.236 1.36.307.242.598.495.897.752.306.264.599.545.88.839.497.53.887 1.138 1.23 1.773.216.403.383.822.473 1.25.093.425.109.876-.058 1.231-.02.043-.127.158-.124.162l-.002-.002-.027-.027c-.054.051-.11.104-.173.16z" stroke="#FAE0AC"/><path d="M36.18 34.453l.037-.02c.03.009.058.02.089.029.358.105.628-.39.368-.64l-.126-.118a.377.377 0 0 0-.37-.083 8.5 8.5 0 0 1-1.604-.733l-.844-.702a.328.328 0 0 0-.052-.055l-.813-.666a.38.38 0 0 0-.134-.071 14.96 14.96 0 0 1-1.292-1.22.318.318 0 0 0-.295-.102.49.49 0 0 0-.09-.03c.066-.116.089-.256.015-.374a.392.392 0 0 0-.251-.173c-.014-.014-.024-.032-.039-.044a.372.372 0 0 0-.165-.315.356.356 0 0 0-.328-.218l.066-.076c.243-.27.019-.626-.249-.645-.015-.168-.076-.446-.267-.464-.002-.035-.106.056-.112.02-.02-.15-.058-.29-.15-.39l.116-.201c.22-.383-.277-.728-.59-.44-.44.402-1.05.956-1.236 1.54-.153.48-.039 1.085.186 1.512.041.078-.088.33-.022.358.044.085.07.045.127.125l.133.037c-.223.333.027.804.33.687-.026.3.226.489.631.885-.05.1.033.118.112.221.466.61.955 1.074 1.585 1.477 0 .063.013.124.048.173.348.49.923.78 1.534.995.013.021.024.044.042.063.482.482 1.04.673 1.685.588a.404.404 0 0 0 .074.038c.737.276 1.439-.026 1.808-.732a.375.375 0 0 0 .043-.236" fill="#F8D593"/><path d="M37.228 33.388c-.736.744-2.804-.108-4.62-1.903-1.815-1.796-2.69-3.855-1.953-4.6.736-.743 2.804.109 4.62 1.904 1.815 1.795 2.69 3.854 1.953 4.599" fill="#FCE2AE"/><path d="M37.228 33.388c-.736.744-2.804-.108-4.62-1.903-1.815-1.796-2.69-3.855-1.953-4.6.736-.743 2.804.109 4.62 1.904 1.815 1.795 2.69 3.854 1.953 4.599z" stroke="#F8D593"/><path d="M37.693 33.606c.164-.174.319-.413.364-.668.067-.257.056-.513.03-.766-.065-.5-.26-.964-.505-1.344-.527-.804-1.02-1.573-1.664-2.26-.436-.463-.974-.843-1.417-1.293-.61-.605-1.299-.87-1.969-1.294-.465-.28-1.004-.368-1.536-.467-.283-.052-.587-.08-.906.011-.32.084-.615.38-.7.714-.114.44-.014.846.105 1.21.13.364.304.698.465 1.036.12.233.3.427.442.639.056.093.275.477.55.874.277.395.611.8.82.973.186.157.382.303.536.492.127.187.927.825 1.175 1.029.514.459 1.145.806 1.787 1.092.364.163.735.314 1.166.414.138.04.31.007.46.003.094-.02.212-.03.352-.087.07-.032.146-.067.223-.112.072-.058.147-.124.22-.196l-.452-.45c-.104.092-.196.104-.254.14-.182.077-.412.067-.632.032a6.702 6.702 0 0 1-.683-.197c-.755-.246-1.415-.773-2.07-1.243-1.062-.78-1.937-1.827-2.634-2.92-.246-.394-.51-.775-.725-1.18-.212-.397-.38-.843-.345-1.242.062-.468.405-.572.866-.518.344.044.742.088 1.103.265.728.366 1.44.799 2.095 1.326.292.233.569.473.861.713.3.247.586.51.862.785.487.498.855 1.08 1.195 1.675.215.378.376.772.466 1.165.096.39.112.791-.009 1.077-.014.033-.099.12-.094.124l.452.448z" fill="#2B81BB"/><path d="M37.201 33.119c-.36.325-.913.754-1.267 1.257a5.936 5.936 0 0 1-.63.734c-.146.146-.393.195-.672.193-.376-.006-.835-.045-1.2-.269-.48-.304-.984-.404-1.395-.77-.27-.243-.63-.362-.897-.616-.277-.27-.5-.59-.758-.87-.346-.367-.749-.689-1.047-1.102-.1-.147-.26-.248-.358-.394a7.032 7.032 0 0 1-.333-.625c-.143-.297-.279-.618-.377-.772-.081-.139-.188-.277-.198-.443-.012-.074-.066-.27-.102-.475-.03-.204-.03-.412.004-.5.018-.045.034-.09.047-.136.022-.04.045-.078.063-.117.014-.045.053-.064.074-.1a.68.68 0 0 1 .104-.115c.172-.17.34-.344.515-.506a4.64 4.64 0 0 1 .643-.495c.075-.049.132-.129.197-.189s.158-.149.276-.293l-.315.097c.01-.002.038 0 .068 0l.116-.628-.067-.013-.145-.027-.114.107c-.084.078-.14.119-.176.164-.236.296-.53.493-.78.771-.198.22-.418.42-.64.62-.05.04-.123.125-.187.205-.072.08-.103.172-.146.262a1.33 1.33 0 0 0-.098.542c.012.568.175 1.057.357 1.531.188.472.419.919.681 1.343.382.61.97 1.045 1.435 1.565.266.302.52.623.809.909.221.22.506.356.742.558.48.414 1.034.732 1.621 1.004.26.124.533.22.827.275.3.052.611.084.934.04.28-.038.593-.107.831-.332.199-.18.366-.345.544-.527.442-.46.927-.816 1.346-1.3.024-.027.12-.116.12-.116l-.452-.447z" fill="#2B81BB"/><path d="M27.987 29.725a.293.293 0 0 0 .066-.13c.022-.12.373-.42.486-.51.244-.192.445-.44.662-.66.123-.124.253-.239.395-.346.046-.035.08-.089.12-.13.045-.05.114-.127.188-.241l-.29-.251c-.062.073-.107.109-.133.145-.138.2-.316.339-.467.523-.241.293-.542.535-.798.814-.16.174-.323.355-.494.51l.265.276zM28.603 31.026a.304.304 0 0 0 .06-.137c.015-.123.356-.449.468-.545.24-.206.439-.463.658-.69.124-.127.257-.245.401-.353.047-.035.082-.09.123-.132.047-.048.119-.126.197-.24l-.284-.259c-.065.075-.113.11-.14.148-.146.202-.33.345-.485.537-.247.302-.549.56-.801.86-.158.186-.314.381-.48.552l.283.259zM29.387 32a.29.29 0 0 0 .06-.134c.018-.12.36-.429.473-.52.241-.193.442-.44.662-.655.125-.121.258-.232.402-.333.048-.033.083-.085.124-.125.048-.047.12-.12.199-.23l-.276-.267c-.067.072-.114.105-.141.141-.148.193-.332.328-.49.51-.248.29-.551.533-.805.818-.159.18-.317.365-.484.528l.276.266zM30.272 32.892a.266.266 0 0 0 .057-.126c.016-.116.336-.39.443-.471.227-.172.414-.397.621-.59.117-.11.243-.21.38-.3.046-.028.078-.076.117-.112.045-.042.112-.109.185-.21l-.282-.258c-.062.063-.106.092-.132.125-.135.174-.308.292-.452.456-.23.26-.513.474-.748.73-.147.16-.293.328-.448.473l.26.283zM30.985 33.71c-.02 0-.036-.001-.057-.004-.02-.001-.063-.008-.063-.008l.001.007v.101c.004.013-.006.015.022.082a.174.174 0 0 0 .11.085c.084.011.08-.004.104-.009.09-.058.049-.046.061-.056l.005-.02c.023-.125.385-.445.505-.54.254-.2.469-.455.703-.678.132-.126.274-.242.426-.347.05-.034.088-.088.131-.13.05-.048.127-.124.213-.238l-.274-.269c-.07.074-.12.109-.15.146-.16.2-.353.34-.52.53-.267.298-.587.552-.858.847l-.256.279-.129.137-.032.033-.017.017.093.083v.001l.002.003.004.005.006.01.013.019a.02.02 0 0 1 .01.015c.005-.006.043-.005.09.003l.095.016.002-.008.006-.023c.004-.02.011-.036.014-.086l-.192-.003h-.07.002zM32.189 34.638a.272.272 0 0 0 .062-.127c.02-.116.355-.403.463-.49.233-.185.421-.427.624-.642.115-.121.237-.235.37-.34.044-.035.075-.088.111-.13.042-.047.106-.123.172-.236l-.3-.24c-.055.072-.098.107-.12.143-.124.194-.291.331-.43.511-.222.285-.506.519-.747.786-.151.168-.305.34-.47.487l.265.278zM33.162 34.969a.202.202 0 0 0-.255.017.212.212 0 0 0-.037.261c.008.025.078.082.062.065.044.027.042.02.067.028.16.014.18-.062.193-.08.053-.112.437-.406.55-.51.253-.21.44-.488.644-.731.115-.138.24-.265.378-.38.045-.036.077-.092.116-.134.045-.049.114-.125.19-.236l-.277-.265c-.068.078-.119.114-.146.154-.15.21-.326.37-.47.574-.227.324-.506.601-.761.876-.08.086-.163.17-.251.247-.043.04-.09.075-.135.11l-.035.027-.005.003.03.048a.29.29 0 0 1 .03.067c.004.016.002.026.002.026-.01.03-.007.006-.009.013.002.002.004-.001.008-.002.009-.002.013.003.002-.003-.012-.006-.008-.018-.013-.005.005-.006-.01.016.01-.014l.112-.156M34.21 35.461c.003 0-.016.008-.049-.001-.024-.003-.09-.037-.097-.04.003.003.004.01.006.016.004.005-.006-.002.01.01.01.01.068.054.102.089l.088.069.04.034.004.004c-.002-.004 0-.011 0-.018.01-.118.33-.43.436-.521.227-.196.41-.443.614-.66a2.98 2.98 0 0 1 .378-.337c.045-.033.077-.086.114-.126.045-.046.111-.12.183-.23l-.29-.252c-.06.071-.105.105-.13.141-.135.194-.308.33-.452.513-.229.29-.513.536-.747.822l-.22.27-.112.133-.028.032-.009.01-.004.006-.005.006-.002.003-.001.001c-.005.03.011-.068-.036.105.588.33.215.048.329.135l.012-.014.022-.03a.39.39 0 0 0 .042-.079c.007-.03.049-.106-.028-.223l-.152.117-.019.015z" fill="#2B81BB"/><path d="M47.659 47.275a2.66 2.66 0 0 1-.96.48c.006-.047.011-.093.014-.14l.027-.428c.025-.356-.035-.72-.068-1.071a4.25 4.25 0 0 1-.02-.593c.006-.063-.01-.134-.013-.197-.003-.044-.005-.107-.011-.18.14-.048.28-.1.417-.152.14-.054.282-.112.42-.175v.013c.038.242.021.466.046.708.041.378.03.765.065 1.146.011.118.023.238.033.359l.017.178c.003.038 0 .036 0 .041a.15.15 0 0 0 .033.011M46.488 47.33c.003.131 0 .266-.011.398 0 .032-.005.063-.008.096-.376.12-.718.26-1.094.334-.052-.11-.022-.59-.01-.743.024-.326-.006-.664-.017-.99a6.218 6.218 0 0 1 .005-.553c.006-.06-.008-.126-.014-.187a1.63 1.63 0 0 0-.024-.216c.34-.053.677-.13 1.011-.23.033.276.033.534.074.8.066.433.08.869.088 1.29M44.035 48.369c-.055-.104-.033-.587-.02-.738.03-.32.009-.655.014-.975.003-.184.017-.365.041-.546.008-.06 0-.126.003-.187 0-.068 0-.175-.014-.317a49.792 49.792 0 0 0 .954-.096c.003.038.003.068.008.093.047.252.033.488.06.74.042.397.017.803.028 1.203.008.22.017.44.008.65a3.98 3.98 0 0 0-.639.11c-.145.027-.287.06-.435.076l-.008-.013M43.813 48.388c.002.003.01.005.016.008-.414.009-.82-.038-1.228-.054h-.074a.169.169 0 0 0-.02-.06c-.049-.102-.008-.568.009-.713.036-.313.02-.637.025-.949.002-.178.013-.354.035-.532.006-.058-.002-.12-.002-.178 0-.06-.003-.145-.017-.255.178-.011.356-.02.534-.008.108.01.376.003.675-.014 0 .088-.008.14-.003.184.022.252-.008.488.003.74.019.4-.016.806-.003 1.206l.011.378.006.187v.06h.033zM41.107 45.578c.441.063.885.099 1.149.09.002.066 0 .11.005.146.027.244.003.471.016.713.02.386-.019.776-.019 1.16 0 .216.003.435-.01.649-.376-.003-.755 0-1.13-.041a.09.09 0 0 0-.011-.022c-.055-.104-.039-.581-.025-.732.025-.318 0-.647.003-.965 0-.18.014-.362.035-.543.009-.057 0-.123 0-.18 0-.061 0-.154-.013-.275M40.83 47.675c.005.195.02.392.02.584-.176-.022-.357-.005-.53-.041a5.14 5.14 0 0 1-.488-.131c-.005-.012-.01-.02-.017-.03-.06-.102-.063-.598-.06-.752.011-.331-.03-.669-.043-.998a5.465 5.465 0 0 1 .01-.562c.006-.06-.005-.126-.008-.186-.002-.06-.005-.15-.022-.266l.09.016c.113.028.565.143 1.078.23h-.052c.003.102-.003.163 0 .21.025.248 0 .482.014.734.022.395-.011.795.008 1.192M38.947 45.134c.161.052.326.082.49.113l-.05.002c.01.104.004.167.012.214.035.26.022.502.047.76.04.405.027.822.065 1.23.017.181.033.368.047.549-.17-.055-.351-.118-.507-.173a4.5 4.5 0 0 0-.398-.134c-.14-.045-.29-.08-.42-.151-.043-.135-.013-.612-.002-.765.03-.34.006-.691 0-1.033a5.812 5.812 0 0 1 .022-.579c.005-.063-.006-.132-.008-.195 0-.027-.003-.06-.006-.098.233.096.472.178.708.26M37.976 46.916c.006.156.008.315.008.471a5.25 5.25 0 0 1-.296-.194c-.189-.143-.356-.313-.405-.411a8.187 8.187 0 0 0-.083-.151l-.052-.153c-.027-.053-.013-.105-.024-.157a.697.697 0 0 1-.009-.178c.003-.269.003-.537.011-.8.011-.3.039-.596.088-.892.006-.046.008-.093.008-.142.179.148.376.266.57.367.042.022.085.041.13.06.002.06.002.102.008.137.035.267.016.513.038.78.03.419 0 .843.008 1.263" fill="#FAE0AC"/><path d="M48.498 43.477a1.026 1.026 0 0 0-.048.138c-.108.245-.31.444-.527.612-.23.16-.472.3-.734.435-.836.434-1.8.575-2.726.725-1.513.223-3.081.098-4.555-.245-.53-.128-1.059-.25-1.565-.434-.501-.184-1.002-.444-1.32-.848-.023-.034-.046-.068-.066-.101a.841.841 0 0 1-.111-.64c.06-.242.242-.459.452-.649.336-.287.72-.575 1.161-.743.902-.334 1.85-.564 2.82-.671.43-.049.857-.076 1.292-.107.447-.03.897-.037 1.346-.024.805.03 1.585.204 2.35.437.484.15.942.35 1.346.615.405.264.768.606.914 1.017.017.049.022.223.028.223H48.51c-.003.082-.006.168-.012.26" fill="#F8D593"/><path d="M48.498 43.477a1.026 1.026 0 0 0-.048.138c-.108.245-.31.444-.527.612-.23.16-.472.3-.734.435-.836.434-1.8.575-2.726.725-1.513.223-3.081.098-4.555-.245-.53-.128-1.059-.25-1.565-.434-.501-.184-1.002-.444-1.32-.848-.023-.034-.046-.068-.066-.101a.841.841 0 0 1-.111-.64c.06-.242.242-.459.452-.649.336-.287.72-.575 1.161-.743.902-.334 1.85-.564 2.82-.671.43-.049.857-.076 1.292-.107.447-.03.897-.037 1.346-.024.805.03 1.585.204 2.35.437.484.15.942.35 1.346.615.405.264.768.606.914 1.017.017.049.022.223.028.223H48.51c-.003.082-.006.168-.012.26z" stroke="#FAE0AC"/><path d="M48.472 45.055l.014-.045.092-.046c.364-.196.191-.797-.208-.79l-.192.004a.417.417 0 0 0-.356.224 9.415 9.415 0 0 1-1.833.671l-1.212.104a.345.345 0 0 0-.084-.001l-1.159.108a.429.429 0 0 0-.161.048 16.57 16.57 0 0 1-1.967.045.353.353 0 0 0-.312.151.577.577 0 0 0-.093.046c-.04-.143-.13-.27-.28-.306a.435.435 0 0 0-.333.06c-.022-.002-.043-.007-.065-.006a.411.411 0 0 0-.375-.119.394.394 0 0 0-.429.084l-.007-.111c-.019-.402-.472-.507-.698-.315-.142-.12-.407-.291-.571-.157-.03-.025-.04.127-.073.103-.133-.1-.271-.182-.422-.19l-.066-.249c-.124-.472-.784-.357-.807.113-.032.66-.082 1.571.227 2.176.253.496.815.885 1.323 1.045.094.03.188.33.262.3.1.032.09-.02.198 0l.133-.075c.084.436.648.611.795.284.213.257.559.209 1.186.205.039.117.118.067.26.087a6.642 6.642 0 0 0 2.399-.072.32.32 0 0 0 .172.1c.657.115 1.335-.106 1.983-.412.027.007.053.017.083.017.755.004 1.344-.28 1.784-.85a.458.458 0 0 0 .088-.027c.796-.356 1.114-1.14.854-1.985a.413.413 0 0 0-.15-.219" fill="#F8D593"/><path d="M48.468 43.4c0 1.16-2.292 2.1-5.12 2.1-2.828 0-5.12-.94-5.12-2.1 0-1.16 2.292-2.1 5.12-2.1 2.828 0 5.12.94 5.12 2.1" fill="#FCE2AE"/><path d="M48.468 43.4c0 1.16-2.292 2.1-5.12 2.1-2.828 0-5.12-.94-5.12-2.1 0-1.16 2.292-2.1 5.12-2.1 2.828 0 5.12.94 5.12 2.1z" stroke="#F8D593"/><g transform="translate(36.463 40.49)"><mask id="b" fill="#fff"><use xlink:href="#a"/></mask><path d="M12.504 2.718c-.007-.257-.07-.556-.23-.787-.145-.248-.35-.438-.564-.614a3.735 3.735 0 0 0-1.432-.663C9.244.422 8.256.207 7.218.166c-.703-.027-1.421.081-2.12.079C4.15.25 3.4.56 2.546.755c-.58.145-1.079.482-1.571.82-.261.18-.519.396-.693.71-.182.312-.18.763.008 1.085.25.427.639.67 1.013.863.384.186.778.316 1.168.456.275.089.566.106.843.163.116.03.587.159 1.113.252.525.094 1.102.15 1.4.128.27-.02.537-.054.805-.028.245.044 1.371-.072 1.724-.109.76-.045 1.525-.258 2.25-.533.411-.155.818-.328 1.226-.586.138-.076.247-.233.36-.351.055-.087.14-.183.204-.334.029-.078.06-.162.086-.255.012-.098.02-.206.022-.316l-.638-.002c-.01.162-.074.246-.093.323-.09.209-.282.381-.485.528-.217.138-.447.26-.696.38-.792.393-1.722.501-2.606.64-1.449.208-2.955.074-4.362-.239-.503-.119-1.01-.218-1.495-.373-.479-.153-.96-.377-1.25-.725-.154-.204-.205-.42-.144-.606.057-.188.221-.367.42-.528.31-.24.664-.51 1.087-.656a12.687 12.687 0 0 1 2.693-.59c.413-.045.82-.07 1.238-.106.429-.035.86-.048 1.292-.044.773.02 1.519.186 2.251.39.465.132.9.315 1.282.554.382.233.716.538.846.872.016.04.018.18.025.18h.636z" fill="#2B81BB" mask="url(#b)"/></g><path d="M48.275 43.209c-.028.536-.12 1.306-.018 1.977.055.359.067.714.068 1.069 0 .24-.164.48-.389.698-.307.292-.706.61-1.167.724-.613.143-1.095.44-1.703.478-.402.023-.78.197-1.188.207-.429.006-.854-.064-1.276-.082-.56-.018-1.128.032-1.686-.059-.193-.036-.397.002-.589-.037a8.1 8.1 0 0 1-.751-.226c-.346-.12-.706-.266-.902-.314-.172-.048-.363-.078-.502-.198-.068-.048-.265-.16-.454-.295-.184-.138-.348-.306-.392-.4a2.16 2.16 0 0 0-.073-.147c-.015-.05-.028-.099-.045-.146-.025-.047-.01-.095-.021-.141a.762.762 0 0 1-.008-.175c.003-.268 0-.536.011-.8.013-.298.05-.594.11-.89.02-.097.003-.205.008-.302a3.296 3.296 0 0 0-.01-.446l-.155.29c.006-.009.03-.03.055-.052l-.36-.528-.063.042-.122.083-.006.156c-.004.126-.016.203-.01.266.04.416-.03.8-.013 1.215.013.327-.003.657-.02.987-.01.071 0 .19.013.3.004.116.05.21.086.313.081.194.202.364.339.493.443.433.951.69 1.461.918a9.52 9.52 0 0 0 1.578.517c.773.179 1.57.082 2.341.127.444.029.892.077 1.342.074.344-.001.674-.107 1.016-.135.698-.052 1.38-.229 2.051-.47.299-.104.587-.24.86-.422.278-.19.547-.401.765-.683.19-.243.38-.536.391-.891.015-.294.018-.556.017-.838-.01-.707.085-1.364.043-2.071-.003-.04.004-.186.004-.186h-.636z" fill="#2B81BB"/><path d="M39.816 48.258a.358.358 0 0 0-.055-.154c-.076-.109-.065-.63-.053-.794.025-.348-.017-.706-.022-1.055a4.087 4.087 0 0 1 .034-.59c.009-.065-.005-.136-.006-.2a2.156 2.156 0 0 0-.03-.343l-.383.016c.006.11-.003.175.005.225.038.273.01.529.035.8.04.431.008.87.04 1.301.021.27.048.546.052.81l.383-.016zM46.5 47.833a.206.206 0 0 0-.17.192c0 .07.02.1.042.134.023.03.055.063.118.08.023.013.114.004.09.004.05-.013.045-.016.069-.028.125-.104.087-.176.084-.2-.038-.128.032-.657.037-.827.033-.36-.034-.725-.065-1.076a3.52 3.52 0 0 1-.003-.592c.006-.065-.012-.134-.014-.197a2.8 2.8 0 0 0-.032-.336l-.384.007c.007.114-.004.182.005.234.043.282.033.543.077.817.071.431.073.867.084 1.285.004.131.004.263-.006.393-.003.065-.013.129-.021.193l-.007.047c-.039.005.101.028.115.048a.066.066 0 0 1 .022.018c.015.032 0 .01.003.017.004 0 .002-.004.005-.007.005-.008.012-.009 0-.004-.015.005-.022-.009-.015.006l-.003-.02-.03-.188zM47.706 47.384c.002-.003-.007.018-.04.036a.45.45 0 0 1-.057.027l-.034.012h.003l.016.011.005.003.054-.005.088-.005.123-.014c.015-.002.049-.003.049-.003h-.001c-.004-.002-.008-.01-.012-.015-.077-.101-.071-.595-.061-.75.021-.33-.023-.667-.032-.997a3.623 3.623 0 0 1 .028-.56c.008-.06-.006-.127-.008-.188a1.895 1.895 0 0 0-.034-.323l-.382.024c.007.104-.001.165.007.213.041.257.015.5.043.756.044.406.017.822.054 1.229l.036.384.014.192.003.047v.015l.002.007v.008l.001.004v.001c.018.025-.04-.057.05.1.647-.18.185-.117.327-.135l-.001-.02-.006-.04a.387.387 0 0 0-.026-.088c-.017-.028-.043-.113-.181-.143l-.025.19-.003.027z" fill="#2B81BB"/><path d="M11.817 41.09c-.07.299-.182.604-.36.86-.016.025-.034.05-.049.076-.024-.038-.049-.075-.075-.111l-.24-.33c-.2-.275-.467-.505-.705-.742a4.143 4.143 0 0 1-.376-.421c-.034-.05-.09-.092-.13-.136l-.119-.126c.075-.12.145-.243.214-.364.068-.126.138-.255.2-.385l.008.01c.175.153.3.328.465.49.261.251.489.54.748.797l.243.243.12.12c.026.027.022.026.026.03a.147.147 0 0 0 .03-.012M10.995 41.844c.082.094.162.194.234.297.02.024.035.05.052.075-.2.318-.366.63-.596.913-.105-.049-.375-.418-.461-.537-.18-.254-.409-.482-.616-.714a5.977 5.977 0 0 1-.334-.409c-.033-.047-.083-.087-.124-.128a1.612 1.612 0 0 0-.15-.143c.217-.246.417-.508.6-.786.193.183.35.371.542.54.313.277.589.588.853.892M9.834 44.1c-.104-.042-.382-.408-.464-.527-.174-.253-.394-.484-.586-.722a4.368 4.368 0 0 1-.303-.424c-.03-.05-.077-.093-.111-.139-.042-.05-.108-.128-.205-.224a43.133 43.133 0 0 0 .64-.652c.025.026.044.049.063.063.188.156.321.337.496.505.272.265.502.577.754.864.14.155.28.31.402.47a3.745 3.745 0 0 0-.4.47c-.09.108-.174.22-.272.322l-.014-.005M9.683 44.25l.017-.003c-.298.258-.623.472-.932.709L8.714 45a.168.168 0 0 0-.051-.033c-.098-.044-.353-.41-.43-.526-.164-.25-.373-.477-.56-.71a4.707 4.707 0 0 1-.298-.41c-.031-.045-.076-.086-.11-.129a1.92 1.92 0 0 0-.168-.176c.123-.117.248-.232.386-.332.085-.058.276-.227.485-.422.053.065.079.108.11.136.17.171.291.362.453.54.258.281.48.6.734.884.077.089.16.18.239.27.04.045.077.089.118.133l.028.034.007.008.002.003.002-.002.02-.017.002-.002zM5.989 43.846c.361-.223.708-.468.895-.635.042.047.067.08.093.103.169.162.29.343.447.511.25.271.46.58.694.86.131.159.267.318.388.482-.277.228-.552.46-.852.66a.074.074 0 0 0-.021-.01c-.104-.043-.383-.402-.465-.52-.176-.248-.394-.474-.586-.708a4.316 4.316 0 0 1-.306-.419c-.029-.047-.075-.09-.11-.132a2.177 2.177 0 0 0-.177-.192M7.066 45.549c.123.139.253.275.37.415-.142.091-.264.214-.412.293-.05.03-.222.11-.438.202l-.03-.012c-.106-.038-.41-.4-.502-.513-.195-.25-.43-.471-.641-.704a5.237 5.237 0 0 1-.335-.417c-.033-.048-.08-.089-.12-.132-.039-.042-.096-.106-.178-.18l.076-.044c.1-.049.5-.24.929-.489L5.747 44c.064.072.096.12.127.152.17.168.294.353.458.53.257.275.477.588.734.867M4.137 44.839c.15-.06.29-.14.428-.217l-.034.032c.07.071.104.12.138.15.185.169.322.353.497.527.278.271.522.585.8.86.122.122.248.249.368.373-.157.063-.328.128-.476.183a4.378 4.378 0 0 0-.373.144c-.129.053-.261.12-.399.146-.114-.072-.383-.44-.469-.558-.185-.267-.417-.509-.63-.756a5.553 5.553 0 0 1-.337-.437c-.035-.05-.084-.093-.125-.137-.017-.02-.039-.043-.064-.069.229-.072.454-.157.676-.241M4.515 46.735c.099.11.198.225.293.34a5.11 5.11 0 0 1-.335.038c-.225.011-.451-.011-.548-.053-.052-.022-.102-.041-.152-.06l-.132-.081c-.052-.021-.073-.068-.113-.1a.674.674 0 0 1-.115-.125c-.162-.198-.326-.395-.48-.592a6.656 6.656 0 0 1-.48-.705 1.035 1.035 0 0 0-.08-.11 3.077 3.077 0 0 0 .772-.113c.039.042.064.072.09.095.188.173.324.365.502.546.279.288.516.618.778.92" fill="#FAE0AC"/><path d="M10.114 37.799a.985.985 0 0 0 .049.13c.07.245.044.514-.012.77a6.183 6.183 0 0 1-.272.765c-.346.828-.966 1.52-1.551 2.194-.972 1.087-2.195 1.952-3.483 2.6-.465.23-.927.463-1.41.637-.478.172-1.003.287-1.483.186a1.87 1.87 0 0 1-.11-.034.802.802 0 0 1-.47-.4c-.105-.214-.104-.484-.066-.751.07-.415.176-.86.396-1.253.456-.794 1.01-1.54 1.654-2.21.284-.299.58-.58.88-.867.307-.296.633-.574.969-.84.608-.469 1.285-.817 1.987-1.113.445-.186.902-.32 1.36-.372.456-.054.931-.025 1.288.186.042.026.153.15.157.147l-.002.001-.031.026c.048.063.098.127.15.198" fill="#F8D593"/><path d="M10.114 37.799a.985.985 0 0 0 .049.13c.07.245.044.514-.012.77a6.183 6.183 0 0 1-.272.765c-.346.828-.966 1.52-1.551 2.194-.972 1.087-2.195 1.952-3.483 2.6-.465.23-.927.463-1.41.637-.478.172-1.003.287-1.483.186a1.87 1.87 0 0 1-.11-.034.802.802 0 0 1-.47-.4c-.105-.214-.104-.484-.066-.751.07-.415.176-.86.396-1.253.456-.794 1.01-1.54 1.654-2.21.284-.299.58-.58.88-.867.307-.296.633-.574.969-.84.608-.469 1.285-.817 1.987-1.113.445-.186.902-.32 1.36-.372.456-.054.931-.025 1.288.186.042.026.153.15.157.147l-.002.001-.031.026c.048.063.098.127.15.198z" stroke="#FAE0AC"/><path d="M11.058 38.97l-.018-.042.04-.09c.147-.366-.347-.7-.634-.451l-.138.12a.398.398 0 0 0-.124.38 8.98 8.98 0 0 1-.932 1.61l-.823.816a.352.352 0 0 0-.063.05l-.78.786a.408.408 0 0 0-.09.134c-.444.437-.911.847-1.411 1.234a.336.336 0 0 0-.136.3.541.541 0 0 0-.04.09c-.116-.08-.26-.118-.392-.053a.415.415 0 0 0-.207.247c-.017.012-.036.022-.051.036a.391.391 0 0 0-.346.141.376.376 0 0 0-.263.323c-.024-.026-.05-.05-.073-.077-.26-.282-.656-.082-.703.196-.178 0-.476.035-.514.234-.037 0 .048.118.01.12-.16.007-.31.032-.425.117l-.2-.14c-.38-.27-.792.217-.522.574.38.502.899 1.2 1.494 1.454.488.209 1.136.15 1.606-.043.087-.035.339.126.374.06.094-.038.054-.07.144-.121l.053-.137c.327.268.847.053.755-.276.313.057.536-.189.993-.574.099.062.127-.023.243-.096a6.317 6.317 0 0 0 1.71-1.516c.067.008.133 0 .188-.032.55-.317.912-.891 1.2-1.51.023-.013.048-.022.07-.04.555-.457.813-1.024.788-1.709a.453.453 0 0 0 .047-.074c.364-.746.118-1.514-.586-1.973a.395.395 0 0 0-.244-.069" fill="#F8D593"/><path d="M10.045 37.76c.707.848-.396 2.935-2.465 4.66-2.069 1.726-4.32 2.437-5.027 1.589-.708-.848.396-2.935 2.465-4.66 2.069-1.726 4.32-2.437 5.027-1.589" fill="#FCE2AE"/><path d="M10.045 37.76c.707.848-.396 2.935-2.465 4.66-2.069 1.726-4.32 2.437-5.027 1.589-.708-.848.396-2.935 2.465-4.66 2.069-1.726 4.32-2.437 5.027-1.589z" stroke="#F8D593"/><path d="M10.306 37.306c-.164-.186-.396-.37-.656-.442-.26-.095-.528-.108-.794-.107a3.524 3.524 0 0 0-1.457.392c-.898.466-1.753.91-2.539 1.514-.53.411-.987.933-1.502 1.355-.693.58-1.047 1.271-1.557 1.934-.338.46-.491 1.014-.647 1.562-.082.291-.14.607-.077.947.057.342.335.675.673.797.447.163.882.1 1.275.013.394-.1.762-.246 1.133-.381.256-.103.479-.27.716-.398.103-.049.528-.24.97-.492.443-.251.9-.562 1.105-.762.184-.179.358-.369.57-.512.208-.116.96-.89 1.198-1.131.53-.495.96-1.12 1.324-1.765.206-.365.4-.74.545-1.18.055-.14.039-.323.05-.48-.013-.098-.01-.221-.056-.372a2.736 2.736 0 0 0-.094-.242 3.035 3.035 0 0 0-.18-.248l-.491.407c.089.122.093.221.126.288.062.203.027.445-.032.675a6.74 6.74 0 0 1-.277.7c-.337.77-.954 1.413-1.515 2.054-.93 1.037-2.115 1.854-3.335 2.48-.44.22-.868.457-1.317.64-.441.182-.929.313-1.349.235-.493-.11-.58-.497-.474-.98.08-.362.17-.776.392-1.139.458-.73.986-1.436 1.608-2.071.273-.284.555-.55.838-.833.29-.288.597-.561.915-.822.575-.46 1.224-.79 1.883-1.088.42-.188.85-.318 1.273-.375.42-.062.847-.04 1.141.12.035.019.12.12.125.115l.489-.408z" fill="#2B81BB"/><path d="M9.774 37.75c.306.41.705 1.03 1.194 1.457.26.227.486.48.704.738.143.172.17.443.138.738-.045.397-.139.874-.408 1.238-.364.476-.528.99-.952 1.388-.281.26-.447.623-.74.878-.31.264-.666.47-.987.714-.42.328-.802.713-1.267.987-.163.09-.287.245-.451.334a7.476 7.476 0 0 1-.69.29c-.325.122-.677.233-.849.319-.155.07-.312.167-.487.163-.078.005-.291.043-.51.06-.219.011-.44-.011-.528-.055a1.814 1.814 0 0 0-.142-.062c-.04-.028-.078-.056-.119-.079-.046-.019-.064-.063-.1-.089a.735.735 0 0 1-.11-.122c-.162-.198-.328-.392-.48-.592a5.147 5.147 0 0 1-.46-.722c-.044-.083-.122-.151-.178-.225a3.058 3.058 0 0 0-.28-.32l.066.322c0-.01.004-.04.008-.072l-.614-.175-.02.07-.041.14.095.125c.074.095.112.159.155.201.285.279.466.605.732.897.21.23.399.482.587.735.035.057.117.14.194.214.074.082.167.124.257.178.18.093.373.145.554.155.593.046 1.121-.077 1.636-.22a9.063 9.063 0 0 0 1.473-.583c.677-.34 1.198-.905 1.79-1.341.344-.25.703-.486 1.031-.762.252-.21.427-.493.66-.72.483-.464.873-1.011 1.217-1.6.156-.258.284-.535.372-.836.086-.309.153-.63.14-.971-.01-.296-.051-.628-.26-.898a13.156 13.156 0 0 0-.5-.624c-.438-.511-.767-1.053-1.23-1.542-.027-.029-.111-.14-.111-.14l-.489.408z" fill="#2B81BB"/><path d="M5.258 47.104a.318.318 0 0 0-.129-.084c-.12-.038-.4-.435-.485-.563-.178-.274-.417-.511-.627-.76a4.015 4.015 0 0 1-.326-.448c-.033-.051-.085-.093-.126-.138a1.794 1.794 0 0 0-.232-.223l-.278.264c.07.073.104.124.14.154.194.167.324.366.502.545.283.283.509.621.775.92.166.185.339.375.484.57l.302-.237zM6.686 46.588a.331.331 0 0 0-.135-.078c-.125-.03-.434-.42-.525-.548-.193-.271-.442-.506-.658-.759a3.719 3.719 0 0 1-.334-.455c-.032-.053-.086-.095-.126-.142a1.984 1.984 0 0 0-.232-.232l-.284.258c.071.076.105.13.141.162.196.175.33.38.514.564.292.29.535.632.823.927.18.185.369.37.532.56l.284-.257zM7.788 45.863a.315.315 0 0 0-.132-.079c-.122-.033-.413-.422-.497-.55-.181-.27-.418-.507-.623-.76a3.538 3.538 0 0 1-.312-.454c-.03-.052-.081-.095-.119-.142a1.85 1.85 0 0 0-.221-.232l-.291.249c.068.076.099.13.133.162.187.176.312.38.488.565.277.291.504.632.778.928.17.186.35.371.504.562l.292-.25zM8.814 45.023a.287.287 0 0 0-.124-.074c-.117-.031-.375-.394-.45-.513-.159-.254-.375-.475-.558-.711a3.044 3.044 0 0 1-.277-.428c-.027-.05-.074-.09-.108-.133a1.566 1.566 0 0 0-.2-.217l-.285.257c.06.07.087.12.119.15.168.161.276.353.434.522.25.269.447.586.691.859.154.17.315.342.452.519l.306-.231zM9.753 44.35a.437.437 0 0 1-.01.06c-.002.02-.014.069-.012.056l.008-.001.035.003.031.003.038.004c.014-.003.015.008.085-.014a.171.171 0 0 0 .095-.1c.019-.083.003-.08 0-.105-.049-.096-.04-.054-.05-.068l-.02-.007c-.126-.038-.426-.45-.514-.585-.188-.286-.433-.538-.644-.807a3.932 3.932 0 0 1-.324-.48c-.031-.055-.084-.101-.123-.15a2.04 2.04 0 0 0-.228-.248l-.293.246c.07.082.102.138.138.172.193.189.322.405.503.601.287.31.522.67.804.985l.267.297.13.15.032.038.016.019.089-.083h.001l.003-.002.005-.003.011-.006.022-.012c.007-.009.017-.008.017-.008-.006-.006-.001-.046.012-.093l.024-.09-.008-.003-.024-.008c-.02-.006-.037-.015-.087-.023l-.021.191-.008.07v.002-.001zM10.841 43.186a.296.296 0 0 0-.124-.08c-.118-.035-.386-.414-.468-.536-.172-.262-.405-.484-.611-.719a3.89 3.89 0 0 1-.323-.421c-.032-.05-.084-.087-.124-.129a1.58 1.58 0 0 0-.231-.205l-.268.275c.07.066.104.114.139.142.19.15.32.338.494.503.276.263.495.583.75.864.161.176.327.355.465.542l.301-.236zM11.304 42.198a.202.202 0 0 0-.008.256.213.213 0 0 0 .258.063c.026-.006.09-.071.072-.056.03-.042.024-.04.034-.065.029-.159-.046-.188-.063-.204-.108-.068-.38-.5-.479-.628-.195-.286-.467-.51-.703-.749a3.24 3.24 0 0 1-.362-.433c-.034-.05-.09-.09-.13-.135a2.457 2.457 0 0 0-.229-.226l-.29.25c.074.081.108.138.147.17.204.179.356.379.555.55.316.273.582.592.844.89.083.093.164.19.236.29.037.05.07.101.101.153l.024.04c.005.008-.007.008.048-.016a.31.31 0 0 1 .074-.025.062.062 0 0 1 .027 0h-.001c.032.014.007.008.014.01.002-.001-.001-.004-.001-.008-.002-.01.003-.013-.003-.002-.008.012-.02.006-.006.013l-.015-.012-.144-.126M11.918 41.14c0-.003.007.018-.006.051a.375.375 0 0 1-.026.055c-.011.021-.027.044-.02.034.004-.002.01-.002.018-.003l.006-.002c.011-.01.063-.066.103-.098l.081-.086.039-.037c-.004.002-.013-.001-.019-.003-.12-.024-.416-.39-.503-.51-.184-.256-.424-.475-.631-.711a3.313 3.313 0 0 1-.319-.429c-.031-.05-.082-.089-.12-.132a1.784 1.784 0 0 0-.223-.216l-.279.264c.069.072.1.122.136.152.188.162.316.356.493.526.28.27.512.592.788.867l.261.259.128.13.031.034.01.01.004.005.006.005.003.003.002.001c.029.008-.067-.018.1.045.384-.553.069-.208.166-.314l-.013-.013-.029-.026a.376.376 0 0 0-.075-.05c-.03-.011-.104-.06-.228.006l.102.162.014.021z" fill="#2B81BB"/></g></svg>